<svg width="29" height="29" viewBox="0 0 29 29" fill="none" xmlns="http://www.w3.org/2000/svg">
<path d="M9.51195 1.22579C10.2069 0.982337 10.9677 1.34837 11.2111 2.04334C11.4546 2.73831 11.0885 3.49905 10.3936 3.74251C10.0287 3.87031 9.67117 4.01628 9.32202 4.1798C5.2854 6.07033 2.66667 10.14 2.66667 14.7125C2.66667 21.1301 7.87541 26.3333 14.3014 26.3333C19.291 26.3333 23.6882 23.1373 25.2996 18.4855C25.5406 17.7897 26.3001 17.421 26.9959 17.662C27.6917 17.903 28.0604 18.6625 27.8194 19.3583C25.8395 25.0741 20.438 28.9999 14.3014 28.9999C6.4033 28.9999 0 22.6035 0 14.7125C0 9.09959 3.22234 4.09191 8.191 1.76487C8.62142 1.56329 9.06221 1.38333 9.51195 1.22579ZM14 1.66659C14 0.930206 14.597 0.333252 15.3333 0.333252C22.6971 0.333252 28.6667 6.30279 28.6667 13.6666C28.6667 14.403 28.0697 14.9999 27.3333 14.9999H15.3333C14.597 14.9999 14 14.403 14 13.6666V1.66659ZM16.6667 12.3333H25.9175C25.3158 7.5083 21.4916 3.68411 16.6667 3.08244V12.3333Z" fill="white"/>
</svg>
