<svg width="176" height="38" viewBox="0 0 176 38" fill="none" xmlns="http://www.w3.org/2000/svg">
<path d="M113.627 0.185705C113.58 0.185705 113.534 0.139279 113.534 0.0928527C113.534 0.0464263 113.58 0 113.627 0H176V38C161.366 17.2242 138.756 3.52841 113.627 0.185705Z" fill="#FF6B00"/>
<path d="M165.712 22.1454C166.129 15.8779 165.99 12.2334 167.076 11.2352C168.163 10.2371 169.851 10.0746 172.856 9.84245C166.221 9.07642 166.383 9.26212 165.712 2.78564C165.042 9.26212 165.204 9.07642 158.569 9.84245C161.597 10.0746 163.377 10.3067 164.348 11.2352C165.319 12.1638 165.273 15.8779 165.712 22.1454Z" fill="white"/>
<path d="M18.379 25.9059H15.2581V37.2571H18.379V25.9059Z" fill="white"/>
<path d="M17.2232 20.7526C16.2984 20.7526 15.5587 21.4954 15.5587 22.4239C15.5587 23.3524 16.2984 24.0953 17.2232 24.0953C18.1479 24.0953 18.8877 23.3524 18.8877 22.4239C18.9108 21.5186 18.171 20.7758 17.2694 20.7526C17.2463 20.7526 17.2463 20.7526 17.2232 20.7526Z" fill="white"/>
<path d="M20.3442 29.0165C20.0436 33.3341 26.3549 32.3127 26.17 34.9358C26.0775 36.0036 25.1759 36.3518 24.2049 36.3286C22.6329 36.2126 21.685 35.3072 20.8296 34.3091L19.9049 36.3983C21.0839 37.0714 22.4017 37.4661 23.7657 37.5821C26.4705 37.7678 28.7592 36.584 28.921 33.9609C29.1985 29.8754 22.656 30.386 22.7947 28.3201C22.8641 27.4148 23.8813 26.9505 24.9216 27.0201C25.9619 27.0898 26.8404 27.7165 27.7882 28.5522L28.6205 26.6719C27.5802 26.2077 26.4705 25.9291 25.3377 25.8363C22.4248 25.6506 20.4597 27.2058 20.3442 29.0165Z" fill="white"/>
<path d="M6.70432 37.2572H8.04519L14.657 22.0061H12.9463L8.34573 32.7306L3.79141 22.0061H0L6.70432 37.2572Z" fill="white"/>
<path d="M42.3528 31.5699C42.3528 34.7501 44.6878 37.3732 48.4792 37.3732C52.2706 37.3732 54.6056 34.7501 54.6056 31.5699C54.6056 28.3897 52.2475 25.7666 48.4792 25.7666C44.7109 25.7666 42.3528 28.3897 42.3528 31.5699ZM51.3228 31.5699C51.3228 34.193 50.4443 36.2822 48.5023 36.2822C46.5604 36.2822 45.6819 34.193 45.6819 31.5699C45.6819 28.9468 46.5604 26.8576 48.5023 26.8576C50.4443 26.8576 51.3228 28.9468 51.3228 31.5699Z" fill="white"/>
<path d="M146.917 19.917H143.796V37.3037H146.917V19.917Z" fill="white"/>
<path d="M138.294 35.4929V37.3036H141.392V29.5968C141.392 27.0201 139.288 25.7666 136.329 25.7666C134.248 25.7666 132.445 26.4862 131.335 26.9505L132.722 29.5271L133.994 28.2968C134.503 27.7629 135.381 26.9273 136.398 26.9273C137.785 26.9273 138.294 28.0415 138.294 29.5039V34.2858C136.814 35.4697 136.19 35.7483 135.612 35.7483C133.509 35.7483 133.231 31.9645 135.589 31.7324L136.514 31.6395V30.5021H135.081C133.185 30.5021 130.919 31.5003 130.919 34.1001C130.919 36.7 133.023 37.5357 134.086 37.5357C135.15 37.5357 136.098 36.9554 137.161 36.2357L138.294 35.4929Z" fill="white"/>
<path d="M32.1807 23.7703L33.1055 23.9096C33.3135 22.1454 35.5329 23.1435 37.2668 23.3989C39.0006 23.6542 39.8329 21.5882 39.9254 20.358L39.0931 20.3115C38.3071 22.2614 36.0877 20.6133 34.5619 20.7758C33.0361 20.9383 32.2963 22.1454 32.1807 23.7703Z" fill="white"/>
<path d="M37.4517 35.4929V37.3036H40.5496V29.5968C40.5496 27.0201 38.4458 25.7666 35.4867 25.7666C33.406 25.7666 31.6028 26.4862 30.4931 26.9505L31.8802 29.5271L33.1517 28.2968C33.6603 27.7629 34.5388 26.9273 35.556 26.9273C36.9431 26.9273 37.4517 28.0415 37.4517 29.5039V34.2858C35.9721 35.4697 35.348 35.7483 34.77 35.7483C32.6662 35.7483 32.3888 31.9645 34.7469 31.7324L35.6716 31.6395V30.5021H34.2614C32.3657 30.5021 30.1001 31.5003 30.1001 34.1001C30.1001 36.7 32.2039 37.5357 33.2673 37.5357C34.3308 37.5357 35.2786 36.9554 36.342 36.2357L37.4517 35.4929Z" fill="white"/>
<path d="M120.146 28.1576V35.0287C119.337 35.7251 118.574 36.2358 117.441 36.2358C116.308 36.2358 114.251 35.0519 114.251 31.6396C114.251 28.2272 117.094 25.2792 120.146 28.1576ZM120.262 36.1429V37.2572H123.267V19.8705H120.146V26.788C119.268 26.1148 117.95 25.697 116.586 25.697C114.875 25.697 110.783 26.7648 110.783 31.7324C110.783 35.4465 114.043 37.4661 116.563 37.4661C117.927 37.5125 119.244 37.025 120.262 36.1429Z" fill="white"/>
<path d="M100.033 25.8827H97.0277V37.2572H100.149V28.088C101.073 27.2755 101.975 26.9505 102.761 26.9505C104.426 26.9505 105.558 28.5522 105.558 30.3164V37.2572H108.726V30.9896C108.726 26.7648 105.512 25.697 103.616 25.697C102.229 25.697 101.097 26.2077 100.033 26.997V25.8827Z" fill="white"/>
<path d="M127.382 20.8221C126.457 20.8221 125.718 21.565 125.718 22.4935C125.718 23.422 126.457 24.1648 127.382 24.1648C128.307 24.1648 129.047 23.422 129.047 22.4935C129.07 21.5882 128.33 20.8454 127.428 20.8221C127.405 20.8221 127.405 20.8221 127.382 20.8221Z" fill="white"/>
<path d="M128.862 25.8827H125.694V37.2339H128.862V25.8827Z" fill="white"/>
<path d="M81.7465 37.2571L78.0707 21.9596H75.6201L71.3664 32.5216L65.9798 21.9364H63.5986L61.6104 37.2571H63.1825L64.5927 26.0683L70.2336 37.4428H70.9733L75.5508 26.0683L78.3943 37.2571H81.7465Z" fill="white"/>
<path d="M91.5949 37.2572H94.6003V25.8827H91.4562V35.0287C90.5315 35.8411 89.6299 36.1661 88.8438 36.1661C87.1793 36.1661 86.0465 34.5644 86.0465 32.8234V25.8827H82.8793V32.127C82.8793 36.3518 86.0928 37.4196 87.9885 37.4196C89.3756 37.4196 90.5084 36.909 91.5718 36.1197L91.5949 37.2572Z" fill="white"/>
</svg>
