<svg width="296" height="104" viewBox="0 0 296 104" fill="none" xmlns="http://www.w3.org/2000/svg">
<rect width="296" height="104" rx="4" fill="#FF6B00"/>
<path d="M78.872 74C78.6693 74 78.5413 73.9013 78.488 73.704L78.36 72.72C78.0133 73.1413 77.616 73.48 77.168 73.736C76.7253 73.9867 76.216 74.112 75.64 74.112C75.176 74.112 74.7547 74.024 74.376 73.848C73.9973 73.6667 73.6747 73.4027 73.408 73.056C73.1413 72.7093 72.936 72.2773 72.792 71.76C72.648 71.2427 72.576 70.648 72.576 69.976C72.576 69.3787 72.656 68.824 72.816 68.312C72.976 67.7947 73.2053 67.3467 73.504 66.968C73.808 66.5893 74.176 66.2933 74.608 66.08C75.04 65.8613 75.5307 65.752 76.08 65.752C76.576 65.752 77 65.8373 77.352 66.008C77.704 66.1733 78.0187 66.408 78.296 66.712V62.216H79.72V74H78.872ZM76.112 72.96C76.576 72.96 76.9813 72.8533 77.328 72.64C77.68 72.4267 78.0027 72.1253 78.296 71.736V67.816C78.0347 67.464 77.7467 67.2187 77.432 67.08C77.1227 66.936 76.7787 66.864 76.4 66.864C75.6427 66.864 75.0613 67.1333 74.656 67.672C74.2507 68.2107 74.048 68.9787 74.048 69.976C74.048 70.504 74.0933 70.9573 74.184 71.336C74.2747 71.7093 74.408 72.0187 74.584 72.264C74.76 72.504 74.976 72.68 75.232 72.792C75.488 72.904 75.7813 72.96 76.112 72.96ZM85.6335 65.768C86.1188 65.768 86.5668 65.8507 86.9775 66.016C87.3882 66.176 87.7428 66.4107 88.0415 66.72C88.3402 67.024 88.5722 67.4027 88.7375 67.856C88.9082 68.304 88.9935 68.816 88.9935 69.392C88.9935 69.616 88.9695 69.7653 88.9215 69.84C88.8735 69.9147 88.7828 69.952 88.6495 69.952H83.2575C83.2682 70.464 83.3375 70.9093 83.4655 71.288C83.5935 71.6667 83.7695 71.984 83.9935 72.24C84.2175 72.4907 84.4842 72.68 84.7935 72.808C85.1028 72.9307 85.4495 72.992 85.8335 72.992C86.1908 72.992 86.4975 72.952 86.7535 72.872C87.0148 72.7867 87.2388 72.696 87.4255 72.6C87.6122 72.504 87.7668 72.416 87.8895 72.336C88.0175 72.2507 88.1268 72.208 88.2175 72.208C88.3348 72.208 88.4255 72.2533 88.4895 72.344L88.8895 72.864C88.7135 73.0773 88.5028 73.264 88.2575 73.424C88.0122 73.5787 87.7482 73.7067 87.4655 73.808C87.1882 73.9093 86.9002 73.984 86.6015 74.032C86.3028 74.0853 86.0068 74.112 85.7135 74.112C85.1535 74.112 84.6362 74.0187 84.1615 73.832C83.6922 73.64 83.2842 73.3627 82.9375 73C82.5962 72.632 82.3295 72.1787 82.1375 71.64C81.9455 71.1013 81.8495 70.4827 81.8495 69.784C81.8495 69.2187 81.9348 68.6907 82.1055 68.2C82.2815 67.7093 82.5322 67.2853 82.8575 66.928C83.1828 66.5653 83.5802 66.2827 84.0495 66.08C84.5188 65.872 85.0468 65.768 85.6335 65.768ZM85.6655 66.816C84.9775 66.816 84.4362 67.016 84.0415 67.416C83.6468 67.8107 83.4015 68.36 83.3055 69.064H87.7135C87.7135 68.7333 87.6682 68.432 87.5775 68.16C87.4868 67.8827 87.3535 67.6453 87.1775 67.448C87.0015 67.2453 86.7855 67.0907 86.5295 66.984C86.2788 66.872 85.9908 66.816 85.6655 66.816ZM100.078 67.336C100.035 67.3947 99.9925 67.44 99.9499 67.472C99.9072 67.504 99.8459 67.52 99.7659 67.52C99.6859 67.52 99.5979 67.488 99.5019 67.424C99.4112 67.3547 99.2939 67.28 99.1499 67.2C99.0059 67.12 98.8299 67.048 98.6219 66.984C98.4192 66.9147 98.1685 66.88 97.8699 66.88C97.4752 66.88 97.1259 66.952 96.8219 67.096C96.5179 67.2347 96.2619 67.4373 96.0539 67.704C95.8512 67.9707 95.6965 68.2933 95.5899 68.672C95.4885 69.0507 95.4379 69.4747 95.4379 69.944C95.4379 70.4347 95.4939 70.872 95.6059 71.256C95.7179 71.6347 95.8752 71.9547 96.0779 72.216C96.2805 72.472 96.5259 72.6693 96.8139 72.808C97.1072 72.9413 97.4352 73.008 97.7979 73.008C98.1445 73.008 98.4299 72.968 98.6539 72.888C98.8779 72.8027 99.0645 72.7093 99.2139 72.608C99.3632 72.5067 99.4859 72.416 99.5819 72.336C99.6779 72.2507 99.7739 72.208 99.8699 72.208C99.9925 72.208 100.083 72.2533 100.142 72.344L100.542 72.864C100.19 73.296 99.7499 73.6133 99.2219 73.816C98.6939 74.0133 98.1365 74.112 97.5499 74.112C97.0432 74.112 96.5712 74.0187 96.1339 73.832C95.7019 73.6453 95.3259 73.376 95.0059 73.024C94.6859 72.6667 94.4325 72.2293 94.2459 71.712C94.0645 71.1947 93.9739 70.6053 93.9739 69.944C93.9739 69.3413 94.0565 68.784 94.2219 68.272C94.3925 67.76 94.6379 67.32 94.9579 66.952C95.2832 66.5787 95.6832 66.288 96.1579 66.08C96.6325 65.872 97.1765 65.768 97.7899 65.768C98.3552 65.768 98.8565 65.8613 99.2939 66.048C99.7312 66.2293 100.118 66.488 100.454 66.824L100.078 67.336ZM102.339 74V65.896H103.155C103.309 65.896 103.416 65.9253 103.475 65.984C103.533 66.0427 103.573 66.144 103.595 66.288L103.691 67.552C103.968 66.9867 104.309 66.5467 104.715 66.232C105.125 65.912 105.605 65.752 106.155 65.752C106.379 65.752 106.581 65.7787 106.763 65.832C106.944 65.88 107.112 65.9493 107.267 66.04L107.083 67.104C107.045 67.2373 106.963 67.304 106.835 67.304C106.76 67.304 106.645 67.28 106.491 67.232C106.336 67.1787 106.12 67.152 105.843 67.152C105.347 67.152 104.931 67.296 104.595 67.584C104.264 67.872 103.987 68.2907 103.763 68.84V74H102.339ZM110.696 65.896V74H109.272V65.896H110.696ZM111.016 63.352C111.016 63.4907 110.986 63.6213 110.928 63.744C110.874 63.8613 110.8 63.968 110.704 64.064C110.613 64.1547 110.506 64.2267 110.384 64.28C110.261 64.3333 110.13 64.36 109.992 64.36C109.853 64.36 109.722 64.3333 109.6 64.28C109.482 64.2267 109.376 64.1547 109.28 64.064C109.189 63.968 109.117 63.8613 109.064 63.744C109.01 63.6213 108.984 63.4907 108.984 63.352C108.984 63.2133 109.01 63.0827 109.064 62.96C109.117 62.832 109.189 62.7227 109.28 62.632C109.376 62.536 109.482 62.4613 109.6 62.408C109.722 62.3547 109.853 62.328 109.992 62.328C110.13 62.328 110.261 62.3547 110.384 62.408C110.506 62.4613 110.613 62.536 110.704 62.632C110.8 62.7227 110.874 62.832 110.928 62.96C110.986 63.0827 111.016 63.2133 111.016 63.352ZM119.477 74H118.845C118.707 74 118.595 73.9787 118.509 73.936C118.424 73.8933 118.368 73.8027 118.341 73.664L118.181 72.912C117.968 73.104 117.76 73.2773 117.557 73.432C117.355 73.5813 117.141 73.7093 116.917 73.816C116.693 73.9173 116.453 73.9947 116.197 74.048C115.947 74.1013 115.667 74.128 115.357 74.128C115.043 74.128 114.747 74.0853 114.469 74C114.197 73.9093 113.96 73.776 113.757 73.6C113.555 73.424 113.392 73.2027 113.269 72.936C113.152 72.664 113.093 72.344 113.093 71.976C113.093 71.656 113.181 71.3493 113.357 71.056C113.533 70.7573 113.816 70.4933 114.205 70.264C114.6 70.0347 115.115 69.848 115.749 69.704C116.384 69.5547 117.16 69.4693 118.077 69.448V68.816C118.077 68.1867 117.941 67.712 117.669 67.392C117.403 67.0667 117.005 66.904 116.477 66.904C116.131 66.904 115.837 66.9493 115.597 67.04C115.363 67.1253 115.157 67.224 114.981 67.336C114.811 67.4427 114.661 67.5413 114.533 67.632C114.411 67.7173 114.288 67.76 114.165 67.76C114.069 67.76 113.984 67.736 113.909 67.688C113.84 67.6347 113.784 67.5707 113.741 67.496L113.485 67.04C113.933 66.608 114.416 66.2853 114.933 66.072C115.451 65.8587 116.024 65.752 116.653 65.752C117.107 65.752 117.509 65.8267 117.861 65.976C118.213 66.1253 118.509 66.3333 118.749 66.6C118.989 66.8667 119.171 67.1893 119.293 67.568C119.416 67.9467 119.477 68.3627 119.477 68.816V74ZM115.781 73.128C116.032 73.128 116.261 73.104 116.469 73.056C116.677 73.0027 116.872 72.9307 117.053 72.84C117.24 72.744 117.416 72.6293 117.581 72.496C117.752 72.3627 117.917 72.2107 118.077 72.04V70.352C117.421 70.3733 116.864 70.4267 116.405 70.512C115.947 70.592 115.573 70.6987 115.285 70.832C114.997 70.9653 114.787 71.1227 114.653 71.304C114.525 71.4853 114.461 71.688 114.461 71.912C114.461 72.1253 114.496 72.3093 114.565 72.464C114.635 72.6187 114.728 72.7467 114.845 72.848C114.963 72.944 115.101 73.016 115.261 73.064C115.421 73.1067 115.595 73.128 115.781 73.128ZM121.955 74V65.896H122.803C123.006 65.896 123.134 65.9947 123.187 66.192L123.299 67.072C123.651 66.6827 124.043 66.368 124.475 66.128C124.912 65.888 125.416 65.768 125.987 65.768C126.43 65.768 126.819 65.8427 127.155 65.992C127.496 66.136 127.779 66.344 128.003 66.616C128.232 66.8827 128.406 67.2053 128.523 67.584C128.64 67.9627 128.699 68.3813 128.699 68.84V74H127.275V68.84C127.275 68.2267 127.134 67.752 126.851 67.416C126.574 67.0747 126.147 66.904 125.571 66.904C125.15 66.904 124.755 67.0053 124.387 67.208C124.024 67.4107 123.688 67.6853 123.379 68.032V74H121.955ZM133.198 75.976C133.23 75.976 133.267 75.984 133.31 76C133.352 76.0213 133.403 76.0427 133.462 76.064C133.52 76.0907 133.592 76.112 133.678 76.128C133.763 76.1493 133.862 76.16 133.974 76.16C134.198 76.16 134.366 76.1147 134.478 76.024C134.595 75.9387 134.654 75.8267 134.654 75.688C134.654 75.5867 134.624 75.5013 134.566 75.432C134.507 75.3627 134.422 75.304 134.31 75.256C134.203 75.208 134.07 75.168 133.91 75.136C133.75 75.104 133.568 75.0747 133.366 75.048L133.662 74.08C133.219 74.0213 132.808 73.888 132.43 73.68C132.056 73.4667 131.734 73.184 131.462 72.832C131.19 72.48 130.976 72.0613 130.822 71.576C130.667 71.0907 130.59 70.5467 130.59 69.944C130.59 69.3413 130.672 68.784 130.838 68.272C131.008 67.76 131.254 67.32 131.574 66.952C131.899 66.5787 132.299 66.288 132.774 66.08C133.248 65.872 133.792 65.768 134.406 65.768C134.971 65.768 135.472 65.8613 135.91 66.048C136.347 66.2293 136.734 66.488 137.07 66.824L136.694 67.336C136.651 67.3947 136.608 67.44 136.566 67.472C136.523 67.504 136.462 67.52 136.382 67.52C136.302 67.52 136.214 67.488 136.118 67.424C136.027 67.3547 135.91 67.28 135.766 67.2C135.622 67.12 135.446 67.048 135.238 66.984C135.035 66.9147 134.784 66.88 134.486 66.88C134.091 66.88 133.742 66.952 133.438 67.096C133.134 67.2347 132.878 67.4373 132.67 67.704C132.467 67.9707 132.312 68.2933 132.206 68.672C132.104 69.0507 132.054 69.4747 132.054 69.944C132.054 70.4347 132.11 70.872 132.222 71.256C132.334 71.6347 132.491 71.9547 132.694 72.216C132.896 72.472 133.142 72.6693 133.43 72.808C133.723 72.9413 134.051 73.008 134.414 73.008C134.76 73.008 135.046 72.968 135.27 72.888C135.494 72.8027 135.68 72.7093 135.83 72.608C135.979 72.5067 136.102 72.416 136.198 72.336C136.294 72.2507 136.39 72.208 136.486 72.208C136.544 72.208 136.595 72.2213 136.638 72.248C136.686 72.2693 136.726 72.3013 136.758 72.344L137.158 72.864C136.843 73.248 136.459 73.5387 136.006 73.736C135.552 73.9333 135.067 74.0533 134.55 74.096L134.414 74.56C134.894 74.6667 135.24 74.8107 135.454 74.992C135.672 75.1787 135.782 75.416 135.782 75.704C135.782 75.8747 135.739 76.0267 135.654 76.16C135.568 76.2987 135.448 76.416 135.294 76.512C135.144 76.608 134.963 76.68 134.75 76.728C134.536 76.7813 134.302 76.808 134.046 76.808C133.827 76.808 133.619 76.784 133.422 76.736C133.224 76.6933 133.043 76.6347 132.878 76.56L133.014 76.12C133.046 76.024 133.107 75.976 133.198 75.976ZM144.906 74H144.274C144.136 74 144.024 73.9787 143.938 73.936C143.853 73.8933 143.797 73.8027 143.77 73.664L143.61 72.912C143.397 73.104 143.189 73.2773 142.986 73.432C142.784 73.5813 142.57 73.7093 142.346 73.816C142.122 73.9173 141.882 73.9947 141.626 74.048C141.376 74.1013 141.096 74.128 140.786 74.128C140.472 74.128 140.176 74.0853 139.898 74C139.626 73.9093 139.389 73.776 139.186 73.6C138.984 73.424 138.821 73.2027 138.698 72.936C138.581 72.664 138.522 72.344 138.522 71.976C138.522 71.656 138.61 71.3493 138.786 71.056C138.962 70.7573 139.245 70.4933 139.634 70.264C140.029 70.0347 140.544 69.848 141.178 69.704C141.813 69.5547 142.589 69.4693 143.506 69.448V68.816C143.506 68.1867 143.37 67.712 143.098 67.392C142.832 67.0667 142.434 66.904 141.906 66.904C141.56 66.904 141.266 66.9493 141.026 67.04C140.792 67.1253 140.586 67.224 140.41 67.336C140.24 67.4427 140.09 67.5413 139.962 67.632C139.84 67.7173 139.717 67.76 139.594 67.76C139.498 67.76 139.413 67.736 139.338 67.688C139.269 67.6347 139.213 67.5707 139.17 67.496L138.914 67.04C139.362 66.608 139.845 66.2853 140.362 66.072C140.88 65.8587 141.453 65.752 142.082 65.752C142.536 65.752 142.938 65.8267 143.29 65.976C143.642 66.1253 143.938 66.3333 144.178 66.6C144.418 66.8667 144.6 67.1893 144.722 67.568C144.845 67.9467 144.906 68.3627 144.906 68.816V74ZM141.21 73.128C141.461 73.128 141.69 73.104 141.898 73.056C142.106 73.0027 142.301 72.9307 142.482 72.84C142.669 72.744 142.845 72.6293 143.01 72.496C143.181 72.3627 143.346 72.2107 143.506 72.04V70.352C142.85 70.3733 142.293 70.4267 141.834 70.512C141.376 70.592 141.002 70.6987 140.714 70.832C140.426 70.9653 140.216 71.1227 140.082 71.304C139.954 71.4853 139.89 71.688 139.89 71.912C139.89 72.1253 139.925 72.3093 139.994 72.464C140.064 72.6187 140.157 72.7467 140.274 72.848C140.392 72.944 140.53 73.016 140.69 73.064C140.85 73.1067 141.024 73.128 141.21 73.128ZM152.024 67.232C151.96 67.3493 151.861 67.408 151.728 67.408C151.648 67.408 151.557 67.3787 151.456 67.32C151.354 67.2613 151.229 67.1973 151.08 67.128C150.936 67.0533 150.762 66.9867 150.56 66.928C150.357 66.864 150.117 66.832 149.84 66.832C149.6 66.832 149.384 66.864 149.192 66.928C149 66.9867 148.834 67.0693 148.696 67.176C148.562 67.2827 148.458 67.408 148.384 67.552C148.314 67.6907 148.28 67.8427 148.28 68.008C148.28 68.216 148.338 68.3893 148.456 68.528C148.578 68.6667 148.738 68.7867 148.936 68.888C149.133 68.9893 149.357 69.08 149.608 69.16C149.858 69.2347 150.114 69.3173 150.376 69.408C150.642 69.4933 150.901 69.5893 151.152 69.696C151.402 69.8027 151.626 69.936 151.824 70.096C152.021 70.256 152.178 70.4533 152.296 70.688C152.418 70.9173 152.48 71.1947 152.48 71.52C152.48 71.8933 152.413 72.24 152.28 72.56C152.146 72.8747 151.949 73.1493 151.688 73.384C151.426 73.6133 151.106 73.7947 150.728 73.928C150.349 74.0613 149.912 74.128 149.416 74.128C148.85 74.128 148.338 74.0373 147.88 73.856C147.421 73.6693 147.032 73.432 146.712 73.144L147.048 72.6C147.09 72.5307 147.141 72.4773 147.2 72.44C147.258 72.4027 147.336 72.384 147.432 72.384C147.528 72.384 147.629 72.4213 147.736 72.496C147.842 72.5707 147.97 72.6533 148.12 72.744C148.274 72.8347 148.458 72.9173 148.672 72.992C148.89 73.0667 149.162 73.104 149.488 73.104C149.765 73.104 150.008 73.0693 150.216 73C150.424 72.9253 150.597 72.8267 150.736 72.704C150.874 72.5813 150.976 72.44 151.04 72.28C151.109 72.12 151.144 71.9493 151.144 71.768C151.144 71.544 151.082 71.36 150.96 71.216C150.842 71.0667 150.685 70.9413 150.488 70.84C150.29 70.7333 150.064 70.6427 149.808 70.568C149.557 70.488 149.298 70.4053 149.032 70.32C148.77 70.2347 148.512 70.1387 148.256 70.032C148.005 69.92 147.781 69.7813 147.584 69.616C147.386 69.4507 147.226 69.248 147.104 69.008C146.986 68.7627 146.928 68.4667 146.928 68.12C146.928 67.8107 146.992 67.5147 147.12 67.232C147.248 66.944 147.434 66.6933 147.68 66.48C147.925 66.2613 148.226 66.088 148.584 65.96C148.941 65.832 149.349 65.768 149.808 65.768C150.341 65.768 150.818 65.8533 151.24 66.024C151.666 66.1893 152.034 66.4187 152.344 66.712L152.024 67.232ZM164.007 74H163.375C163.236 74 163.124 73.9787 163.039 73.936C162.954 73.8933 162.898 73.8027 162.871 73.664L162.711 72.912C162.498 73.104 162.29 73.2773 162.087 73.432C161.884 73.5813 161.671 73.7093 161.447 73.816C161.223 73.9173 160.983 73.9947 160.727 74.048C160.476 74.1013 160.196 74.128 159.887 74.128C159.572 74.128 159.276 74.0853 158.999 74C158.727 73.9093 158.49 73.776 158.287 73.6C158.084 73.424 157.922 73.2027 157.799 72.936C157.682 72.664 157.623 72.344 157.623 71.976C157.623 71.656 157.711 71.3493 157.887 71.056C158.063 70.7573 158.346 70.4933 158.735 70.264C159.13 70.0347 159.644 69.848 160.279 69.704C160.914 69.5547 161.69 69.4693 162.607 69.448V68.816C162.607 68.1867 162.471 67.712 162.199 67.392C161.932 67.0667 161.535 66.904 161.007 66.904C160.66 66.904 160.367 66.9493 160.127 67.04C159.892 67.1253 159.687 67.224 159.511 67.336C159.34 67.4427 159.191 67.5413 159.063 67.632C158.94 67.7173 158.818 67.76 158.695 67.76C158.599 67.76 158.514 67.736 158.439 67.688C158.37 67.6347 158.314 67.5707 158.271 67.496L158.015 67.04C158.463 66.608 158.946 66.2853 159.463 66.072C159.98 65.8587 160.554 65.752 161.183 65.752C161.636 65.752 162.039 65.8267 162.391 65.976C162.743 66.1253 163.039 66.3333 163.279 66.6C163.519 66.8667 163.7 67.1893 163.823 67.568C163.946 67.9467 164.007 68.3627 164.007 68.816V74ZM160.311 73.128C160.562 73.128 160.791 73.104 160.999 73.056C161.207 73.0027 161.402 72.9307 161.583 72.84C161.77 72.744 161.946 72.6293 162.111 72.496C162.282 72.3627 162.447 72.2107 162.607 72.04V70.352C161.951 70.3733 161.394 70.4267 160.935 70.512C160.476 70.592 160.103 70.6987 159.815 70.832C159.527 70.9653 159.316 71.1227 159.183 71.304C159.055 71.4853 158.991 71.688 158.991 71.912C158.991 72.1253 159.026 72.3093 159.095 72.464C159.164 72.6187 159.258 72.7467 159.375 72.848C159.492 72.944 159.631 73.016 159.791 73.064C159.951 73.1067 160.124 73.128 160.311 73.128ZM166.484 76.744V65.896H167.332C167.535 65.896 167.663 65.9947 167.716 66.192L167.836 67.152C168.183 66.7307 168.578 66.392 169.02 66.136C169.468 65.88 169.983 65.752 170.564 65.752C171.028 65.752 171.45 65.8427 171.828 66.024C172.207 66.2 172.53 66.464 172.796 66.816C173.063 67.1627 173.268 67.5947 173.412 68.112C173.556 68.6293 173.628 69.224 173.628 69.896C173.628 70.4933 173.548 71.0507 173.388 71.568C173.228 72.08 172.999 72.5253 172.7 72.904C172.402 73.2773 172.034 73.5733 171.596 73.792C171.164 74.0053 170.676 74.112 170.132 74.112C169.631 74.112 169.202 74.0293 168.844 73.864C168.492 73.6987 168.18 73.464 167.908 73.16V76.744H166.484ZM170.092 66.904C169.628 66.904 169.22 67.0107 168.868 67.224C168.522 67.4373 168.202 67.7387 167.908 68.128V72.048C168.17 72.4 168.455 72.648 168.764 72.792C169.079 72.936 169.428 73.008 169.812 73.008C170.564 73.008 171.143 72.7387 171.548 72.2C171.954 71.6613 172.156 70.8933 172.156 69.896C172.156 69.368 172.108 68.9147 172.012 68.536C171.922 68.1573 171.788 67.848 171.612 67.608C171.436 67.3627 171.22 67.184 170.964 67.072C170.708 66.96 170.418 66.904 170.092 66.904ZM181.584 74H180.952C180.814 74 180.702 73.9787 180.616 73.936C180.531 73.8933 180.475 73.8027 180.448 73.664L180.288 72.912C180.075 73.104 179.867 73.2773 179.664 73.432C179.462 73.5813 179.248 73.7093 179.024 73.816C178.8 73.9173 178.56 73.9947 178.304 74.048C178.054 74.1013 177.774 74.128 177.464 74.128C177.15 74.128 176.854 74.0853 176.576 74C176.304 73.9093 176.067 73.776 175.864 73.6C175.662 73.424 175.499 73.2027 175.376 72.936C175.259 72.664 175.2 72.344 175.2 71.976C175.2 71.656 175.288 71.3493 175.464 71.056C175.64 70.7573 175.923 70.4933 176.312 70.264C176.707 70.0347 177.222 69.848 177.856 69.704C178.491 69.5547 179.267 69.4693 180.184 69.448V68.816C180.184 68.1867 180.048 67.712 179.776 67.392C179.51 67.0667 179.112 66.904 178.584 66.904C178.238 66.904 177.944 66.9493 177.704 67.04C177.47 67.1253 177.264 67.224 177.088 67.336C176.918 67.4427 176.768 67.5413 176.64 67.632C176.518 67.7173 176.395 67.76 176.272 67.76C176.176 67.76 176.091 67.736 176.016 67.688C175.947 67.6347 175.891 67.5707 175.848 67.496L175.592 67.04C176.04 66.608 176.523 66.2853 177.04 66.072C177.558 65.8587 178.131 65.752 178.76 65.752C179.214 65.752 179.616 65.8267 179.968 65.976C180.32 66.1253 180.616 66.3333 180.856 66.6C181.096 66.8667 181.278 67.1893 181.4 67.568C181.523 67.9467 181.584 68.3627 181.584 68.816V74ZM177.888 73.128C178.139 73.128 178.368 73.104 178.576 73.056C178.784 73.0027 178.979 72.9307 179.16 72.84C179.347 72.744 179.523 72.6293 179.688 72.496C179.859 72.3627 180.024 72.2107 180.184 72.04V70.352C179.528 70.3733 178.971 70.4267 178.512 70.512C178.054 70.592 177.68 70.6987 177.392 70.832C177.104 70.9653 176.894 71.1227 176.76 71.304C176.632 71.4853 176.568 71.688 176.568 71.912C176.568 72.1253 176.603 72.3093 176.672 72.464C176.742 72.6187 176.835 72.7467 176.952 72.848C177.07 72.944 177.208 73.016 177.368 73.064C177.528 73.1067 177.702 73.128 177.888 73.128ZM189.766 74C189.563 74 189.435 73.9013 189.382 73.704L189.254 72.72C188.907 73.1413 188.51 73.48 188.062 73.736C187.619 73.9867 187.11 74.112 186.534 74.112C186.07 74.112 185.648 74.024 185.27 73.848C184.891 73.6667 184.568 73.4027 184.302 73.056C184.035 72.7093 183.83 72.2773 183.686 71.76C183.542 71.2427 183.47 70.648 183.47 69.976C183.47 69.3787 183.55 68.824 183.71 68.312C183.87 67.7947 184.099 67.3467 184.398 66.968C184.702 66.5893 185.07 66.2933 185.502 66.08C185.934 65.8613 186.424 65.752 186.974 65.752C187.47 65.752 187.894 65.8373 188.246 66.008C188.598 66.1733 188.912 66.408 189.19 66.712V62.216H190.614V74H189.766ZM187.006 72.96C187.47 72.96 187.875 72.8533 188.222 72.64C188.574 72.4267 188.896 72.1253 189.19 71.736V67.816C188.928 67.464 188.64 67.2187 188.326 67.08C188.016 66.936 187.672 66.864 187.294 66.864C186.536 66.864 185.955 67.1333 185.55 67.672C185.144 68.2107 184.942 68.9787 184.942 69.976C184.942 70.504 184.987 70.9573 185.078 71.336C185.168 71.7093 185.302 72.0187 185.478 72.264C185.654 72.504 185.87 72.68 186.126 72.792C186.382 72.904 186.675 72.96 187.006 72.96ZM193.319 74V65.896H194.135C194.29 65.896 194.397 65.9253 194.455 65.984C194.514 66.0427 194.554 66.144 194.575 66.288L194.671 67.552C194.949 66.9867 195.29 66.5467 195.695 66.232C196.106 65.912 196.586 65.752 197.135 65.752C197.359 65.752 197.562 65.7787 197.743 65.832C197.925 65.88 198.093 65.9493 198.247 66.04L198.063 67.104C198.026 67.2373 197.943 67.304 197.815 67.304C197.741 67.304 197.626 67.28 197.471 67.232C197.317 67.1787 197.101 67.152 196.823 67.152C196.327 67.152 195.911 67.296 195.575 67.584C195.245 67.872 194.967 68.2907 194.743 68.84V74H193.319ZM201.676 65.896V74H200.252V65.896H201.676ZM201.996 63.352C201.996 63.4907 201.967 63.6213 201.908 63.744C201.855 63.8613 201.78 63.968 201.684 64.064C201.594 64.1547 201.487 64.2267 201.364 64.28C201.242 64.3333 201.111 64.36 200.972 64.36C200.834 64.36 200.703 64.3333 200.58 64.28C200.463 64.2267 200.356 64.1547 200.26 64.064C200.17 63.968 200.098 63.8613 200.044 63.744C199.991 63.6213 199.964 63.4907 199.964 63.352C199.964 63.2133 199.991 63.0827 200.044 62.96C200.098 62.832 200.17 62.7227 200.26 62.632C200.356 62.536 200.463 62.4613 200.58 62.408C200.703 62.3547 200.834 62.328 200.972 62.328C201.111 62.328 201.242 62.3547 201.364 62.408C201.487 62.4613 201.594 62.536 201.684 62.632C201.78 62.7227 201.855 62.832 201.908 62.96C201.967 63.0827 201.996 63.2133 201.996 63.352ZM204.506 74V65.896H205.354C205.557 65.896 205.685 65.9947 205.738 66.192L205.85 67.072C206.202 66.6827 206.594 66.368 207.026 66.128C207.463 65.888 207.967 65.768 208.538 65.768C208.981 65.768 209.37 65.8427 209.706 65.992C210.047 66.136 210.33 66.344 210.554 66.616C210.783 66.8827 210.957 67.2053 211.074 67.584C211.191 67.9627 211.25 68.3813 211.25 68.84V74H209.826V68.84C209.826 68.2267 209.685 67.752 209.402 67.416C209.125 67.0747 208.698 66.904 208.122 66.904C207.701 66.904 207.306 67.0053 206.938 67.208C206.575 67.4107 206.239 67.6853 205.93 68.032V74H204.506ZM213.717 74V62.216H215.141V66.984C215.487 66.616 215.871 66.3227 216.293 66.104C216.714 65.88 217.199 65.768 217.749 65.768C218.191 65.768 218.581 65.8427 218.917 65.992C219.258 66.136 219.541 66.344 219.765 66.616C219.994 66.8827 220.167 67.2053 220.285 67.584C220.402 67.9627 220.461 68.3813 220.461 68.84V74H219.037V68.84C219.037 68.2267 218.895 67.752 218.613 67.416C218.335 67.0747 217.909 66.904 217.333 66.904C216.911 66.904 216.517 67.0053 216.149 67.208C215.786 67.4107 215.45 67.6853 215.141 68.032V74H213.717ZM228.879 74H228.247C228.109 74 227.997 73.9787 227.911 73.936C227.826 73.8933 227.77 73.8027 227.743 73.664L227.583 72.912C227.37 73.104 227.162 73.2773 226.959 73.432C226.757 73.5813 226.543 73.7093 226.319 73.816C226.095 73.9173 225.855 73.9947 225.599 74.048C225.349 74.1013 225.069 74.128 224.759 74.128C224.445 74.128 224.149 74.0853 223.871 74C223.599 73.9093 223.362 73.776 223.159 73.6C222.957 73.424 222.794 73.2027 222.671 72.936C222.554 72.664 222.495 72.344 222.495 71.976C222.495 71.656 222.583 71.3493 222.759 71.056C222.935 70.7573 223.218 70.4933 223.607 70.264C224.002 70.0347 224.517 69.848 225.151 69.704C225.786 69.5547 226.562 69.4693 227.479 69.448V68.816C227.479 68.1867 227.343 67.712 227.071 67.392C226.805 67.0667 226.407 66.904 225.879 66.904C225.533 66.904 225.239 66.9493 224.999 67.04C224.765 67.1253 224.559 67.224 224.383 67.336C224.213 67.4427 224.063 67.5413 223.935 67.632C223.813 67.7173 223.69 67.76 223.567 67.76C223.471 67.76 223.386 67.736 223.311 67.688C223.242 67.6347 223.186 67.5707 223.143 67.496L222.887 67.04C223.335 66.608 223.818 66.2853 224.335 66.072C224.853 65.8587 225.426 65.752 226.055 65.752C226.509 65.752 226.911 65.8267 227.263 65.976C227.615 66.1253 227.911 66.3333 228.151 66.6C228.391 66.8667 228.573 67.1893 228.695 67.568C228.818 67.9467 228.879 68.3627 228.879 68.816V74ZM225.183 73.128C225.434 73.128 225.663 73.104 225.871 73.056C226.079 73.0027 226.274 72.9307 226.455 72.84C226.642 72.744 226.818 72.6293 226.983 72.496C227.154 72.3627 227.319 72.2107 227.479 72.04V70.352C226.823 70.3733 226.266 70.4267 225.807 70.512C225.349 70.592 224.975 70.6987 224.687 70.832C224.399 70.9653 224.189 71.1227 224.055 71.304C223.927 71.4853 223.863 71.688 223.863 71.912C223.863 72.1253 223.898 72.3093 223.967 72.464C224.037 72.6187 224.13 72.7467 224.247 72.848C224.365 72.944 224.503 73.016 224.663 73.064C224.823 73.1067 224.997 73.128 225.183 73.128ZM237.061 74C236.858 74 236.73 73.9013 236.677 73.704L236.549 72.72C236.202 73.1413 235.805 73.48 235.357 73.736C234.914 73.9867 234.405 74.112 233.829 74.112C233.365 74.112 232.943 74.024 232.565 73.848C232.186 73.6667 231.863 73.4027 231.597 73.056C231.33 72.7093 231.125 72.2773 230.981 71.76C230.837 71.2427 230.765 70.648 230.765 69.976C230.765 69.3787 230.845 68.824 231.005 68.312C231.165 67.7947 231.394 67.3467 231.693 66.968C231.997 66.5893 232.365 66.2933 232.797 66.08C233.229 65.8613 233.719 65.752 234.269 65.752C234.765 65.752 235.189 65.8373 235.541 66.008C235.893 66.1733 236.207 66.408 236.485 66.712V62.216H237.909V74H237.061ZM234.301 72.96C234.765 72.96 235.17 72.8533 235.517 72.64C235.869 72.4267 236.191 72.1253 236.485 71.736V67.816C236.223 67.464 235.935 67.2187 235.621 67.08C235.311 66.936 234.967 66.864 234.589 66.864C233.831 66.864 233.25 67.1333 232.845 67.672C232.439 68.2107 232.237 68.9787 232.237 69.976C232.237 70.504 232.282 70.9573 232.373 71.336C232.463 71.7093 232.597 72.0187 232.773 72.264C232.949 72.504 233.165 72.68 233.421 72.792C233.677 72.904 233.97 72.96 234.301 72.96ZM246.566 74H245.934C245.796 74 245.684 73.9787 245.598 73.936C245.513 73.8933 245.457 73.8027 245.43 73.664L245.27 72.912C245.057 73.104 244.849 73.2773 244.646 73.432C244.444 73.5813 244.23 73.7093 244.006 73.816C243.782 73.9173 243.542 73.9947 243.286 74.048C243.036 74.1013 242.756 74.128 242.446 74.128C242.132 74.128 241.836 74.0853 241.558 74C241.286 73.9093 241.049 73.776 240.846 73.6C240.644 73.424 240.481 73.2027 240.358 72.936C240.241 72.664 240.182 72.344 240.182 71.976C240.182 71.656 240.27 71.3493 240.446 71.056C240.622 70.7573 240.905 70.4933 241.294 70.264C241.689 70.0347 242.204 69.848 242.838 69.704C243.473 69.5547 244.249 69.4693 245.166 69.448V68.816C245.166 68.1867 245.03 67.712 244.758 67.392C244.492 67.0667 244.094 66.904 243.566 66.904C243.22 66.904 242.926 66.9493 242.686 67.04C242.452 67.1253 242.246 67.224 242.07 67.336C241.9 67.4427 241.75 67.5413 241.622 67.632C241.5 67.7173 241.377 67.76 241.254 67.76C241.158 67.76 241.073 67.736 240.998 67.688C240.929 67.6347 240.873 67.5707 240.83 67.496L240.574 67.04C241.022 66.608 241.505 66.2853 242.022 66.072C242.54 65.8587 243.113 65.752 243.742 65.752C244.196 65.752 244.598 65.8267 244.95 65.976C245.302 66.1253 245.598 66.3333 245.838 66.6C246.078 66.8667 246.26 67.1893 246.382 67.568C246.505 67.9467 246.566 68.3627 246.566 68.816V74ZM242.87 73.128C243.121 73.128 243.35 73.104 243.558 73.056C243.766 73.0027 243.961 72.9307 244.142 72.84C244.329 72.744 244.505 72.6293 244.67 72.496C244.841 72.3627 245.006 72.2107 245.166 72.04V70.352C244.51 70.3733 243.953 70.4267 243.494 70.512C243.036 70.592 242.662 70.6987 242.374 70.832C242.086 70.9653 241.876 71.1227 241.742 71.304C241.614 71.4853 241.55 71.688 241.55 71.912C241.55 72.1253 241.585 72.3093 241.654 72.464C241.724 72.6187 241.817 72.7467 241.934 72.848C242.052 72.944 242.19 73.016 242.35 73.064C242.51 73.1067 242.684 73.128 242.87 73.128ZM253.684 67.232C253.62 67.3493 253.521 67.408 253.388 67.408C253.308 67.408 253.217 67.3787 253.116 67.32C253.014 67.2613 252.889 67.1973 252.74 67.128C252.596 67.0533 252.422 66.9867 252.22 66.928C252.017 66.864 251.777 66.832 251.5 66.832C251.26 66.832 251.044 66.864 250.852 66.928C250.66 66.9867 250.494 67.0693 250.356 67.176C250.222 67.2827 250.118 67.408 250.044 67.552C249.974 67.6907 249.94 67.8427 249.94 68.008C249.94 68.216 249.998 68.3893 250.116 68.528C250.238 68.6667 250.398 68.7867 250.596 68.888C250.793 68.9893 251.017 69.08 251.268 69.16C251.518 69.2347 251.774 69.3173 252.036 69.408C252.302 69.4933 252.561 69.5893 252.812 69.696C253.062 69.8027 253.286 69.936 253.484 70.096C253.681 70.256 253.838 70.4533 253.956 70.688C254.078 70.9173 254.14 71.1947 254.14 71.52C254.14 71.8933 254.073 72.24 253.94 72.56C253.806 72.8747 253.609 73.1493 253.348 73.384C253.086 73.6133 252.766 73.7947 252.388 73.928C252.009 74.0613 251.572 74.128 251.076 74.128C250.51 74.128 249.998 74.0373 249.54 73.856C249.081 73.6693 248.692 73.432 248.372 73.144L248.708 72.6C248.75 72.5307 248.801 72.4773 248.86 72.44C248.918 72.4027 248.996 72.384 249.092 72.384C249.188 72.384 249.289 72.4213 249.396 72.496C249.502 72.5707 249.63 72.6533 249.78 72.744C249.934 72.8347 250.118 72.9173 250.332 72.992C250.55 73.0667 250.822 73.104 251.148 73.104C251.425 73.104 251.668 73.0693 251.876 73C252.084 72.9253 252.257 72.8267 252.396 72.704C252.534 72.5813 252.636 72.44 252.7 72.28C252.769 72.12 252.804 71.9493 252.804 71.768C252.804 71.544 252.742 71.36 252.62 71.216C252.502 71.0667 252.345 70.9413 252.148 70.84C251.95 70.7333 251.724 70.6427 251.468 70.568C251.217 70.488 250.958 70.4053 250.692 70.32C250.43 70.2347 250.172 70.1387 249.916 70.032C249.665 69.92 249.441 69.7813 249.244 69.616C249.046 69.4507 248.886 69.248 248.764 69.008C248.646 68.7627 248.588 68.4667 248.588 68.12C248.588 67.8107 248.652 67.5147 248.78 67.232C248.908 66.944 249.094 66.6933 249.34 66.48C249.585 66.2613 249.886 66.088 250.244 65.96C250.601 65.832 251.009 65.768 251.468 65.768C252.001 65.768 252.478 65.8533 252.9 66.024C253.326 66.1893 253.694 66.4187 254.004 66.712L253.684 67.232Z" fill="#FFE1CC"/>
<path d="M89.2 45.024H83.28V51.392H79.248V45.024H73.36V41.472H79.248V35.136H83.28V41.472H89.2V45.024ZM102.323 44.944V38.864C102.323 38.4907 102.333 38.0907 102.354 37.664C102.387 37.2267 102.429 36.7733 102.483 36.304L96.3225 44.944H102.323ZM109.042 44.944V47.728C109.042 47.9733 108.957 48.1867 108.787 48.368C108.627 48.5493 108.392 48.64 108.083 48.64H106.642V54H102.323V48.64H92.9465C92.6372 48.64 92.3545 48.544 92.0985 48.352C91.8532 48.16 91.6985 47.92 91.6345 47.632L91.1225 45.184L101.906 30.688H106.642V44.944H109.042ZM120.131 54V37.408H123.203C123.822 37.408 124.227 37.6853 124.419 38.24L124.691 39.136C124.969 38.848 125.257 38.5867 125.555 38.352C125.854 38.1067 126.174 37.8987 126.515 37.728C126.867 37.5467 127.241 37.408 127.635 37.312C128.041 37.2053 128.483 37.152 128.963 37.152C129.966 37.152 130.793 37.4133 131.443 37.936C132.105 38.448 132.606 39.136 132.947 40C133.225 39.488 133.561 39.0507 133.955 38.688C134.361 38.3253 134.793 38.032 135.251 37.808C135.721 37.584 136.211 37.4187 136.723 37.312C137.246 37.2053 137.763 37.152 138.275 37.152C139.225 37.152 140.067 37.296 140.803 37.584C141.539 37.8613 142.153 38.272 142.643 38.816C143.145 39.3493 143.523 40.0107 143.779 40.8C144.035 41.5787 144.163 42.464 144.163 43.456V54H139.203V43.456C139.203 41.7387 138.467 40.88 136.995 40.88C136.323 40.88 135.763 41.104 135.315 41.552C134.878 41.9893 134.659 42.624 134.659 43.456V54H129.699V43.456C129.699 42.5067 129.513 41.84 129.139 41.456C128.766 41.072 128.217 40.88 127.491 40.88C127.043 40.88 126.617 40.9813 126.211 41.184C125.817 41.3867 125.443 41.6587 125.091 42V54H120.131ZM153.062 37.408V54H148.102V37.408H153.062ZM153.574 32.864C153.574 33.2587 153.494 33.632 153.334 33.984C153.174 34.3253 152.955 34.6293 152.678 34.896C152.401 35.152 152.075 35.36 151.702 35.52C151.339 35.6693 150.95 35.744 150.534 35.744C150.129 35.744 149.75 35.6693 149.398 35.52C149.046 35.36 148.731 35.152 148.454 34.896C148.187 34.6293 147.974 34.3253 147.814 33.984C147.665 33.632 147.59 33.2587 147.59 32.864C147.59 32.4587 147.665 32.08 147.814 31.728C147.974 31.376 148.187 31.0667 148.454 30.8C148.731 30.5333 149.046 30.3253 149.398 30.176C149.75 30.0267 150.129 29.952 150.534 29.952C150.95 29.952 151.339 30.0267 151.702 30.176C152.075 30.3253 152.401 30.5333 152.678 30.8C152.955 31.0667 153.174 31.376 153.334 31.728C153.494 32.08 153.574 32.4587 153.574 32.864ZM162.121 30.048V54H157.161V30.048H162.121ZM171.074 38.864C171.671 38.352 172.316 37.9413 173.01 37.632C173.714 37.312 174.551 37.152 175.522 37.152C176.428 37.152 177.228 37.312 177.922 37.632C178.626 37.9413 179.218 38.3787 179.698 38.944C180.178 39.4987 180.54 40.1653 180.786 40.944C181.031 41.712 181.154 42.5493 181.154 43.456V54H176.194V43.456C176.194 42.6453 176.007 42.016 175.634 41.568C175.26 41.1093 174.711 40.88 173.986 40.88C173.442 40.88 172.93 40.9973 172.45 41.232C171.98 41.456 171.522 41.7653 171.074 42.16V54H166.114V30.048H171.074V38.864ZM192.652 37.152C193.91 37.152 195.057 37.3493 196.092 37.744C197.126 38.1387 198.012 38.704 198.748 39.44C199.494 40.176 200.07 41.072 200.476 42.128C200.892 43.1733 201.1 44.352 201.1 45.664C201.1 46.9867 200.892 48.1813 200.476 49.248C200.07 50.304 199.494 51.2053 198.748 51.952C198.012 52.688 197.126 53.2587 196.092 53.664C195.057 54.0587 193.91 54.256 192.652 54.256C191.382 54.256 190.225 54.0587 189.18 53.664C188.145 53.2587 187.249 52.688 186.492 51.952C185.745 51.2053 185.164 50.304 184.748 49.248C184.342 48.1813 184.14 46.9867 184.14 45.664C184.14 44.352 184.342 43.1733 184.748 42.128C185.164 41.072 185.745 40.176 186.492 39.44C187.249 38.704 188.145 38.1387 189.18 37.744C190.225 37.3493 191.382 37.152 192.652 37.152ZM192.652 50.576C193.793 50.576 194.63 50.176 195.164 49.376C195.708 48.5653 195.98 47.3387 195.98 45.696C195.98 44.0533 195.708 42.832 195.164 42.032C194.63 41.232 193.793 40.832 192.652 40.832C191.478 40.832 190.62 41.232 190.076 42.032C189.532 42.832 189.26 44.0533 189.26 45.696C189.26 47.3387 189.532 48.5653 190.076 49.376C190.62 50.176 191.478 50.576 192.652 50.576ZM194.316 31.808C194.572 31.808 194.78 31.744 194.94 31.616C195.1 31.4773 195.18 31.1893 195.18 30.752H198.188C198.188 31.424 198.092 32.032 197.9 32.576C197.718 33.1093 197.462 33.568 197.132 33.952C196.801 34.3253 196.412 34.6133 195.964 34.816C195.516 35.0187 195.03 35.12 194.508 35.12C194.113 35.12 193.745 35.0613 193.404 34.944C193.062 34.816 192.742 34.6773 192.444 34.528C192.156 34.3787 191.889 34.2453 191.644 34.128C191.409 34 191.201 33.936 191.02 33.936C190.764 33.936 190.561 34.0107 190.412 34.16C190.262 34.2987 190.188 34.5867 190.188 35.024H187.148C187.148 34.352 187.244 33.7493 187.436 33.216C187.628 32.672 187.889 32.208 188.22 31.824C188.55 31.44 188.94 31.1467 189.388 30.944C189.836 30.7307 190.316 30.624 190.828 30.624C191.222 30.624 191.59 30.688 191.932 30.816C192.284 30.9333 192.604 31.0667 192.892 31.216C193.18 31.3653 193.441 31.504 193.676 31.632C193.921 31.7493 194.134 31.808 194.316 31.808ZM214.557 43.712C214.557 43.3173 214.504 42.9333 214.397 42.56C214.301 42.1867 214.136 41.856 213.901 41.568C213.677 41.2693 213.379 41.0293 213.005 40.848C212.632 40.6667 212.179 40.576 211.645 40.576C210.707 40.576 209.971 40.848 209.437 41.392C208.904 41.9253 208.552 42.6987 208.381 43.712H214.557ZM208.317 46.592C208.477 47.9787 208.899 48.9867 209.581 49.616C210.264 50.2347 211.144 50.544 212.221 50.544C212.797 50.544 213.293 50.4747 213.709 50.336C214.125 50.1973 214.493 50.0427 214.813 49.872C215.144 49.7013 215.443 49.5467 215.709 49.408C215.987 49.2693 216.275 49.2 216.573 49.2C216.968 49.2 217.267 49.344 217.469 49.632L218.909 51.408C218.397 51.9947 217.843 52.4747 217.245 52.848C216.659 53.2107 216.051 53.4987 215.421 53.712C214.803 53.9147 214.179 54.0533 213.549 54.128C212.931 54.2133 212.339 54.256 211.773 54.256C210.611 54.256 209.517 54.0693 208.493 53.696C207.48 53.312 206.589 52.7467 205.821 52C205.064 51.2533 204.461 50.3253 204.013 49.216C203.576 48.1067 203.357 46.816 203.357 45.344C203.357 44.2347 203.544 43.184 203.917 42.192C204.301 41.2 204.845 40.3307 205.549 39.584C206.264 38.8373 207.123 38.2453 208.125 37.808C209.139 37.3707 210.28 37.152 211.549 37.152C212.648 37.152 213.651 37.3227 214.557 37.664C215.475 38.0053 216.259 38.5013 216.909 39.152C217.571 39.8027 218.083 40.6027 218.445 41.552C218.819 42.4907 219.005 43.5573 219.005 44.752C219.005 45.1253 218.989 45.4293 218.957 45.664C218.925 45.8987 218.867 46.0853 218.781 46.224C218.696 46.3627 218.579 46.4587 218.429 46.512C218.291 46.5653 218.109 46.592 217.885 46.592H208.317ZM232.671 41.04C232.543 41.2427 232.405 41.3867 232.255 41.472C232.117 41.5573 231.935 41.6 231.711 41.6C231.477 41.6 231.242 41.552 231.007 41.456C230.773 41.3493 230.517 41.2373 230.239 41.12C229.973 41.0027 229.669 40.896 229.327 40.8C228.986 40.6933 228.597 40.64 228.159 40.64C227.53 40.64 227.045 40.7627 226.703 41.008C226.373 41.2427 226.207 41.5733 226.207 42C226.207 42.3093 226.314 42.5653 226.527 42.768C226.751 42.9707 227.045 43.152 227.407 43.312C227.77 43.4613 228.181 43.6053 228.639 43.744C229.098 43.8827 229.567 44.0373 230.047 44.208C230.527 44.3787 230.997 44.5813 231.455 44.816C231.914 45.04 232.325 45.3227 232.687 45.664C233.05 45.9947 233.338 46.4 233.551 46.88C233.775 47.36 233.887 47.936 233.887 48.608C233.887 49.4293 233.738 50.1867 233.439 50.88C233.141 51.5733 232.693 52.1707 232.095 52.672C231.509 53.1733 230.778 53.5627 229.903 53.84C229.039 54.1173 228.042 54.256 226.911 54.256C226.346 54.256 225.781 54.2027 225.215 54.096C224.65 53.9893 224.101 53.8453 223.567 53.664C223.045 53.4827 222.559 53.2693 222.111 53.024C221.663 52.768 221.279 52.496 220.959 52.208L222.111 50.384C222.239 50.1707 222.399 50.0053 222.591 49.888C222.794 49.76 223.05 49.696 223.359 49.696C223.647 49.696 223.903 49.76 224.127 49.888C224.362 50.016 224.613 50.1547 224.879 50.304C225.146 50.4533 225.455 50.592 225.807 50.72C226.17 50.848 226.623 50.912 227.167 50.912C227.551 50.912 227.877 50.8747 228.143 50.8C228.41 50.7147 228.623 50.6027 228.783 50.464C228.943 50.3253 229.061 50.1707 229.135 50C229.21 49.8293 229.247 49.6533 229.247 49.472C229.247 49.1413 229.135 48.8693 228.911 48.656C228.687 48.4427 228.394 48.2613 228.031 48.112C227.669 47.952 227.253 47.808 226.783 47.68C226.325 47.5413 225.855 47.3867 225.375 47.216C224.895 47.0453 224.421 46.8427 223.951 46.608C223.493 46.3627 223.082 46.0587 222.719 45.696C222.357 45.3227 222.063 44.8693 221.839 44.336C221.615 43.8027 221.503 43.1573 221.503 42.4C221.503 41.696 221.637 41.0293 221.903 40.4C222.181 39.76 222.591 39.2 223.135 38.72C223.679 38.24 224.362 37.8613 225.183 37.584C226.005 37.296 226.965 37.152 228.063 37.152C228.661 37.152 229.237 37.2053 229.791 37.312C230.357 37.4187 230.885 37.568 231.375 37.76C231.866 37.952 232.314 38.1813 232.719 38.448C233.125 38.704 233.482 38.9867 233.791 39.296L232.671 41.04Z" fill="white"/>
<path d="M40.8787 50.5L42.2929 51.9142L45.1213 49.0858C45.5118 48.6953 46.145 48.6953 46.5355 49.0858C46.9261 49.4763 46.9261 50.1095 46.5355 50.5L43 54.0355C42.6095 54.4261 41.9763 54.4261 41.5858 54.0355L39.4645 51.9142C39.0739 51.5237 39.0739 50.8905 39.4645 50.5C39.855 50.1095 40.4882 50.1095 40.8787 50.5ZM33 52.5C30.2386 52.5 28 50.2614 28 47.5C28 44.7386 30.2386 42.5 33 42.5C35.7614 42.5 38 44.7386 38 47.5C38 50.2614 35.7614 52.5 33 52.5ZM33 50.5C34.6569 50.5 36 49.1569 36 47.5C36 45.8431 34.6569 44.5 33 44.5C31.3431 44.5 30 45.8431 30 47.5C30 49.1569 31.3431 50.5 33 50.5ZM25 59.5V57.5C25 55.2909 26.7909 53.5 29 53.5H37C39.2091 53.5 41 55.2909 41 57.5V59.5C41 60.6046 40.1046 61.5 39 61.5H27C25.8954 61.5 25 60.6046 25 59.5ZM27 59.5H39V57.5C39 56.3954 38.1046 55.5 37 55.5H29C27.8954 55.5 27 56.3954 27 57.5V59.5Z" fill="#994000"/>
</svg>
