<svg width="296" height="104" viewBox="0 0 296 104" fill="none" xmlns="http://www.w3.org/2000/svg">
<rect width="296" height="104" rx="4" fill="#FF6B00"/>
<path d="M78.872 64C78.6693 64 78.5413 63.9013 78.488 63.704L78.36 62.72C78.0133 63.1413 77.616 63.48 77.168 63.736C76.7253 63.9867 76.216 64.112 75.64 64.112C75.176 64.112 74.7547 64.024 74.376 63.848C73.9973 63.6667 73.6747 63.4027 73.408 63.056C73.1413 62.7093 72.936 62.2773 72.792 61.76C72.648 61.2427 72.576 60.648 72.576 59.976C72.576 59.3787 72.656 58.824 72.816 58.312C72.976 57.7947 73.2053 57.3467 73.504 56.968C73.808 56.5893 74.176 56.2933 74.608 56.08C75.04 55.8613 75.5307 55.752 76.08 55.752C76.576 55.752 77 55.8373 77.352 56.008C77.704 56.1733 78.0187 56.408 78.296 56.712V52.216H79.72V64H78.872ZM76.112 62.96C76.576 62.96 76.9813 62.8533 77.328 62.64C77.68 62.4267 78.0027 62.1253 78.296 61.736V57.816C78.0347 57.464 77.7467 57.2187 77.432 57.08C77.1227 56.936 76.7787 56.864 76.4 56.864C75.6427 56.864 75.0613 57.1333 74.656 57.672C74.2507 58.2107 74.048 58.9787 74.048 59.976C74.048 60.504 74.0933 60.9573 74.184 61.336C74.2747 61.7093 74.408 62.0187 74.584 62.264C74.76 62.504 74.976 62.68 75.232 62.792C75.488 62.904 75.7813 62.96 76.112 62.96ZM85.6335 55.768C86.1188 55.768 86.5668 55.8507 86.9775 56.016C87.3882 56.176 87.7428 56.4107 88.0415 56.72C88.3402 57.024 88.5722 57.4027 88.7375 57.856C88.9082 58.304 88.9935 58.816 88.9935 59.392C88.9935 59.616 88.9695 59.7653 88.9215 59.84C88.8735 59.9147 88.7828 59.952 88.6495 59.952H83.2575C83.2682 60.464 83.3375 60.9093 83.4655 61.288C83.5935 61.6667 83.7695 61.984 83.9935 62.24C84.2175 62.4907 84.4842 62.68 84.7935 62.808C85.1028 62.9307 85.4495 62.992 85.8335 62.992C86.1908 62.992 86.4975 62.952 86.7535 62.872C87.0148 62.7867 87.2388 62.696 87.4255 62.6C87.6122 62.504 87.7668 62.416 87.8895 62.336C88.0175 62.2507 88.1268 62.208 88.2175 62.208C88.3348 62.208 88.4255 62.2533 88.4895 62.344L88.8895 62.864C88.7135 63.0773 88.5028 63.264 88.2575 63.424C88.0122 63.5787 87.7482 63.7067 87.4655 63.808C87.1882 63.9093 86.9002 63.984 86.6015 64.032C86.3028 64.0853 86.0068 64.112 85.7135 64.112C85.1535 64.112 84.6362 64.0187 84.1615 63.832C83.6922 63.64 83.2842 63.3627 82.9375 63C82.5962 62.632 82.3295 62.1787 82.1375 61.64C81.9455 61.1013 81.8495 60.4827 81.8495 59.784C81.8495 59.2187 81.9348 58.6907 82.1055 58.2C82.2815 57.7093 82.5322 57.2853 82.8575 56.928C83.1828 56.5653 83.5802 56.2827 84.0495 56.08C84.5188 55.872 85.0468 55.768 85.6335 55.768ZM85.6655 56.816C84.9775 56.816 84.4362 57.016 84.0415 57.416C83.6468 57.8107 83.4015 58.36 83.3055 59.064H87.7135C87.7135 58.7333 87.6682 58.432 87.5775 58.16C87.4868 57.8827 87.3535 57.6453 87.1775 57.448C87.0015 57.2453 86.7855 57.0907 86.5295 56.984C86.2788 56.872 85.9908 56.816 85.6655 56.816ZM94.5499 66.744V55.896H95.3979C95.6005 55.896 95.7285 55.9947 95.7819 56.192L95.9019 57.152C96.2485 56.7307 96.6432 56.392 97.0859 56.136C97.5339 55.88 98.0485 55.752 98.6299 55.752C99.0939 55.752 99.5152 55.8427 99.8939 56.024C100.273 56.2 100.595 56.464 100.862 56.816C101.129 57.1627 101.334 57.5947 101.478 58.112C101.622 58.6293 101.694 59.224 101.694 59.896C101.694 60.4933 101.614 61.0507 101.454 61.568C101.294 62.08 101.065 62.5253 100.766 62.904C100.467 63.2773 100.099 63.5733 99.6619 63.792C99.2299 64.0053 98.7419 64.112 98.1979 64.112C97.6965 64.112 97.2672 64.0293 96.9099 63.864C96.5579 63.6987 96.2459 63.464 95.9739 63.16V66.744H94.5499ZM98.1579 56.904C97.6939 56.904 97.2859 57.0107 96.9339 57.224C96.5872 57.4373 96.2672 57.7387 95.9739 58.128V62.048C96.2352 62.4 96.5205 62.648 96.8299 62.792C97.1445 62.936 97.4939 63.008 97.8779 63.008C98.6299 63.008 99.2085 62.7387 99.6139 62.2C100.019 61.6613 100.222 60.8933 100.222 59.896C100.222 59.368 100.174 58.9147 100.078 58.536C99.9872 58.1573 99.8539 57.848 99.6779 57.608C99.5019 57.3627 99.2859 57.184 99.0299 57.072C98.7739 56.96 98.4832 56.904 98.1579 56.904ZM106.906 55.768C107.391 55.768 107.839 55.8507 108.25 56.016C108.661 56.176 109.015 56.4107 109.314 56.72C109.613 57.024 109.845 57.4027 110.01 57.856C110.181 58.304 110.266 58.816 110.266 59.392C110.266 59.616 110.242 59.7653 110.194 59.84C110.146 59.9147 110.055 59.952 109.922 59.952H104.53C104.541 60.464 104.61 60.9093 104.738 61.288C104.866 61.6667 105.042 61.984 105.266 62.24C105.49 62.4907 105.757 62.68 106.066 62.808C106.375 62.9307 106.722 62.992 107.106 62.992C107.463 62.992 107.77 62.952 108.026 62.872C108.287 62.7867 108.511 62.696 108.698 62.6C108.885 62.504 109.039 62.416 109.162 62.336C109.29 62.2507 109.399 62.208 109.49 62.208C109.607 62.208 109.698 62.2533 109.762 62.344L110.162 62.864C109.986 63.0773 109.775 63.264 109.53 63.424C109.285 63.5787 109.021 63.7067 108.738 63.808C108.461 63.9093 108.173 63.984 107.874 64.032C107.575 64.0853 107.279 64.112 106.986 64.112C106.426 64.112 105.909 64.0187 105.434 63.832C104.965 63.64 104.557 63.3627 104.21 63C103.869 62.632 103.602 62.1787 103.41 61.64C103.218 61.1013 103.122 60.4827 103.122 59.784C103.122 59.2187 103.207 58.6907 103.378 58.2C103.554 57.7093 103.805 57.2853 104.13 56.928C104.455 56.5653 104.853 56.2827 105.322 56.08C105.791 55.872 106.319 55.768 106.906 55.768ZM106.938 56.816C106.25 56.816 105.709 57.016 105.314 57.416C104.919 57.8107 104.674 58.36 104.578 59.064H108.986C108.986 58.7333 108.941 58.432 108.85 58.16C108.759 57.8827 108.626 57.6453 108.45 57.448C108.274 57.2453 108.058 57.0907 107.802 56.984C107.551 56.872 107.263 56.816 106.938 56.816ZM117.049 57.232C116.985 57.3493 116.886 57.408 116.753 57.408C116.673 57.408 116.582 57.3787 116.481 57.32C116.379 57.2613 116.254 57.1973 116.105 57.128C115.961 57.0533 115.787 56.9867 115.585 56.928C115.382 56.864 115.142 56.832 114.865 56.832C114.625 56.832 114.409 56.864 114.217 56.928C114.025 56.9867 113.859 57.0693 113.721 57.176C113.587 57.2827 113.483 57.408 113.409 57.552C113.339 57.6907 113.305 57.8427 113.305 58.008C113.305 58.216 113.363 58.3893 113.481 58.528C113.603 58.6667 113.763 58.7867 113.961 58.888C114.158 58.9893 114.382 59.08 114.633 59.16C114.883 59.2347 115.139 59.3173 115.401 59.408C115.667 59.4933 115.926 59.5893 116.177 59.696C116.427 59.8027 116.651 59.936 116.849 60.096C117.046 60.256 117.203 60.4533 117.321 60.688C117.443 60.9173 117.505 61.1947 117.505 61.52C117.505 61.8933 117.438 62.24 117.305 62.56C117.171 62.8747 116.974 63.1493 116.713 63.384C116.451 63.6133 116.131 63.7947 115.753 63.928C115.374 64.0613 114.937 64.128 114.441 64.128C113.875 64.128 113.363 64.0373 112.905 63.856C112.446 63.6693 112.057 63.432 111.737 63.144L112.073 62.6C112.115 62.5307 112.166 62.4773 112.225 62.44C112.283 62.4027 112.361 62.384 112.457 62.384C112.553 62.384 112.654 62.4213 112.761 62.496C112.867 62.5707 112.995 62.6533 113.145 62.744C113.299 62.8347 113.483 62.9173 113.697 62.992C113.915 63.0667 114.187 63.104 114.513 63.104C114.79 63.104 115.033 63.0693 115.241 63C115.449 62.9253 115.622 62.8267 115.761 62.704C115.899 62.5813 116.001 62.44 116.065 62.28C116.134 62.12 116.169 61.9493 116.169 61.768C116.169 61.544 116.107 61.36 115.985 61.216C115.867 61.0667 115.71 60.9413 115.513 60.84C115.315 60.7333 115.089 60.6427 114.833 60.568C114.582 60.488 114.323 60.4053 114.057 60.32C113.795 60.2347 113.537 60.1387 113.281 60.032C113.03 59.92 112.806 59.7813 112.609 59.616C112.411 59.4507 112.251 59.248 112.129 59.008C112.011 58.7627 111.953 58.4667 111.953 58.12C111.953 57.8107 112.017 57.5147 112.145 57.232C112.273 56.944 112.459 56.6933 112.705 56.48C112.95 56.2613 113.251 56.088 113.609 55.96C113.966 55.832 114.374 55.768 114.833 55.768C115.366 55.768 115.843 55.8533 116.265 56.024C116.691 56.1893 117.059 56.4187 117.369 56.712L117.049 57.232ZM124.306 57.232C124.242 57.3493 124.143 57.408 124.01 57.408C123.93 57.408 123.839 57.3787 123.738 57.32C123.637 57.2613 123.511 57.1973 123.362 57.128C123.218 57.0533 123.045 56.9867 122.842 56.928C122.639 56.864 122.399 56.832 122.122 56.832C121.882 56.832 121.666 56.864 121.474 56.928C121.282 56.9867 121.117 57.0693 120.978 57.176C120.845 57.2827 120.741 57.408 120.666 57.552C120.597 57.6907 120.562 57.8427 120.562 58.008C120.562 58.216 120.621 58.3893 120.738 58.528C120.861 58.6667 121.021 58.7867 121.218 58.888C121.415 58.9893 121.639 59.08 121.89 59.16C122.141 59.2347 122.397 59.3173 122.658 59.408C122.925 59.4933 123.183 59.5893 123.434 59.696C123.685 59.8027 123.909 59.936 124.106 60.096C124.303 60.256 124.461 60.4533 124.578 60.688C124.701 60.9173 124.762 61.1947 124.762 61.52C124.762 61.8933 124.695 62.24 124.562 62.56C124.429 62.8747 124.231 63.1493 123.97 63.384C123.709 63.6133 123.389 63.7947 123.01 63.928C122.631 64.0613 122.194 64.128 121.698 64.128C121.133 64.128 120.621 64.0373 120.162 63.856C119.703 63.6693 119.314 63.432 118.994 63.144L119.33 62.6C119.373 62.5307 119.423 62.4773 119.482 62.44C119.541 62.4027 119.618 62.384 119.714 62.384C119.81 62.384 119.911 62.4213 120.018 62.496C120.125 62.5707 120.253 62.6533 120.402 62.744C120.557 62.8347 120.741 62.9173 120.954 62.992C121.173 63.0667 121.445 63.104 121.77 63.104C122.047 63.104 122.29 63.0693 122.498 63C122.706 62.9253 122.879 62.8267 123.018 62.704C123.157 62.5813 123.258 62.44 123.322 62.28C123.391 62.12 123.426 61.9493 123.426 61.768C123.426 61.544 123.365 61.36 123.242 61.216C123.125 61.0667 122.967 60.9413 122.77 60.84C122.573 60.7333 122.346 60.6427 122.09 60.568C121.839 60.488 121.581 60.4053 121.314 60.32C121.053 60.2347 120.794 60.1387 120.538 60.032C120.287 59.92 120.063 59.7813 119.866 59.616C119.669 59.4507 119.509 59.248 119.386 59.008C119.269 58.7627 119.21 58.4667 119.21 58.12C119.21 57.8107 119.274 57.5147 119.402 57.232C119.53 56.944 119.717 56.6933 119.962 56.48C120.207 56.2613 120.509 56.088 120.866 55.96C121.223 55.832 121.631 55.768 122.09 55.768C122.623 55.768 123.101 55.8533 123.522 56.024C123.949 56.1893 124.317 56.4187 124.626 56.712L124.306 57.232ZM130.204 55.768C130.796 55.768 131.329 55.8667 131.804 56.064C132.284 56.2613 132.689 56.5413 133.02 56.904C133.356 57.2667 133.612 57.7067 133.788 58.224C133.969 58.736 134.06 59.3093 134.06 59.944C134.06 60.584 133.969 61.16 133.788 61.672C133.612 62.184 133.356 62.6213 133.02 62.984C132.689 63.3467 132.284 63.6267 131.804 63.824C131.329 64.016 130.796 64.112 130.204 64.112C129.612 64.112 129.076 64.016 128.596 63.824C128.121 63.6267 127.716 63.3467 127.38 62.984C127.044 62.6213 126.785 62.184 126.604 61.672C126.422 61.16 126.332 60.584 126.332 59.944C126.332 59.3093 126.422 58.736 126.604 58.224C126.785 57.7067 127.044 57.2667 127.38 56.904C127.716 56.5413 128.121 56.2613 128.596 56.064C129.076 55.8667 129.612 55.768 130.204 55.768ZM130.204 63C131.004 63 131.601 62.7333 131.996 62.2C132.39 61.6613 132.588 60.912 132.588 59.952C132.588 58.9867 132.39 58.2347 131.996 57.696C131.601 57.1573 131.004 56.888 130.204 56.888C129.798 56.888 129.446 56.9573 129.148 57.096C128.849 57.2347 128.598 57.4347 128.396 57.696C128.198 57.9573 128.049 58.28 127.948 58.664C127.852 59.0427 127.804 59.472 127.804 59.952C127.804 60.432 127.852 60.8613 127.948 61.24C128.049 61.6187 128.198 61.9387 128.396 62.2C128.598 62.456 128.849 62.6533 129.148 62.792C129.446 62.9307 129.798 63 130.204 63ZM142.086 64H141.454C141.316 64 141.204 63.9787 141.118 63.936C141.033 63.8933 140.977 63.8027 140.95 63.664L140.79 62.912C140.577 63.104 140.369 63.2773 140.166 63.432C139.964 63.5813 139.75 63.7093 139.526 63.816C139.302 63.9173 139.062 63.9947 138.806 64.048C138.556 64.1013 138.276 64.128 137.966 64.128C137.652 64.128 137.356 64.0853 137.078 64C136.806 63.9093 136.569 63.776 136.366 63.6C136.164 63.424 136.001 63.2027 135.878 62.936C135.761 62.664 135.702 62.344 135.702 61.976C135.702 61.656 135.79 61.3493 135.966 61.056C136.142 60.7573 136.425 60.4933 136.814 60.264C137.209 60.0347 137.724 59.848 138.358 59.704C138.993 59.5547 139.769 59.4693 140.686 59.448V58.816C140.686 58.1867 140.55 57.712 140.278 57.392C140.012 57.0667 139.614 56.904 139.086 56.904C138.74 56.904 138.446 56.9493 138.206 57.04C137.972 57.1253 137.766 57.224 137.59 57.336C137.42 57.4427 137.27 57.5413 137.142 57.632C137.02 57.7173 136.897 57.76 136.774 57.76C136.678 57.76 136.593 57.736 136.518 57.688C136.449 57.6347 136.393 57.5707 136.35 57.496L136.094 57.04C136.542 56.608 137.025 56.2853 137.542 56.072C138.06 55.8587 138.633 55.752 139.262 55.752C139.716 55.752 140.118 55.8267 140.47 55.976C140.822 56.1253 141.118 56.3333 141.358 56.6C141.598 56.8667 141.78 57.1893 141.902 57.568C142.025 57.9467 142.086 58.3627 142.086 58.816V64ZM138.39 63.128C138.641 63.128 138.87 63.104 139.078 63.056C139.286 63.0027 139.481 62.9307 139.662 62.84C139.849 62.744 140.025 62.6293 140.19 62.496C140.361 62.3627 140.526 62.2107 140.686 62.04V60.352C140.03 60.3733 139.473 60.4267 139.014 60.512C138.556 60.592 138.182 60.6987 137.894 60.832C137.606 60.9653 137.396 61.1227 137.262 61.304C137.134 61.4853 137.07 61.688 137.07 61.912C137.07 62.1253 137.105 62.3093 137.174 62.464C137.244 62.6187 137.337 62.7467 137.454 62.848C137.572 62.944 137.71 63.016 137.87 63.064C138.03 63.1067 138.204 63.128 138.39 63.128ZM149.204 57.232C149.14 57.3493 149.041 57.408 148.908 57.408C148.828 57.408 148.737 57.3787 148.636 57.32C148.534 57.2613 148.409 57.1973 148.26 57.128C148.116 57.0533 147.942 56.9867 147.74 56.928C147.537 56.864 147.297 56.832 147.02 56.832C146.78 56.832 146.564 56.864 146.372 56.928C146.18 56.9867 146.014 57.0693 145.876 57.176C145.742 57.2827 145.638 57.408 145.564 57.552C145.494 57.6907 145.46 57.8427 145.46 58.008C145.46 58.216 145.518 58.3893 145.636 58.528C145.758 58.6667 145.918 58.7867 146.116 58.888C146.313 58.9893 146.537 59.08 146.788 59.16C147.038 59.2347 147.294 59.3173 147.556 59.408C147.822 59.4933 148.081 59.5893 148.332 59.696C148.582 59.8027 148.806 59.936 149.004 60.096C149.201 60.256 149.358 60.4533 149.476 60.688C149.598 60.9173 149.66 61.1947 149.66 61.52C149.66 61.8933 149.593 62.24 149.46 62.56C149.326 62.8747 149.129 63.1493 148.868 63.384C148.606 63.6133 148.286 63.7947 147.908 63.928C147.529 64.0613 147.092 64.128 146.596 64.128C146.03 64.128 145.518 64.0373 145.06 63.856C144.601 63.6693 144.212 63.432 143.892 63.144L144.228 62.6C144.27 62.5307 144.321 62.4773 144.38 62.44C144.438 62.4027 144.516 62.384 144.612 62.384C144.708 62.384 144.809 62.4213 144.916 62.496C145.022 62.5707 145.15 62.6533 145.3 62.744C145.454 62.8347 145.638 62.9173 145.852 62.992C146.07 63.0667 146.342 63.104 146.668 63.104C146.945 63.104 147.188 63.0693 147.396 63C147.604 62.9253 147.777 62.8267 147.916 62.704C148.054 62.5813 148.156 62.44 148.22 62.28C148.289 62.12 148.324 61.9493 148.324 61.768C148.324 61.544 148.262 61.36 148.14 61.216C148.022 61.0667 147.865 60.9413 147.668 60.84C147.47 60.7333 147.244 60.6427 146.988 60.568C146.737 60.488 146.478 60.4053 146.212 60.32C145.95 60.2347 145.692 60.1387 145.436 60.032C145.185 59.92 144.961 59.7813 144.764 59.616C144.566 59.4507 144.406 59.248 144.284 59.008C144.166 58.7627 144.108 58.4667 144.108 58.12C144.108 57.8107 144.172 57.5147 144.3 57.232C144.428 56.944 144.614 56.6933 144.86 56.48C145.105 56.2613 145.406 56.088 145.764 55.96C146.121 55.832 146.529 55.768 146.988 55.768C147.521 55.768 147.998 55.8533 148.42 56.024C148.846 56.1893 149.214 56.4187 149.524 56.712L149.204 57.232ZM157.691 64.128C157.051 64.128 156.558 63.9493 156.211 63.592C155.87 63.2347 155.699 62.72 155.699 62.048V57.088H154.723C154.638 57.088 154.566 57.064 154.507 57.016C154.448 56.9627 154.419 56.8827 154.419 56.776V56.208L155.747 56.04L156.075 53.536C156.086 53.456 156.12 53.392 156.179 53.344C156.238 53.2907 156.312 53.264 156.403 53.264H157.123V56.056H159.443V57.088H157.123V61.952C157.123 62.2933 157.206 62.5467 157.371 62.712C157.536 62.8773 157.75 62.96 158.011 62.96C158.16 62.96 158.288 62.9413 158.395 62.904C158.507 62.8613 158.603 62.816 158.683 62.768C158.763 62.72 158.83 62.6773 158.883 62.64C158.942 62.5973 158.992 62.576 159.035 62.576C159.11 62.576 159.176 62.6213 159.235 62.712L159.651 63.392C159.406 63.6213 159.11 63.8027 158.763 63.936C158.416 64.064 158.059 64.128 157.691 64.128ZM163.108 55.896V64H161.684V55.896H163.108ZM163.428 53.352C163.428 53.4907 163.398 53.6213 163.34 53.744C163.286 53.8613 163.212 53.968 163.116 54.064C163.025 54.1547 162.918 54.2267 162.796 54.28C162.673 54.3333 162.542 54.36 162.404 54.36C162.265 54.36 162.134 54.3333 162.012 54.28C161.894 54.2267 161.788 54.1547 161.692 54.064C161.601 53.968 161.529 53.8613 161.476 53.744C161.422 53.6213 161.396 53.4907 161.396 53.352C161.396 53.2133 161.422 53.0827 161.476 52.96C161.529 52.832 161.601 52.7227 161.692 52.632C161.788 52.536 161.894 52.4613 162.012 52.408C162.134 52.3547 162.265 52.328 162.404 52.328C162.542 52.328 162.673 52.3547 162.796 52.408C162.918 52.4613 163.025 52.536 163.116 52.632C163.212 52.7227 163.286 52.832 163.34 52.96C163.398 53.0827 163.428 53.2133 163.428 53.352ZM164.913 55.896H166.081C166.193 55.896 166.287 55.9253 166.361 55.984C166.436 56.0427 166.489 56.112 166.521 56.192L168.577 61.408C168.652 61.6 168.711 61.792 168.753 61.984C168.796 62.176 168.836 62.3653 168.873 62.552C168.916 62.3653 168.961 62.176 169.009 61.984C169.057 61.792 169.119 61.6 169.193 61.408L171.273 56.192C171.305 56.1067 171.356 56.0373 171.425 55.984C171.5 55.9253 171.591 55.896 171.697 55.896H172.809L169.505 64H168.217L164.913 55.896ZM177.45 55.768C177.935 55.768 178.383 55.8507 178.794 56.016C179.204 56.176 179.559 56.4107 179.858 56.72C180.156 57.024 180.388 57.4027 180.554 57.856C180.724 58.304 180.81 58.816 180.81 59.392C180.81 59.616 180.786 59.7653 180.738 59.84C180.69 59.9147 180.599 59.952 180.466 59.952H175.074C175.084 60.464 175.154 60.9093 175.282 61.288C175.41 61.6667 175.586 61.984 175.81 62.24C176.034 62.4907 176.3 62.68 176.61 62.808C176.919 62.9307 177.266 62.992 177.65 62.992C178.007 62.992 178.314 62.952 178.57 62.872C178.831 62.7867 179.055 62.696 179.242 62.6C179.428 62.504 179.583 62.416 179.706 62.336C179.834 62.2507 179.943 62.208 180.034 62.208C180.151 62.208 180.242 62.2533 180.306 62.344L180.706 62.864C180.53 63.0773 180.319 63.264 180.074 63.424C179.828 63.5787 179.564 63.7067 179.282 63.808C179.004 63.9093 178.716 63.984 178.418 64.032C178.119 64.0853 177.823 64.112 177.53 64.112C176.97 64.112 176.452 64.0187 175.978 63.832C175.508 63.64 175.1 63.3627 174.754 63C174.412 62.632 174.146 62.1787 173.954 61.64C173.762 61.1013 173.666 60.4827 173.666 59.784C173.666 59.2187 173.751 58.6907 173.922 58.2C174.098 57.7093 174.348 57.2853 174.674 56.928C174.999 56.5653 175.396 56.2827 175.866 56.08C176.335 55.872 176.863 55.768 177.45 55.768ZM177.482 56.816C176.794 56.816 176.252 57.016 175.858 57.416C175.463 57.8107 175.218 58.36 175.122 59.064H179.53C179.53 58.7333 179.484 58.432 179.394 58.16C179.303 57.8827 179.17 57.6453 178.994 57.448C178.818 57.2453 178.602 57.0907 178.346 56.984C178.095 56.872 177.807 56.816 177.482 56.816ZM182.952 64V55.896H183.768C183.923 55.896 184.03 55.9253 184.088 55.984C184.147 56.0427 184.187 56.144 184.208 56.288L184.304 57.552C184.582 56.9867 184.923 56.5467 185.328 56.232C185.739 55.912 186.219 55.752 186.768 55.752C186.992 55.752 187.195 55.7787 187.376 55.832C187.558 55.88 187.726 55.9493 187.88 56.04L187.696 57.104C187.659 57.2373 187.576 57.304 187.448 57.304C187.374 57.304 187.259 57.28 187.104 57.232C186.95 57.1787 186.734 57.152 186.456 57.152C185.96 57.152 185.544 57.296 185.208 57.584C184.878 57.872 184.6 58.2907 184.376 58.84V64H182.952ZM195.381 64H194.749C194.61 64 194.498 63.9787 194.413 63.936C194.327 63.8933 194.271 63.8027 194.245 63.664L194.085 62.912C193.871 63.104 193.663 63.2773 193.461 63.432C193.258 63.5813 193.045 63.7093 192.821 63.816C192.597 63.9173 192.357 63.9947 192.101 64.048C191.85 64.1013 191.57 64.128 191.261 64.128C190.946 64.128 190.65 64.0853 190.373 64C190.101 63.9093 189.863 63.776 189.661 63.6C189.458 63.424 189.295 63.2027 189.173 62.936C189.055 62.664 188.997 62.344 188.997 61.976C188.997 61.656 189.085 61.3493 189.261 61.056C189.437 60.7573 189.719 60.4933 190.109 60.264C190.503 60.0347 191.018 59.848 191.653 59.704C192.287 59.5547 193.063 59.4693 193.981 59.448V58.816C193.981 58.1867 193.845 57.712 193.573 57.392C193.306 57.0667 192.909 56.904 192.381 56.904C192.034 56.904 191.741 56.9493 191.501 57.04C191.266 57.1253 191.061 57.224 190.885 57.336C190.714 57.4427 190.565 57.5413 190.437 57.632C190.314 57.7173 190.191 57.76 190.069 57.76C189.973 57.76 189.887 57.736 189.813 57.688C189.743 57.6347 189.687 57.5707 189.645 57.496L189.389 57.04C189.837 56.608 190.319 56.2853 190.837 56.072C191.354 55.8587 191.927 55.752 192.557 55.752C193.01 55.752 193.413 55.8267 193.765 55.976C194.117 56.1253 194.413 56.3333 194.653 56.6C194.893 56.8667 195.074 57.1893 195.197 57.568C195.319 57.9467 195.381 58.3627 195.381 58.816V64ZM191.685 63.128C191.935 63.128 192.165 63.104 192.373 63.056C192.581 63.0027 192.775 62.9307 192.957 62.84C193.143 62.744 193.319 62.6293 193.485 62.496C193.655 62.3627 193.821 62.2107 193.981 62.04V60.352C193.325 60.3733 192.767 60.4267 192.309 60.512C191.85 60.592 191.477 60.6987 191.189 60.832C190.901 60.9653 190.69 61.1227 190.557 61.304C190.429 61.4853 190.365 61.688 190.365 61.912C190.365 62.1253 190.399 62.3093 190.469 62.464C190.538 62.6187 190.631 62.7467 190.749 62.848C190.866 62.944 191.005 63.016 191.165 63.064C191.325 63.1067 191.498 63.128 191.685 63.128ZM197.858 64V55.896H198.706C198.909 55.896 199.037 55.9947 199.09 56.192L199.194 57.024C199.493 56.656 199.826 56.3547 200.194 56.12C200.567 55.8853 200.999 55.768 201.49 55.768C202.039 55.768 202.482 55.92 202.818 56.224C203.159 56.528 203.405 56.9387 203.554 57.456C203.666 57.1627 203.813 56.9093 203.994 56.696C204.181 56.4827 204.389 56.3067 204.618 56.168C204.847 56.0293 205.09 55.928 205.346 55.864C205.607 55.8 205.871 55.768 206.138 55.768C206.565 55.768 206.943 55.8373 207.274 55.976C207.61 56.1093 207.893 56.3067 208.122 56.568C208.357 56.8293 208.535 57.152 208.658 57.536C208.781 57.9147 208.842 58.3493 208.842 58.84V64H207.418V58.84C207.418 58.2053 207.279 57.7253 207.002 57.4C206.725 57.0693 206.322 56.904 205.794 56.904C205.559 56.904 205.335 56.9467 205.122 57.032C204.914 57.112 204.73 57.232 204.57 57.392C204.41 57.552 204.282 57.7547 204.186 58C204.095 58.24 204.05 58.52 204.05 58.84V64H202.626V58.84C202.626 58.1893 202.495 57.704 202.234 57.384C201.973 57.064 201.591 56.904 201.09 56.904C200.738 56.904 200.41 57 200.106 57.192C199.807 57.3787 199.533 57.6347 199.282 57.96V64H197.858ZM220.684 64H220.052C219.914 64 219.802 63.9787 219.716 63.936C219.631 63.8933 219.575 63.8027 219.548 63.664L219.388 62.912C219.175 63.104 218.967 63.2773 218.764 63.432C218.562 63.5813 218.348 63.7093 218.124 63.816C217.9 63.9173 217.66 63.9947 217.404 64.048C217.154 64.1013 216.874 64.128 216.564 64.128C216.25 64.128 215.954 64.0853 215.676 64C215.404 63.9093 215.167 63.776 214.964 63.6C214.762 63.424 214.599 63.2027 214.476 62.936C214.359 62.664 214.3 62.344 214.3 61.976C214.3 61.656 214.388 61.3493 214.564 61.056C214.74 60.7573 215.023 60.4933 215.412 60.264C215.807 60.0347 216.322 59.848 216.956 59.704C217.591 59.5547 218.367 59.4693 219.284 59.448V58.816C219.284 58.1867 219.148 57.712 218.876 57.392C218.61 57.0667 218.212 56.904 217.684 56.904C217.338 56.904 217.044 56.9493 216.804 57.04C216.57 57.1253 216.364 57.224 216.188 57.336C216.018 57.4427 215.868 57.5413 215.74 57.632C215.618 57.7173 215.495 57.76 215.372 57.76C215.276 57.76 215.191 57.736 215.116 57.688C215.047 57.6347 214.991 57.5707 214.948 57.496L214.692 57.04C215.14 56.608 215.623 56.2853 216.14 56.072C216.658 55.8587 217.231 55.752 217.86 55.752C218.314 55.752 218.716 55.8267 219.068 55.976C219.42 56.1253 219.716 56.3333 219.956 56.6C220.196 56.8667 220.378 57.1893 220.5 57.568C220.623 57.9467 220.684 58.3627 220.684 58.816V64ZM216.988 63.128C217.239 63.128 217.468 63.104 217.676 63.056C217.884 63.0027 218.079 62.9307 218.26 62.84C218.447 62.744 218.623 62.6293 218.788 62.496C218.959 62.3627 219.124 62.2107 219.284 62.04V60.352C218.628 60.3733 218.071 60.4267 217.612 60.512C217.154 60.592 216.78 60.6987 216.492 60.832C216.204 60.9653 215.994 61.1227 215.86 61.304C215.732 61.4853 215.668 61.688 215.668 61.912C215.668 62.1253 215.703 62.3093 215.772 62.464C215.842 62.6187 215.935 62.7467 216.052 62.848C216.17 62.944 216.308 63.016 216.468 63.064C216.628 63.1067 216.802 63.128 216.988 63.128ZM228.69 57.336C228.647 57.3947 228.604 57.44 228.562 57.472C228.519 57.504 228.458 57.52 228.378 57.52C228.298 57.52 228.21 57.488 228.114 57.424C228.023 57.3547 227.906 57.28 227.762 57.2C227.618 57.12 227.442 57.048 227.234 56.984C227.031 56.9147 226.78 56.88 226.482 56.88C226.087 56.88 225.738 56.952 225.434 57.096C225.13 57.2347 224.874 57.4373 224.666 57.704C224.463 57.9707 224.308 58.2933 224.202 58.672C224.1 59.0507 224.05 59.4747 224.05 59.944C224.05 60.4347 224.106 60.872 224.218 61.256C224.33 61.6347 224.487 61.9547 224.69 62.216C224.892 62.472 225.138 62.6693 225.426 62.808C225.719 62.9413 226.047 63.008 226.41 63.008C226.756 63.008 227.042 62.968 227.266 62.888C227.49 62.8027 227.676 62.7093 227.826 62.608C227.975 62.5067 228.098 62.416 228.194 62.336C228.29 62.2507 228.386 62.208 228.482 62.208C228.604 62.208 228.695 62.2533 228.754 62.344L229.154 62.864C228.802 63.296 228.362 63.6133 227.834 63.816C227.306 64.0133 226.748 64.112 226.162 64.112C225.655 64.112 225.183 64.0187 224.746 63.832C224.314 63.6453 223.938 63.376 223.618 63.024C223.298 62.6667 223.044 62.2293 222.858 61.712C222.676 61.1947 222.586 60.6053 222.586 59.944C222.586 59.3413 222.668 58.784 222.834 58.272C223.004 57.76 223.25 57.32 223.57 56.952C223.895 56.5787 224.295 56.288 224.77 56.08C225.244 55.872 225.788 55.768 226.402 55.768C226.967 55.768 227.468 55.8613 227.906 56.048C228.343 56.2293 228.73 56.488 229.066 56.824L228.69 57.336ZM234.159 55.768C234.644 55.768 235.092 55.8507 235.503 56.016C235.913 56.176 236.268 56.4107 236.567 56.72C236.865 57.024 237.097 57.4027 237.263 57.856C237.433 58.304 237.519 58.816 237.519 59.392C237.519 59.616 237.495 59.7653 237.447 59.84C237.399 59.9147 237.308 59.952 237.175 59.952H231.783C231.793 60.464 231.863 60.9093 231.991 61.288C232.119 61.6667 232.295 61.984 232.519 62.24C232.743 62.4907 233.009 62.68 233.319 62.808C233.628 62.9307 233.975 62.992 234.359 62.992C234.716 62.992 235.023 62.952 235.279 62.872C235.54 62.7867 235.764 62.696 235.951 62.6C236.137 62.504 236.292 62.416 236.415 62.336C236.543 62.2507 236.652 62.208 236.743 62.208C236.86 62.208 236.951 62.2533 237.015 62.344L237.415 62.864C237.239 63.0773 237.028 63.264 236.783 63.424C236.537 63.5787 236.273 63.7067 235.991 63.808C235.713 63.9093 235.425 63.984 235.127 64.032C234.828 64.0853 234.532 64.112 234.239 64.112C233.679 64.112 233.161 64.0187 232.687 63.832C232.217 63.64 231.809 63.3627 231.463 63C231.121 62.632 230.855 62.1787 230.663 61.64C230.471 61.1013 230.375 60.4827 230.375 59.784C230.375 59.2187 230.46 58.6907 230.631 58.2C230.807 57.7093 231.057 57.2853 231.383 56.928C231.708 56.5653 232.105 56.2827 232.575 56.08C233.044 55.872 233.572 55.768 234.159 55.768ZM234.191 56.816C233.503 56.816 232.961 57.016 232.567 57.416C232.172 57.8107 231.927 58.36 231.831 59.064H236.239C236.239 58.7333 236.193 58.432 236.103 58.16C236.012 57.8827 235.879 57.6453 235.703 57.448C235.527 57.2453 235.311 57.0907 235.055 56.984C234.804 56.872 234.516 56.816 234.191 56.816ZM244.301 57.232C244.237 57.3493 244.138 57.408 244.005 57.408C243.925 57.408 243.834 57.3787 243.733 57.32C243.632 57.2613 243.506 57.1973 243.357 57.128C243.213 57.0533 243.04 56.9867 242.837 56.928C242.634 56.864 242.394 56.832 242.117 56.832C241.877 56.832 241.661 56.864 241.469 56.928C241.277 56.9867 241.112 57.0693 240.973 57.176C240.84 57.2827 240.736 57.408 240.661 57.552C240.592 57.6907 240.557 57.8427 240.557 58.008C240.557 58.216 240.616 58.3893 240.733 58.528C240.856 58.6667 241.016 58.7867 241.213 58.888C241.41 58.9893 241.634 59.08 241.885 59.16C242.136 59.2347 242.392 59.3173 242.653 59.408C242.92 59.4933 243.178 59.5893 243.429 59.696C243.68 59.8027 243.904 59.936 244.101 60.096C244.298 60.256 244.456 60.4533 244.573 60.688C244.696 60.9173 244.757 61.1947 244.757 61.52C244.757 61.8933 244.69 62.24 244.557 62.56C244.424 62.8747 244.226 63.1493 243.965 63.384C243.704 63.6133 243.384 63.7947 243.005 63.928C242.626 64.0613 242.189 64.128 241.693 64.128C241.128 64.128 240.616 64.0373 240.157 63.856C239.698 63.6693 239.309 63.432 238.989 63.144L239.325 62.6C239.368 62.5307 239.418 62.4773 239.477 62.44C239.536 62.4027 239.613 62.384 239.709 62.384C239.805 62.384 239.906 62.4213 240.013 62.496C240.12 62.5707 240.248 62.6533 240.397 62.744C240.552 62.8347 240.736 62.9173 240.949 62.992C241.168 63.0667 241.44 63.104 241.765 63.104C242.042 63.104 242.285 63.0693 242.493 63C242.701 62.9253 242.874 62.8267 243.013 62.704C243.152 62.5813 243.253 62.44 243.317 62.28C243.386 62.12 243.421 61.9493 243.421 61.768C243.421 61.544 243.36 61.36 243.237 61.216C243.12 61.0667 242.962 60.9413 242.765 60.84C242.568 60.7333 242.341 60.6427 242.085 60.568C241.834 60.488 241.576 60.4053 241.309 60.32C241.048 60.2347 240.789 60.1387 240.533 60.032C240.282 59.92 240.058 59.7813 239.861 59.616C239.664 59.4507 239.504 59.248 239.381 59.008C239.264 58.7627 239.205 58.4667 239.205 58.12C239.205 57.8107 239.269 57.5147 239.397 57.232C239.525 56.944 239.712 56.6933 239.957 56.48C240.202 56.2613 240.504 56.088 240.861 55.96C241.218 55.832 241.626 55.768 242.085 55.768C242.618 55.768 243.096 55.8533 243.517 56.024C243.944 56.1893 244.312 56.4187 244.621 56.712L244.301 57.232ZM251.559 57.232C251.495 57.3493 251.396 57.408 251.263 57.408C251.183 57.408 251.092 57.3787 250.991 57.32C250.889 57.2613 250.764 57.1973 250.615 57.128C250.471 57.0533 250.297 56.9867 250.095 56.928C249.892 56.864 249.652 56.832 249.375 56.832C249.135 56.832 248.919 56.864 248.727 56.928C248.535 56.9867 248.369 57.0693 248.231 57.176C248.097 57.2827 247.993 57.408 247.919 57.552C247.849 57.6907 247.815 57.8427 247.815 58.008C247.815 58.216 247.873 58.3893 247.991 58.528C248.113 58.6667 248.273 58.7867 248.471 58.888C248.668 58.9893 248.892 59.08 249.143 59.16C249.393 59.2347 249.649 59.3173 249.911 59.408C250.177 59.4933 250.436 59.5893 250.687 59.696C250.937 59.8027 251.161 59.936 251.359 60.096C251.556 60.256 251.713 60.4533 251.831 60.688C251.953 60.9173 252.015 61.1947 252.015 61.52C252.015 61.8933 251.948 62.24 251.815 62.56C251.681 62.8747 251.484 63.1493 251.223 63.384C250.961 63.6133 250.641 63.7947 250.263 63.928C249.884 64.0613 249.447 64.128 248.951 64.128C248.385 64.128 247.873 64.0373 247.415 63.856C246.956 63.6693 246.567 63.432 246.247 63.144L246.583 62.6C246.625 62.5307 246.676 62.4773 246.735 62.44C246.793 62.4027 246.871 62.384 246.967 62.384C247.063 62.384 247.164 62.4213 247.271 62.496C247.377 62.5707 247.505 62.6533 247.655 62.744C247.809 62.8347 247.993 62.9173 248.207 62.992C248.425 63.0667 248.697 63.104 249.023 63.104C249.3 63.104 249.543 63.0693 249.751 63C249.959 62.9253 250.132 62.8267 250.271 62.704C250.409 62.5813 250.511 62.44 250.575 62.28C250.644 62.12 250.679 61.9493 250.679 61.768C250.679 61.544 250.617 61.36 250.495 61.216C250.377 61.0667 250.22 60.9413 250.023 60.84C249.825 60.7333 249.599 60.6427 249.343 60.568C249.092 60.488 248.833 60.4053 248.567 60.32C248.305 60.2347 248.047 60.1387 247.791 60.032C247.54 59.92 247.316 59.7813 247.119 59.616C246.921 59.4507 246.761 59.248 246.639 59.008C246.521 58.7627 246.463 58.4667 246.463 58.12C246.463 57.8107 246.527 57.5147 246.655 57.232C246.783 56.944 246.969 56.6933 247.215 56.48C247.46 56.2613 247.761 56.088 248.119 55.96C248.476 55.832 248.884 55.768 249.343 55.768C249.876 55.768 250.353 55.8533 250.775 56.024C251.201 56.1893 251.569 56.4187 251.879 56.712L251.559 57.232ZM257.456 55.768C258.048 55.768 258.581 55.8667 259.056 56.064C259.536 56.2613 259.941 56.5413 260.272 56.904C260.608 57.2667 260.864 57.7067 261.04 58.224C261.221 58.736 261.312 59.3093 261.312 59.944C261.312 60.584 261.221 61.16 261.04 61.672C260.864 62.184 260.608 62.6213 260.272 62.984C259.941 63.3467 259.536 63.6267 259.056 63.824C258.581 64.016 258.048 64.112 257.456 64.112C256.864 64.112 256.328 64.016 255.848 63.824C255.373 63.6267 254.968 63.3467 254.632 62.984C254.296 62.6213 254.037 62.184 253.856 61.672C253.675 61.16 253.584 60.584 253.584 59.944C253.584 59.3093 253.675 58.736 253.856 58.224C254.037 57.7067 254.296 57.2667 254.632 56.904C254.968 56.5413 255.373 56.2613 255.848 56.064C256.328 55.8667 256.864 55.768 257.456 55.768ZM257.456 63C258.256 63 258.853 62.7333 259.248 62.2C259.643 61.6613 259.84 60.912 259.84 59.952C259.84 58.9867 259.643 58.2347 259.248 57.696C258.853 57.1573 258.256 56.888 257.456 56.888C257.051 56.888 256.699 56.9573 256.4 57.096C256.101 57.2347 255.851 57.4347 255.648 57.696C255.451 57.9573 255.301 58.28 255.2 58.664C255.104 59.0427 255.056 59.472 255.056 59.952C255.056 60.432 255.104 60.8613 255.2 61.24C255.301 61.6187 255.451 61.9387 255.648 62.2C255.851 62.456 256.101 62.6533 256.4 62.792C256.699 62.9307 257.051 63 257.456 63ZM79.12 84H78.488C78.3493 84 78.2373 83.9787 78.152 83.936C78.0667 83.8933 78.0107 83.8027 77.984 83.664L77.824 82.912C77.6107 83.104 77.4027 83.2773 77.2 83.432C76.9973 83.5813 76.784 83.7093 76.56 83.816C76.336 83.9173 76.096 83.9947 75.84 84.048C75.5893 84.1013 75.3093 84.128 75 84.128C74.6853 84.128 74.3893 84.0853 74.112 84C73.84 83.9093 73.6027 83.776 73.4 83.6C73.1973 83.424 73.0347 83.2027 72.912 82.936C72.7947 82.664 72.736 82.344 72.736 81.976C72.736 81.656 72.824 81.3493 73 81.056C73.176 80.7573 73.4587 80.4933 73.848 80.264C74.2427 80.0347 74.7573 79.848 75.392 79.704C76.0267 79.5547 76.8027 79.4693 77.72 79.448V78.816C77.72 78.1867 77.584 77.712 77.312 77.392C77.0453 77.0667 76.648 76.904 76.12 76.904C75.7733 76.904 75.48 76.9493 75.24 77.04C75.0053 77.1253 74.8 77.224 74.624 77.336C74.4533 77.4427 74.304 77.5413 74.176 77.632C74.0533 77.7173 73.9307 77.76 73.808 77.76C73.712 77.76 73.6267 77.736 73.552 77.688C73.4827 77.6347 73.4267 77.5707 73.384 77.496L73.128 77.04C73.576 76.608 74.0587 76.2853 74.576 76.072C75.0933 75.8587 75.6667 75.752 76.296 75.752C76.7493 75.752 77.152 75.8267 77.504 75.976C77.856 76.1253 78.152 76.3333 78.392 76.6C78.632 76.8667 78.8133 77.1893 78.936 77.568C79.0587 77.9467 79.12 78.3627 79.12 78.816V84ZM75.424 83.128C75.6747 83.128 75.904 83.104 76.112 83.056C76.32 83.0027 76.5147 82.9307 76.696 82.84C76.8827 82.744 77.0587 82.6293 77.224 82.496C77.3947 82.3627 77.56 82.2107 77.72 82.04V80.352C77.064 80.3733 76.5067 80.4267 76.048 80.512C75.5893 80.592 75.216 80.6987 74.928 80.832C74.64 80.9653 74.4293 81.1227 74.296 81.304C74.168 81.4853 74.104 81.688 74.104 81.912C74.104 82.1253 74.1387 82.3093 74.208 82.464C74.2773 82.6187 74.3707 82.7467 74.488 82.848C74.6053 82.944 74.744 83.016 74.904 83.064C75.064 83.1067 75.2373 83.128 75.424 83.128ZM75.424 72.408C75.6 72.408 75.7307 72.4373 75.816 72.496C75.9013 72.5493 75.9813 72.6373 76.056 72.76L77.248 74.696H76.432C76.32 74.696 76.2293 74.68 76.16 74.648C76.0907 74.6107 76.0187 74.552 75.944 74.472L74.072 72.408H75.424ZM90.9631 84H90.3311C90.1925 84 90.0805 83.9787 89.9951 83.936C89.9098 83.8933 89.8538 83.8027 89.8271 83.664L89.6671 82.912C89.4538 83.104 89.2458 83.2773 89.0431 83.432C88.8405 83.5813 88.6271 83.7093 88.4031 83.816C88.1791 83.9173 87.9391 83.9947 87.6831 84.048C87.4325 84.1013 87.1525 84.128 86.8431 84.128C86.5285 84.128 86.2325 84.0853 85.9551 84C85.6831 83.9093 85.4458 83.776 85.2431 83.6C85.0405 83.424 84.8778 83.2027 84.7551 82.936C84.6378 82.664 84.5791 82.344 84.5791 81.976C84.5791 81.656 84.6671 81.3493 84.8431 81.056C85.0191 80.7573 85.3018 80.4933 85.6911 80.264C86.0858 80.0347 86.6005 79.848 87.2351 79.704C87.8698 79.5547 88.6458 79.4693 89.5631 79.448V78.816C89.5631 78.1867 89.4271 77.712 89.1551 77.392C88.8885 77.0667 88.4911 76.904 87.9631 76.904C87.6165 76.904 87.3231 76.9493 87.0831 77.04C86.8485 77.1253 86.6431 77.224 86.4671 77.336C86.2965 77.4427 86.1471 77.5413 86.0191 77.632C85.8965 77.7173 85.7738 77.76 85.6511 77.76C85.5551 77.76 85.4698 77.736 85.3951 77.688C85.3258 77.6347 85.2698 77.5707 85.2271 77.496L84.9711 77.04C85.4191 76.608 85.9018 76.2853 86.4191 76.072C86.9365 75.8587 87.5098 75.752 88.1391 75.752C88.5925 75.752 88.9951 75.8267 89.3471 75.976C89.6991 76.1253 89.9951 76.3333 90.2351 76.6C90.4751 76.8667 90.6565 77.1893 90.7791 77.568C90.9018 77.9467 90.9631 78.3627 90.9631 78.816V84ZM87.2671 83.128C87.5178 83.128 87.7471 83.104 87.9551 83.056C88.1631 83.0027 88.3578 82.9307 88.5391 82.84C88.7258 82.744 88.9018 82.6293 89.0671 82.496C89.2378 82.3627 89.4031 82.2107 89.5631 82.04V80.352C88.9071 80.3733 88.3498 80.4267 87.8911 80.512C87.4325 80.592 87.0591 80.6987 86.7711 80.832C86.4831 80.9653 86.2725 81.1227 86.1391 81.304C86.0111 81.4853 85.9471 81.688 85.9471 81.912C85.9471 82.1253 85.9818 82.3093 86.0511 82.464C86.1205 82.6187 86.2138 82.7467 86.3311 82.848C86.4485 82.944 86.5871 83.016 86.7471 83.064C86.9071 83.1067 87.0805 83.128 87.2671 83.128ZM90.3871 72.408L88.5231 74.472C88.4485 74.552 88.3738 74.6107 88.2991 74.648C88.2298 74.68 88.1391 74.696 88.0271 74.696H87.1791L88.3631 72.76C88.4378 72.6373 88.5178 72.5493 88.6031 72.496C88.6938 72.4373 88.8245 72.408 88.9951 72.408H90.3871ZM96.1685 75.76C96.5205 75.76 96.8485 75.8 97.1525 75.88C97.4618 75.9547 97.7418 76.0667 97.9925 76.216H100.192V76.744C100.192 76.92 100.08 77.032 99.8565 77.08L98.9365 77.208C99.1178 77.5547 99.2085 77.9413 99.2085 78.368C99.2085 78.7627 99.1312 79.1227 98.9765 79.448C98.8272 79.768 98.6165 80.0427 98.3445 80.272C98.0778 80.5013 97.7578 80.6773 97.3845 80.8C97.0165 80.9227 96.6112 80.984 96.1685 80.984C95.7898 80.984 95.4325 80.9387 95.0965 80.848C94.9258 80.9547 94.7952 81.0693 94.7045 81.192C94.6192 81.3147 94.5765 81.4347 94.5765 81.552C94.5765 81.744 94.6538 81.8907 94.8085 81.992C94.9632 82.088 95.1685 82.1573 95.4245 82.2C95.6805 82.2427 95.9712 82.2693 96.2965 82.28C96.6218 82.2907 96.9525 82.3093 97.2885 82.336C97.6298 82.3573 97.9632 82.3973 98.2885 82.456C98.6138 82.5147 98.9045 82.6107 99.1605 82.744C99.4165 82.8773 99.6218 83.0613 99.7765 83.296C99.9312 83.5307 100.008 83.8347 100.008 84.208C100.008 84.5547 99.9205 84.8907 99.7445 85.216C99.5738 85.5413 99.3258 85.8293 99.0005 86.08C98.6752 86.336 98.2778 86.5387 97.8085 86.688C97.3392 86.8427 96.8085 86.92 96.2165 86.92C95.6245 86.92 95.1045 86.8613 94.6565 86.744C94.2138 86.6267 93.8458 86.4693 93.5525 86.272C93.2592 86.0747 93.0378 85.8453 92.8885 85.584C92.7445 85.328 92.6725 85.0587 92.6725 84.776C92.6725 84.376 92.7978 84.0373 93.0485 83.76C93.3045 83.4773 93.6538 83.2533 94.0965 83.088C93.8672 82.9813 93.6832 82.84 93.5445 82.664C93.4112 82.4827 93.3445 82.2427 93.3445 81.944C93.3445 81.8267 93.3658 81.7067 93.4085 81.584C93.4512 81.456 93.5152 81.3307 93.6005 81.208C93.6912 81.0853 93.8005 80.968 93.9285 80.856C94.0565 80.744 94.2058 80.6453 94.3765 80.56C93.9765 80.336 93.6618 80.04 93.4325 79.672C93.2085 79.2987 93.0965 78.864 93.0965 78.368C93.0965 77.9733 93.1712 77.616 93.3205 77.296C93.4752 76.9707 93.6885 76.696 93.9605 76.472C94.2325 76.2427 94.5552 76.0667 94.9285 75.944C95.3072 75.8213 95.7205 75.76 96.1685 75.76ZM98.6965 84.44C98.6965 84.2373 98.6405 84.0747 98.5285 83.952C98.4165 83.8293 98.2645 83.736 98.0725 83.672C97.8805 83.6027 97.6592 83.552 97.4085 83.52C97.1578 83.488 96.8938 83.4667 96.6165 83.456C96.3392 83.44 96.0565 83.424 95.7685 83.408C95.4805 83.392 95.2058 83.3627 94.9445 83.32C94.6405 83.464 94.3925 83.64 94.2005 83.848C94.0138 84.056 93.9205 84.304 93.9205 84.592C93.9205 84.7733 93.9658 84.9413 94.0565 85.096C94.1525 85.256 94.2965 85.392 94.4885 85.504C94.6805 85.6213 94.9205 85.712 95.2085 85.776C95.5018 85.8453 95.8458 85.88 96.2405 85.88C96.6245 85.88 96.9685 85.8453 97.2725 85.776C97.5765 85.7067 97.8325 85.608 98.0405 85.48C98.2538 85.352 98.4165 85.2 98.5285 85.024C98.6405 84.848 98.6965 84.6533 98.6965 84.44ZM96.1685 80.04C96.4565 80.04 96.7098 80 96.9285 79.92C97.1525 79.84 97.3392 79.728 97.4885 79.584C97.6378 79.44 97.7498 79.2693 97.8245 79.072C97.8992 78.8693 97.9365 78.648 97.9365 78.408C97.9365 77.912 97.7845 77.5173 97.4805 77.224C97.1818 76.9307 96.7445 76.784 96.1685 76.784C95.5978 76.784 95.1605 76.9307 94.8565 77.224C94.5578 77.5173 94.4085 77.912 94.4085 78.408C94.4085 78.648 94.4458 78.8693 94.5205 79.072C94.6005 79.2693 94.7152 79.44 94.8645 79.584C95.0138 79.728 95.1978 79.84 95.4165 79.92C95.6352 80 95.8858 80.04 96.1685 80.04ZM103.164 75.896V81.064C103.164 81.6773 103.306 82.152 103.588 82.488C103.871 82.824 104.298 82.992 104.868 82.992C105.284 82.992 105.676 82.8933 106.044 82.696C106.412 82.4987 106.751 82.224 107.06 81.872V75.896H108.484V84H107.636C107.434 84 107.306 83.9013 107.252 83.704L107.14 82.832C106.788 83.2213 106.394 83.536 105.956 83.776C105.519 84.0107 105.018 84.128 104.452 84.128C104.01 84.128 103.618 84.056 103.276 83.912C102.94 83.7627 102.658 83.5547 102.428 83.288C102.199 83.0213 102.026 82.6987 101.908 82.32C101.796 81.9413 101.74 81.5227 101.74 81.064V75.896H103.164ZM117.095 84H116.463C116.324 84 116.212 83.9787 116.127 83.936C116.042 83.8933 115.986 83.8027 115.959 83.664L115.799 82.912C115.586 83.104 115.378 83.2773 115.175 83.432C114.972 83.5813 114.759 83.7093 114.535 83.816C114.311 83.9173 114.071 83.9947 113.815 84.048C113.564 84.1013 113.284 84.128 112.975 84.128C112.66 84.128 112.364 84.0853 112.087 84C111.815 83.9093 111.578 83.776 111.375 83.6C111.172 83.424 111.01 83.2027 110.887 82.936C110.77 82.664 110.711 82.344 110.711 81.976C110.711 81.656 110.799 81.3493 110.975 81.056C111.151 80.7573 111.434 80.4933 111.823 80.264C112.218 80.0347 112.732 79.848 113.367 79.704C114.002 79.5547 114.778 79.4693 115.695 79.448V78.816C115.695 78.1867 115.559 77.712 115.287 77.392C115.02 77.0667 114.623 76.904 114.095 76.904C113.748 76.904 113.455 76.9493 113.215 77.04C112.98 77.1253 112.775 77.224 112.599 77.336C112.428 77.4427 112.279 77.5413 112.151 77.632C112.028 77.7173 111.906 77.76 111.783 77.76C111.687 77.76 111.602 77.736 111.527 77.688C111.458 77.6347 111.402 77.5707 111.359 77.496L111.103 77.04C111.551 76.608 112.034 76.2853 112.551 76.072C113.068 75.8587 113.642 75.752 114.271 75.752C114.724 75.752 115.127 75.8267 115.479 75.976C115.831 76.1253 116.127 76.3333 116.367 76.6C116.607 76.8667 116.788 77.1893 116.911 77.568C117.034 77.9467 117.095 78.3627 117.095 78.816V84ZM113.399 83.128C113.65 83.128 113.879 83.104 114.087 83.056C114.295 83.0027 114.49 82.9307 114.671 82.84C114.858 82.744 115.034 82.6293 115.199 82.496C115.37 82.3627 115.535 82.2107 115.695 82.04V80.352C115.039 80.3733 114.482 80.4267 114.023 80.512C113.564 80.592 113.191 80.6987 112.903 80.832C112.615 80.9653 112.404 81.1227 112.271 81.304C112.143 81.4853 112.079 81.688 112.079 81.912C112.079 82.1253 112.114 82.3093 112.183 82.464C112.252 82.6187 112.346 82.7467 112.463 82.848C112.58 82.944 112.719 83.016 112.879 83.064C113.039 83.1067 113.212 83.128 113.399 83.128ZM122.986 86.744V75.896H123.834C124.037 75.896 124.165 75.9947 124.218 76.192L124.338 77.152C124.685 76.7307 125.079 76.392 125.522 76.136C125.97 75.88 126.485 75.752 127.066 75.752C127.53 75.752 127.951 75.8427 128.33 76.024C128.709 76.2 129.031 76.464 129.298 76.816C129.565 77.1627 129.77 77.5947 129.914 78.112C130.058 78.6293 130.13 79.224 130.13 79.896C130.13 80.4933 130.05 81.0507 129.89 81.568C129.73 82.08 129.501 82.5253 129.202 82.904C128.903 83.2773 128.535 83.5733 128.098 83.792C127.666 84.0053 127.178 84.112 126.634 84.112C126.133 84.112 125.703 84.0293 125.346 83.864C124.994 83.6987 124.682 83.464 124.41 83.16V86.744H122.986ZM126.594 76.904C126.13 76.904 125.722 77.0107 125.37 77.224C125.023 77.4373 124.703 77.7387 124.41 78.128V82.048C124.671 82.4 124.957 82.648 125.266 82.792C125.581 82.936 125.93 83.008 126.314 83.008C127.066 83.008 127.645 82.7387 128.05 82.2C128.455 81.6613 128.658 80.8933 128.658 79.896C128.658 79.368 128.61 78.9147 128.514 78.536C128.423 78.1573 128.29 77.848 128.114 77.608C127.938 77.3627 127.722 77.184 127.466 77.072C127.21 76.96 126.919 76.904 126.594 76.904ZM135.414 75.768C136.006 75.768 136.54 75.8667 137.014 76.064C137.494 76.2613 137.9 76.5413 138.23 76.904C138.566 77.2667 138.822 77.7067 138.998 78.224C139.18 78.736 139.27 79.3093 139.27 79.944C139.27 80.584 139.18 81.16 138.998 81.672C138.822 82.184 138.566 82.6213 138.23 82.984C137.9 83.3467 137.494 83.6267 137.014 83.824C136.54 84.016 136.006 84.112 135.414 84.112C134.822 84.112 134.286 84.016 133.806 83.824C133.332 83.6267 132.926 83.3467 132.59 82.984C132.254 82.6213 131.996 82.184 131.814 81.672C131.633 81.16 131.542 80.584 131.542 79.944C131.542 79.3093 131.633 78.736 131.814 78.224C131.996 77.7067 132.254 77.2667 132.59 76.904C132.926 76.5413 133.332 76.2613 133.806 76.064C134.286 75.8667 134.822 75.768 135.414 75.768ZM135.414 83C136.214 83 136.812 82.7333 137.206 82.2C137.601 81.6613 137.798 80.912 137.798 79.952C137.798 78.9867 137.601 78.2347 137.206 77.696C136.812 77.1573 136.214 76.888 135.414 76.888C135.009 76.888 134.657 76.9573 134.358 77.096C134.06 77.2347 133.809 77.4347 133.606 77.696C133.409 77.9573 133.26 78.28 133.158 78.664C133.062 79.0427 133.014 79.472 133.014 79.952C133.014 80.432 133.062 80.8613 133.158 81.24C133.26 81.6187 133.409 81.9387 133.606 82.2C133.809 82.456 134.06 82.6533 134.358 82.792C134.657 82.9307 135.009 83 135.414 83ZM143.801 84.128C143.161 84.128 142.668 83.9493 142.321 83.592C141.98 83.2347 141.809 82.72 141.809 82.048V77.088H140.833C140.748 77.088 140.676 77.064 140.617 77.016C140.558 76.9627 140.529 76.8827 140.529 76.776V76.208L141.857 76.04L142.185 73.536C142.196 73.456 142.23 73.392 142.289 73.344C142.348 73.2907 142.422 73.264 142.513 73.264H143.233V76.056H145.553V77.088H143.233V81.952C143.233 82.2933 143.316 82.5467 143.481 82.712C143.646 82.8773 143.86 82.96 144.121 82.96C144.27 82.96 144.398 82.9413 144.505 82.904C144.617 82.8613 144.713 82.816 144.793 82.768C144.873 82.72 144.94 82.6773 144.993 82.64C145.052 82.5973 145.102 82.576 145.145 82.576C145.22 82.576 145.286 82.6213 145.345 82.712L145.761 83.392C145.516 83.6213 145.22 83.8027 144.873 83.936C144.526 84.064 144.169 84.128 143.801 84.128ZM153.586 84H152.954C152.815 84 152.703 83.9787 152.618 83.936C152.532 83.8933 152.476 83.8027 152.45 83.664L152.29 82.912C152.076 83.104 151.868 83.2773 151.666 83.432C151.463 83.5813 151.25 83.7093 151.026 83.816C150.802 83.9173 150.562 83.9947 150.306 84.048C150.055 84.1013 149.775 84.128 149.466 84.128C149.151 84.128 148.855 84.0853 148.578 84C148.306 83.9093 148.068 83.776 147.866 83.6C147.663 83.424 147.5 83.2027 147.378 82.936C147.26 82.664 147.202 82.344 147.202 81.976C147.202 81.656 147.29 81.3493 147.466 81.056C147.642 80.7573 147.924 80.4933 148.314 80.264C148.708 80.0347 149.223 79.848 149.858 79.704C150.492 79.5547 151.268 79.4693 152.186 79.448V78.816C152.186 78.1867 152.05 77.712 151.778 77.392C151.511 77.0667 151.114 76.904 150.586 76.904C150.239 76.904 149.946 76.9493 149.706 77.04C149.471 77.1253 149.266 77.224 149.09 77.336C148.919 77.4427 148.77 77.5413 148.642 77.632C148.519 77.7173 148.396 77.76 148.274 77.76C148.178 77.76 148.092 77.736 148.018 77.688C147.948 77.6347 147.892 77.5707 147.85 77.496L147.594 77.04C148.042 76.608 148.524 76.2853 149.042 76.072C149.559 75.8587 150.132 75.752 150.762 75.752C151.215 75.752 151.618 75.8267 151.97 75.976C152.322 76.1253 152.618 76.3333 152.858 76.6C153.098 76.8667 153.279 77.1893 153.402 77.568C153.524 77.9467 153.586 78.3627 153.586 78.816V84ZM149.89 83.128C150.14 83.128 150.37 83.104 150.578 83.056C150.786 83.0027 150.98 82.9307 151.162 82.84C151.348 82.744 151.524 82.6293 151.69 82.496C151.86 82.3627 152.026 82.2107 152.186 82.04V80.352C151.53 80.3733 150.972 80.4267 150.514 80.512C150.055 80.592 149.682 80.6987 149.394 80.832C149.106 80.9653 148.895 81.1227 148.762 81.304C148.634 81.4853 148.57 81.688 148.57 81.912C148.57 82.1253 148.604 82.3093 148.674 82.464C148.743 82.6187 148.836 82.7467 148.954 82.848C149.071 82.944 149.21 83.016 149.37 83.064C149.53 83.1067 149.703 83.128 149.89 83.128ZM153.01 72.408L151.146 74.472C151.071 74.552 150.996 74.6107 150.922 74.648C150.852 74.68 150.762 74.696 150.65 74.696H149.802L150.986 72.76C151.06 72.6373 151.14 72.5493 151.226 72.496C151.316 72.4373 151.447 72.408 151.618 72.408H153.01ZM154.789 75.896H155.957C156.069 75.896 156.162 75.9253 156.237 75.984C156.312 76.0427 156.365 76.112 156.397 76.192L158.453 81.408C158.528 81.6 158.586 81.792 158.629 81.984C158.672 82.176 158.712 82.3653 158.749 82.552C158.792 82.3653 158.837 82.176 158.885 81.984C158.933 81.792 158.994 81.6 159.069 81.408L161.149 76.192C161.181 76.1067 161.232 76.0373 161.301 75.984C161.376 75.9253 161.466 75.896 161.573 75.896H162.685L159.381 84H158.093L154.789 75.896ZM167.325 75.768C167.811 75.768 168.259 75.8507 168.669 76.016C169.08 76.176 169.435 76.4107 169.733 76.72C170.032 77.024 170.264 77.4027 170.429 77.856C170.6 78.304 170.685 78.816 170.685 79.392C170.685 79.616 170.661 79.7653 170.613 79.84C170.565 79.9147 170.475 79.952 170.341 79.952H164.949C164.96 80.464 165.029 80.9093 165.157 81.288C165.285 81.6667 165.461 81.984 165.685 82.24C165.909 82.4907 166.176 82.68 166.485 82.808C166.795 82.9307 167.141 82.992 167.525 82.992C167.883 82.992 168.189 82.952 168.445 82.872C168.707 82.7867 168.931 82.696 169.117 82.6C169.304 82.504 169.459 82.416 169.581 82.336C169.709 82.2507 169.819 82.208 169.909 82.208C170.027 82.208 170.117 82.2533 170.181 82.344L170.581 82.864C170.405 83.0773 170.195 83.264 169.949 83.424C169.704 83.5787 169.44 83.7067 169.157 83.808C168.88 83.9093 168.592 83.984 168.293 84.032C167.995 84.0853 167.699 84.112 167.405 84.112C166.845 84.112 166.328 84.0187 165.853 83.832C165.384 83.64 164.976 83.3627 164.629 83C164.288 82.632 164.021 82.1787 163.829 81.64C163.637 81.1013 163.541 80.4827 163.541 79.784C163.541 79.2187 163.627 78.6907 163.797 78.2C163.973 77.7093 164.224 77.2853 164.549 76.928C164.875 76.5653 165.272 76.2827 165.741 76.08C166.211 75.872 166.739 75.768 167.325 75.768ZM167.357 76.816C166.669 76.816 166.128 77.016 165.733 77.416C165.339 77.8107 165.093 78.36 164.997 79.064H169.405C169.405 78.7333 169.36 78.432 169.269 78.16C169.179 77.8827 169.045 77.6453 168.869 77.448C168.693 77.2453 168.477 77.0907 168.221 76.984C167.971 76.872 167.683 76.816 167.357 76.816ZM174.412 72.216V84H172.988V72.216H174.412Z" fill="#FFE1CC"/>
<path d="M89.2 35.024H83.28V41.392H79.248V35.024H73.36V31.472H79.248V25.136H83.28V31.472H89.2V35.024ZM92.6105 27.344C92.7812 26.1813 93.1065 25.168 93.5865 24.304C94.0772 23.44 94.6798 22.72 95.3945 22.144C96.1198 21.568 96.9465 21.1413 97.8745 20.864C98.8025 20.576 99.7998 20.432 100.866 20.432C102.018 20.432 103.042 20.5973 103.939 20.928C104.835 21.248 105.592 21.6853 106.21 22.24C106.829 22.7947 107.299 23.44 107.618 24.176C107.938 24.9013 108.098 25.6693 108.098 26.48C108.098 27.216 108.024 27.8667 107.875 28.432C107.725 28.9867 107.501 29.472 107.202 29.888C106.914 30.2933 106.552 30.64 106.115 30.928C105.688 31.2053 105.197 31.44 104.642 31.632C107.224 32.5387 108.514 34.2987 108.514 36.912C108.514 38.1493 108.291 39.2267 107.843 40.144C107.395 41.0613 106.792 41.824 106.035 42.432C105.288 43.04 104.419 43.4987 103.427 43.808C102.434 44.1067 101.4 44.256 100.323 44.256C99.2132 44.256 98.2265 44.1387 97.3625 43.904C96.4985 43.6587 95.7305 43.2853 95.0585 42.784C94.3865 42.272 93.7945 41.6213 93.2825 40.832C92.7812 40.0427 92.3438 39.104 91.9705 38.016L94.1785 37.12C94.7545 36.896 95.2878 36.8373 95.7785 36.944C96.2692 37.0507 96.6212 37.296 96.8345 37.68C97.3145 38.5653 97.8212 39.2107 98.3545 39.616C98.8985 40.0107 99.5332 40.208 100.259 40.208C100.813 40.208 101.293 40.1173 101.698 39.936C102.115 39.744 102.456 39.504 102.722 39.216C103 38.9173 103.208 38.5813 103.347 38.208C103.485 37.8347 103.554 37.456 103.554 37.072C103.554 36.5707 103.517 36.1227 103.443 35.728C103.379 35.3227 103.187 34.976 102.866 34.688C102.547 34.4 102.061 34.1813 101.41 34.032C100.77 33.872 99.8745 33.792 98.7225 33.792V30.368C99.6932 30.368 100.477 30.2933 101.075 30.144C101.672 29.9947 102.13 29.792 102.45 29.536C102.781 29.2693 103 28.9493 103.106 28.576C103.213 28.2027 103.266 27.792 103.266 27.344C103.266 26.4267 103.042 25.7227 102.594 25.232C102.157 24.7307 101.485 24.48 100.578 24.48C99.8425 24.48 99.2185 24.6773 98.7065 25.072C98.2052 25.456 97.8585 25.936 97.6665 26.512C97.4425 27.0987 97.1492 27.488 96.7865 27.68C96.4238 27.872 95.9065 27.9147 95.2345 27.808L92.6105 27.344ZM120.131 44V27.408H123.203C123.822 27.408 124.227 27.6853 124.419 28.24L124.691 29.136C124.969 28.848 125.257 28.5867 125.555 28.352C125.854 28.1067 126.174 27.8987 126.515 27.728C126.867 27.5467 127.241 27.408 127.635 27.312C128.041 27.2053 128.483 27.152 128.963 27.152C129.966 27.152 130.793 27.4133 131.443 27.936C132.105 28.448 132.606 29.136 132.947 30C133.225 29.488 133.561 29.0507 133.955 28.688C134.361 28.3253 134.793 28.032 135.251 27.808C135.721 27.584 136.211 27.4187 136.723 27.312C137.246 27.2053 137.763 27.152 138.275 27.152C139.225 27.152 140.067 27.296 140.803 27.584C141.539 27.8613 142.153 28.272 142.643 28.816C143.145 29.3493 143.523 30.0107 143.779 30.8C144.035 31.5787 144.163 32.464 144.163 33.456V44H139.203V33.456C139.203 31.7387 138.467 30.88 136.995 30.88C136.323 30.88 135.763 31.104 135.315 31.552C134.878 31.9893 134.659 32.624 134.659 33.456V44H129.699V33.456C129.699 32.5067 129.513 31.84 129.139 31.456C128.766 31.072 128.217 30.88 127.491 30.88C127.043 30.88 126.617 30.9813 126.211 31.184C125.817 31.3867 125.443 31.6587 125.091 32V44H120.131ZM153.062 27.408V44H148.102V27.408H153.062ZM153.574 22.864C153.574 23.2587 153.494 23.632 153.334 23.984C153.174 24.3253 152.955 24.6293 152.678 24.896C152.401 25.152 152.075 25.36 151.702 25.52C151.339 25.6693 150.95 25.744 150.534 25.744C150.129 25.744 149.75 25.6693 149.398 25.52C149.046 25.36 148.731 25.152 148.454 24.896C148.187 24.6293 147.974 24.3253 147.814 23.984C147.665 23.632 147.59 23.2587 147.59 22.864C147.59 22.4587 147.665 22.08 147.814 21.728C147.974 21.376 148.187 21.0667 148.454 20.8C148.731 20.5333 149.046 20.3253 149.398 20.176C149.75 20.0267 150.129 19.952 150.534 19.952C150.95 19.952 151.339 20.0267 151.702 20.176C152.075 20.3253 152.401 20.5333 152.678 20.8C152.955 21.0667 153.174 21.376 153.334 21.728C153.494 22.08 153.574 22.4587 153.574 22.864ZM162.121 20.048V44H157.161V20.048H162.121ZM171.074 28.864C171.671 28.352 172.316 27.9413 173.01 27.632C173.714 27.312 174.551 27.152 175.522 27.152C176.428 27.152 177.228 27.312 177.922 27.632C178.626 27.9413 179.218 28.3787 179.698 28.944C180.178 29.4987 180.54 30.1653 180.786 30.944C181.031 31.712 181.154 32.5493 181.154 33.456V44H176.194V33.456C176.194 32.6453 176.007 32.016 175.634 31.568C175.26 31.1093 174.711 30.88 173.986 30.88C173.442 30.88 172.93 30.9973 172.45 31.232C171.98 31.456 171.522 31.7653 171.074 32.16V44H166.114V20.048H171.074V28.864ZM192.652 27.152C193.91 27.152 195.057 27.3493 196.092 27.744C197.126 28.1387 198.012 28.704 198.748 29.44C199.494 30.176 200.07 31.072 200.476 32.128C200.892 33.1733 201.1 34.352 201.1 35.664C201.1 36.9867 200.892 38.1813 200.476 39.248C200.07 40.304 199.494 41.2053 198.748 41.952C198.012 42.688 197.126 43.2587 196.092 43.664C195.057 44.0587 193.91 44.256 192.652 44.256C191.382 44.256 190.225 44.0587 189.18 43.664C188.145 43.2587 187.249 42.688 186.492 41.952C185.745 41.2053 185.164 40.304 184.748 39.248C184.342 38.1813 184.14 36.9867 184.14 35.664C184.14 34.352 184.342 33.1733 184.748 32.128C185.164 31.072 185.745 30.176 186.492 29.44C187.249 28.704 188.145 28.1387 189.18 27.744C190.225 27.3493 191.382 27.152 192.652 27.152ZM192.652 40.576C193.793 40.576 194.63 40.176 195.164 39.376C195.708 38.5653 195.98 37.3387 195.98 35.696C195.98 34.0533 195.708 32.832 195.164 32.032C194.63 31.232 193.793 30.832 192.652 30.832C191.478 30.832 190.62 31.232 190.076 32.032C189.532 32.832 189.26 34.0533 189.26 35.696C189.26 37.3387 189.532 38.5653 190.076 39.376C190.62 40.176 191.478 40.576 192.652 40.576ZM194.316 21.808C194.572 21.808 194.78 21.744 194.94 21.616C195.1 21.4773 195.18 21.1893 195.18 20.752H198.188C198.188 21.424 198.092 22.032 197.9 22.576C197.718 23.1093 197.462 23.568 197.132 23.952C196.801 24.3253 196.412 24.6133 195.964 24.816C195.516 25.0187 195.03 25.12 194.508 25.12C194.113 25.12 193.745 25.0613 193.404 24.944C193.062 24.816 192.742 24.6773 192.444 24.528C192.156 24.3787 191.889 24.2453 191.644 24.128C191.409 24 191.201 23.936 191.02 23.936C190.764 23.936 190.561 24.0107 190.412 24.16C190.262 24.2987 190.188 24.5867 190.188 25.024H187.148C187.148 24.352 187.244 23.7493 187.436 23.216C187.628 22.672 187.889 22.208 188.22 21.824C188.55 21.44 188.94 21.1467 189.388 20.944C189.836 20.7307 190.316 20.624 190.828 20.624C191.222 20.624 191.59 20.688 191.932 20.816C192.284 20.9333 192.604 21.0667 192.892 21.216C193.18 21.3653 193.441 21.504 193.676 21.632C193.921 21.7493 194.134 21.808 194.316 21.808ZM214.557 33.712C214.557 33.3173 214.504 32.9333 214.397 32.56C214.301 32.1867 214.136 31.856 213.901 31.568C213.677 31.2693 213.379 31.0293 213.005 30.848C212.632 30.6667 212.179 30.576 211.645 30.576C210.707 30.576 209.971 30.848 209.437 31.392C208.904 31.9253 208.552 32.6987 208.381 33.712H214.557ZM208.317 36.592C208.477 37.9787 208.899 38.9867 209.581 39.616C210.264 40.2347 211.144 40.544 212.221 40.544C212.797 40.544 213.293 40.4747 213.709 40.336C214.125 40.1973 214.493 40.0427 214.813 39.872C215.144 39.7013 215.443 39.5467 215.709 39.408C215.987 39.2693 216.275 39.2 216.573 39.2C216.968 39.2 217.267 39.344 217.469 39.632L218.909 41.408C218.397 41.9947 217.843 42.4747 217.245 42.848C216.659 43.2107 216.051 43.4987 215.421 43.712C214.803 43.9147 214.179 44.0533 213.549 44.128C212.931 44.2133 212.339 44.256 211.773 44.256C210.611 44.256 209.517 44.0693 208.493 43.696C207.48 43.312 206.589 42.7467 205.821 42C205.064 41.2533 204.461 40.3253 204.013 39.216C203.576 38.1067 203.357 36.816 203.357 35.344C203.357 34.2347 203.544 33.184 203.917 32.192C204.301 31.2 204.845 30.3307 205.549 29.584C206.264 28.8373 207.123 28.2453 208.125 27.808C209.139 27.3707 210.28 27.152 211.549 27.152C212.648 27.152 213.651 27.3227 214.557 27.664C215.475 28.0053 216.259 28.5013 216.909 29.152C217.571 29.8027 218.083 30.6027 218.445 31.552C218.819 32.4907 219.005 33.5573 219.005 34.752C219.005 35.1253 218.989 35.4293 218.957 35.664C218.925 35.8987 218.867 36.0853 218.781 36.224C218.696 36.3627 218.579 36.4587 218.429 36.512C218.291 36.5653 218.109 36.592 217.885 36.592H208.317ZM232.671 31.04C232.543 31.2427 232.405 31.3867 232.255 31.472C232.117 31.5573 231.935 31.6 231.711 31.6C231.477 31.6 231.242 31.552 231.007 31.456C230.773 31.3493 230.517 31.2373 230.239 31.12C229.973 31.0027 229.669 30.896 229.327 30.8C228.986 30.6933 228.597 30.64 228.159 30.64C227.53 30.64 227.045 30.7627 226.703 31.008C226.373 31.2427 226.207 31.5733 226.207 32C226.207 32.3093 226.314 32.5653 226.527 32.768C226.751 32.9707 227.045 33.152 227.407 33.312C227.77 33.4613 228.181 33.6053 228.639 33.744C229.098 33.8827 229.567 34.0373 230.047 34.208C230.527 34.3787 230.997 34.5813 231.455 34.816C231.914 35.04 232.325 35.3227 232.687 35.664C233.05 35.9947 233.338 36.4 233.551 36.88C233.775 37.36 233.887 37.936 233.887 38.608C233.887 39.4293 233.738 40.1867 233.439 40.88C233.141 41.5733 232.693 42.1707 232.095 42.672C231.509 43.1733 230.778 43.5627 229.903 43.84C229.039 44.1173 228.042 44.256 226.911 44.256C226.346 44.256 225.781 44.2027 225.215 44.096C224.65 43.9893 224.101 43.8453 223.567 43.664C223.045 43.4827 222.559 43.2693 222.111 43.024C221.663 42.768 221.279 42.496 220.959 42.208L222.111 40.384C222.239 40.1707 222.399 40.0053 222.591 39.888C222.794 39.76 223.05 39.696 223.359 39.696C223.647 39.696 223.903 39.76 224.127 39.888C224.362 40.016 224.613 40.1547 224.879 40.304C225.146 40.4533 225.455 40.592 225.807 40.72C226.17 40.848 226.623 40.912 227.167 40.912C227.551 40.912 227.877 40.8747 228.143 40.8C228.41 40.7147 228.623 40.6027 228.783 40.464C228.943 40.3253 229.061 40.1707 229.135 40C229.21 39.8293 229.247 39.6533 229.247 39.472C229.247 39.1413 229.135 38.8693 228.911 38.656C228.687 38.4427 228.394 38.2613 228.031 38.112C227.669 37.952 227.253 37.808 226.783 37.68C226.325 37.5413 225.855 37.3867 225.375 37.216C224.895 37.0453 224.421 36.8427 223.951 36.608C223.493 36.3627 223.082 36.0587 222.719 35.696C222.357 35.3227 222.063 34.8693 221.839 34.336C221.615 33.8027 221.503 33.1573 221.503 32.4C221.503 31.696 221.637 31.0293 221.903 30.4C222.181 29.76 222.591 29.2 223.135 28.72C223.679 28.24 224.362 27.8613 225.183 27.584C226.005 27.296 226.965 27.152 228.063 27.152C228.661 27.152 229.237 27.2053 229.791 27.312C230.357 27.4187 230.885 27.568 231.375 27.76C231.866 27.952 232.314 28.1813 232.719 28.448C233.125 28.704 233.482 28.9867 233.791 29.296L232.671 31.04Z" fill="white"/>
<path d="M42.5121 47.0818L42.8892 43.5H29.1108L29.4663 46.8774L30.9749 46.5541C32.7922 46.1647 34.6856 46.3487 36.3939 47.0809C37.7217 47.6499 39.1934 47.793 40.606 47.4903L42.5121 47.0818ZM42.2919 49.1744L41.0251 49.4459C39.2077 49.8353 37.3144 49.6513 35.6061 48.9191C34.2782 48.3501 32.8065 48.207 31.3939 48.5097L29.6768 48.8777L30.7117 58.7094C30.8189 59.7273 31.6772 60.5 32.7008 60.5H39.2992C40.3227 60.5 41.181 59.7273 41.2882 58.7094L42.2919 49.1744ZM42.8892 41.5C43.9938 41.5 44.8892 42.3954 44.8892 43.5C44.8892 43.5699 44.8855 43.6398 44.8782 43.7094L43.2772 58.9187C43.0629 60.9545 41.3462 62.5 39.2992 62.5H32.7008C30.6537 62.5 28.937 60.9545 28.7227 58.9187L27.1217 43.7094C27.0061 42.6109 27.8029 41.6266 28.9014 41.511C28.9709 41.5037 29.0408 41.5 29.1108 41.5H42.8892Z" fill="#994000"/>
</svg>
