<svg width="296" height="104" viewBox="0 0 296 104" fill="none" xmlns="http://www.w3.org/2000/svg">
<rect width="296" height="104" rx="4" fill="#FF6B00"/>
<path d="M78.872 64C78.6693 64 78.5413 63.9013 78.488 63.704L78.36 62.72C78.0133 63.1413 77.616 63.48 77.168 63.736C76.7253 63.9867 76.216 64.112 75.64 64.112C75.176 64.112 74.7547 64.024 74.376 63.848C73.9973 63.6667 73.6747 63.4027 73.408 63.056C73.1413 62.7093 72.936 62.2773 72.792 61.76C72.648 61.2427 72.576 60.648 72.576 59.976C72.576 59.3787 72.656 58.824 72.816 58.312C72.976 57.7947 73.2053 57.3467 73.504 56.968C73.808 56.5893 74.176 56.2933 74.608 56.08C75.04 55.8613 75.5307 55.752 76.08 55.752C76.576 55.752 77 55.8373 77.352 56.008C77.704 56.1733 78.0187 56.408 78.296 56.712V52.216H79.72V64H78.872ZM76.112 62.96C76.576 62.96 76.9813 62.8533 77.328 62.64C77.68 62.4267 78.0027 62.1253 78.296 61.736V57.816C78.0347 57.464 77.7467 57.2187 77.432 57.08C77.1227 56.936 76.7787 56.864 76.4 56.864C75.6427 56.864 75.0613 57.1333 74.656 57.672C74.2507 58.2107 74.048 58.9787 74.048 59.976C74.048 60.504 74.0933 60.9573 74.184 61.336C74.2747 61.7093 74.408 62.0187 74.584 62.264C74.76 62.504 74.976 62.68 75.232 62.792C75.488 62.904 75.7813 62.96 76.112 62.96ZM85.6335 55.768C86.1188 55.768 86.5668 55.8507 86.9775 56.016C87.3882 56.176 87.7428 56.4107 88.0415 56.72C88.3402 57.024 88.5722 57.4027 88.7375 57.856C88.9082 58.304 88.9935 58.816 88.9935 59.392C88.9935 59.616 88.9695 59.7653 88.9215 59.84C88.8735 59.9147 88.7828 59.952 88.6495 59.952H83.2575C83.2682 60.464 83.3375 60.9093 83.4655 61.288C83.5935 61.6667 83.7695 61.984 83.9935 62.24C84.2175 62.4907 84.4842 62.68 84.7935 62.808C85.1028 62.9307 85.4495 62.992 85.8335 62.992C86.1908 62.992 86.4975 62.952 86.7535 62.872C87.0148 62.7867 87.2388 62.696 87.4255 62.6C87.6122 62.504 87.7668 62.416 87.8895 62.336C88.0175 62.2507 88.1268 62.208 88.2175 62.208C88.3348 62.208 88.4255 62.2533 88.4895 62.344L88.8895 62.864C88.7135 63.0773 88.5028 63.264 88.2575 63.424C88.0122 63.5787 87.7482 63.7067 87.4655 63.808C87.1882 63.9093 86.9002 63.984 86.6015 64.032C86.3028 64.0853 86.0068 64.112 85.7135 64.112C85.1535 64.112 84.6362 64.0187 84.1615 63.832C83.6922 63.64 83.2842 63.3627 82.9375 63C82.5962 62.632 82.3295 62.1787 82.1375 61.64C81.9455 61.1013 81.8495 60.4827 81.8495 59.784C81.8495 59.2187 81.9348 58.6907 82.1055 58.2C82.2815 57.7093 82.5322 57.2853 82.8575 56.928C83.1828 56.5653 83.5802 56.2827 84.0495 56.08C84.5188 55.872 85.0468 55.768 85.6335 55.768ZM85.6655 56.816C84.9775 56.816 84.4362 57.016 84.0415 57.416C83.6468 57.8107 83.4015 58.36 83.3055 59.064H87.7135C87.7135 58.7333 87.6682 58.432 87.5775 58.16C87.4868 57.8827 87.3535 57.6453 87.1775 57.448C87.0015 57.2453 86.7855 57.0907 86.5295 56.984C86.2788 56.872 85.9908 56.816 85.6655 56.816ZM100.254 64C100.051 64 99.9232 63.9013 99.8699 63.704L99.7419 62.72C99.3952 63.1413 98.9979 63.48 98.5499 63.736C98.1072 63.9867 97.5979 64.112 97.0219 64.112C96.5579 64.112 96.1365 64.024 95.7579 63.848C95.3792 63.6667 95.0565 63.4027 94.7899 63.056C94.5232 62.7093 94.3179 62.2773 94.1739 61.76C94.0299 61.2427 93.9579 60.648 93.9579 59.976C93.9579 59.3787 94.0379 58.824 94.1979 58.312C94.3579 57.7947 94.5872 57.3467 94.8859 56.968C95.1899 56.5893 95.5579 56.2933 95.9899 56.08C96.4219 55.8613 96.9125 55.752 97.4619 55.752C97.9579 55.752 98.3819 55.8373 98.7339 56.008C99.0859 56.1733 99.4005 56.408 99.6779 56.712V52.216H101.102V64H100.254ZM97.4939 62.96C97.9579 62.96 98.3632 62.8533 98.7099 62.64C99.0619 62.4267 99.3845 62.1253 99.6779 61.736V57.816C99.4165 57.464 99.1285 57.2187 98.8139 57.08C98.5045 56.936 98.1605 56.864 97.7819 56.864C97.0245 56.864 96.4432 57.1333 96.0379 57.672C95.6325 58.2107 95.4299 58.9787 95.4299 59.976C95.4299 60.504 95.4752 60.9573 95.5659 61.336C95.6565 61.7093 95.7899 62.0187 95.9659 62.264C96.1419 62.504 96.3579 62.68 96.6139 62.792C96.8699 62.904 97.1632 62.96 97.4939 62.96ZM107.087 55.768C107.679 55.768 108.213 55.8667 108.687 56.064C109.167 56.2613 109.573 56.5413 109.903 56.904C110.239 57.2667 110.495 57.7067 110.671 58.224C110.853 58.736 110.943 59.3093 110.943 59.944C110.943 60.584 110.853 61.16 110.671 61.672C110.495 62.184 110.239 62.6213 109.903 62.984C109.573 63.3467 109.167 63.6267 108.687 63.824C108.213 64.016 107.679 64.112 107.087 64.112C106.495 64.112 105.959 64.016 105.479 63.824C105.005 63.6267 104.599 63.3467 104.263 62.984C103.927 62.6213 103.669 62.184 103.487 61.672C103.306 61.16 103.215 60.584 103.215 59.944C103.215 59.3093 103.306 58.736 103.487 58.224C103.669 57.7067 103.927 57.2667 104.263 56.904C104.599 56.5413 105.005 56.2613 105.479 56.064C105.959 55.8667 106.495 55.768 107.087 55.768ZM107.087 63C107.887 63 108.485 62.7333 108.879 62.2C109.274 61.6613 109.471 60.912 109.471 59.952C109.471 58.9867 109.274 58.2347 108.879 57.696C108.485 57.1573 107.887 56.888 107.087 56.888C106.682 56.888 106.33 56.9573 106.031 57.096C105.733 57.2347 105.482 57.4347 105.279 57.696C105.082 57.9573 104.933 58.28 104.831 58.664C104.735 59.0427 104.687 59.472 104.687 59.952C104.687 60.432 104.735 60.8613 104.831 61.24C104.933 61.6187 105.082 61.9387 105.279 62.2C105.482 62.456 105.733 62.6533 106.031 62.792C106.33 62.9307 106.682 63 107.087 63ZM109.423 52.408L107.559 54.472C107.485 54.552 107.41 54.6107 107.335 54.648C107.266 54.68 107.175 54.696 107.063 54.696H106.215L107.399 52.76C107.474 52.6373 107.554 52.5493 107.639 52.496C107.73 52.4373 107.861 52.408 108.031 52.408H109.423ZM114.602 52.216V64H113.178V52.216H114.602ZM123.384 64H122.752C122.613 64 122.501 63.9787 122.416 63.936C122.33 63.8933 122.274 63.8027 122.248 63.664L122.088 62.912C121.874 63.104 121.666 63.2773 121.464 63.432C121.261 63.5813 121.048 63.7093 120.824 63.816C120.6 63.9173 120.36 63.9947 120.104 64.048C119.853 64.1013 119.573 64.128 119.264 64.128C118.949 64.128 118.653 64.0853 118.376 64C118.104 63.9093 117.866 63.776 117.664 63.6C117.461 63.424 117.298 63.2027 117.176 62.936C117.058 62.664 117 62.344 117 61.976C117 61.656 117.088 61.3493 117.264 61.056C117.44 60.7573 117.722 60.4933 118.112 60.264C118.506 60.0347 119.021 59.848 119.656 59.704C120.29 59.5547 121.066 59.4693 121.984 59.448V58.816C121.984 58.1867 121.848 57.712 121.576 57.392C121.309 57.0667 120.912 56.904 120.384 56.904C120.037 56.904 119.744 56.9493 119.504 57.04C119.269 57.1253 119.064 57.224 118.888 57.336C118.717 57.4427 118.568 57.5413 118.44 57.632C118.317 57.7173 118.194 57.76 118.072 57.76C117.976 57.76 117.89 57.736 117.816 57.688C117.746 57.6347 117.69 57.5707 117.648 57.496L117.392 57.04C117.84 56.608 118.322 56.2853 118.84 56.072C119.357 55.8587 119.93 55.752 120.56 55.752C121.013 55.752 121.416 55.8267 121.768 55.976C122.12 56.1253 122.416 56.3333 122.656 56.6C122.896 56.8667 123.077 57.1893 123.2 57.568C123.322 57.9467 123.384 58.3627 123.384 58.816V64ZM119.688 63.128C119.938 63.128 120.168 63.104 120.376 63.056C120.584 63.0027 120.778 62.9307 120.96 62.84C121.146 62.744 121.322 62.6293 121.488 62.496C121.658 62.3627 121.824 62.2107 121.984 62.04V60.352C121.328 60.3733 120.77 60.4267 120.312 60.512C119.853 60.592 119.48 60.6987 119.192 60.832C118.904 60.9653 118.693 61.1227 118.56 61.304C118.432 61.4853 118.368 61.688 118.368 61.912C118.368 62.1253 118.402 62.3093 118.472 62.464C118.541 62.6187 118.634 62.7467 118.752 62.848C118.869 62.944 119.008 63.016 119.168 63.064C119.328 63.1067 119.501 63.128 119.688 63.128ZM125.861 64V55.896H126.677C126.832 55.896 126.938 55.9253 126.997 55.984C127.056 56.0427 127.096 56.144 127.117 56.288L127.213 57.552C127.49 56.9867 127.832 56.5467 128.237 56.232C128.648 55.912 129.128 55.752 129.677 55.752C129.901 55.752 130.104 55.7787 130.285 55.832C130.466 55.88 130.634 55.9493 130.789 56.04L130.605 57.104C130.568 57.2373 130.485 57.304 130.357 57.304C130.282 57.304 130.168 57.28 130.013 57.232C129.858 57.1787 129.642 57.152 129.365 57.152C128.869 57.152 128.453 57.296 128.117 57.584C127.786 57.872 127.509 58.2907 127.285 58.84V64H125.861ZM135.842 55.768C136.328 55.768 136.776 55.8507 137.186 56.016C137.597 56.176 137.952 56.4107 138.25 56.72C138.549 57.024 138.781 57.4027 138.946 57.856C139.117 58.304 139.202 58.816 139.202 59.392C139.202 59.616 139.178 59.7653 139.13 59.84C139.082 59.9147 138.992 59.952 138.858 59.952H133.466C133.477 60.464 133.546 60.9093 133.674 61.288C133.802 61.6667 133.978 61.984 134.202 62.24C134.426 62.4907 134.693 62.68 135.002 62.808C135.312 62.9307 135.658 62.992 136.042 62.992C136.4 62.992 136.706 62.952 136.962 62.872C137.224 62.7867 137.448 62.696 137.634 62.6C137.821 62.504 137.976 62.416 138.098 62.336C138.226 62.2507 138.336 62.208 138.426 62.208C138.544 62.208 138.634 62.2533 138.698 62.344L139.098 62.864C138.922 63.0773 138.712 63.264 138.466 63.424C138.221 63.5787 137.957 63.7067 137.674 63.808C137.397 63.9093 137.109 63.984 136.81 64.032C136.512 64.0853 136.216 64.112 135.922 64.112C135.362 64.112 134.845 64.0187 134.37 63.832C133.901 63.64 133.493 63.3627 133.146 63C132.805 62.632 132.538 62.1787 132.346 61.64C132.154 61.1013 132.058 60.4827 132.058 59.784C132.058 59.2187 132.144 58.6907 132.314 58.2C132.49 57.7093 132.741 57.2853 133.066 56.928C133.392 56.5653 133.789 56.2827 134.258 56.08C134.728 55.872 135.256 55.768 135.842 55.768ZM135.874 56.816C135.186 56.816 134.645 57.016 134.25 57.416C133.856 57.8107 133.61 58.36 133.514 59.064H137.922C137.922 58.7333 137.877 58.432 137.786 58.16C137.696 57.8827 137.562 57.6453 137.386 57.448C137.21 57.2453 136.994 57.0907 136.738 56.984C136.488 56.872 136.2 56.816 135.874 56.816ZM145.985 57.232C145.921 57.3493 145.822 57.408 145.689 57.408C145.609 57.408 145.518 57.3787 145.417 57.32C145.316 57.2613 145.19 57.1973 145.041 57.128C144.897 57.0533 144.724 56.9867 144.521 56.928C144.318 56.864 144.078 56.832 143.801 56.832C143.561 56.832 143.345 56.864 143.153 56.928C142.961 56.9867 142.796 57.0693 142.657 57.176C142.524 57.2827 142.42 57.408 142.345 57.552C142.276 57.6907 142.241 57.8427 142.241 58.008C142.241 58.216 142.3 58.3893 142.417 58.528C142.54 58.6667 142.7 58.7867 142.897 58.888C143.094 58.9893 143.318 59.08 143.569 59.16C143.82 59.2347 144.076 59.3173 144.337 59.408C144.604 59.4933 144.862 59.5893 145.113 59.696C145.364 59.8027 145.588 59.936 145.785 60.096C145.982 60.256 146.14 60.4533 146.257 60.688C146.38 60.9173 146.441 61.1947 146.441 61.52C146.441 61.8933 146.374 62.24 146.241 62.56C146.108 62.8747 145.91 63.1493 145.649 63.384C145.388 63.6133 145.068 63.7947 144.689 63.928C144.31 64.0613 143.873 64.128 143.377 64.128C142.812 64.128 142.3 64.0373 141.841 63.856C141.382 63.6693 140.993 63.432 140.673 63.144L141.009 62.6C141.052 62.5307 141.102 62.4773 141.161 62.44C141.22 62.4027 141.297 62.384 141.393 62.384C141.489 62.384 141.59 62.4213 141.697 62.496C141.804 62.5707 141.932 62.6533 142.081 62.744C142.236 62.8347 142.42 62.9173 142.633 62.992C142.852 63.0667 143.124 63.104 143.449 63.104C143.726 63.104 143.969 63.0693 144.177 63C144.385 62.9253 144.558 62.8267 144.697 62.704C144.836 62.5813 144.937 62.44 145.001 62.28C145.07 62.12 145.105 61.9493 145.105 61.768C145.105 61.544 145.044 61.36 144.921 61.216C144.804 61.0667 144.646 60.9413 144.449 60.84C144.252 60.7333 144.025 60.6427 143.769 60.568C143.518 60.488 143.26 60.4053 142.993 60.32C142.732 60.2347 142.473 60.1387 142.217 60.032C141.966 59.92 141.742 59.7813 141.545 59.616C141.348 59.4507 141.188 59.248 141.065 59.008C140.948 58.7627 140.889 58.4667 140.889 58.12C140.889 57.8107 140.953 57.5147 141.081 57.232C141.209 56.944 141.396 56.6933 141.641 56.48C141.886 56.2613 142.188 56.088 142.545 55.96C142.902 55.832 143.31 55.768 143.769 55.768C144.302 55.768 144.78 55.8533 145.201 56.024C145.628 56.1893 145.996 56.4187 146.305 56.712L145.985 57.232ZM155.224 55.768C155.709 55.768 156.157 55.8507 156.568 56.016C156.979 56.176 157.333 56.4107 157.632 56.72C157.931 57.024 158.163 57.4027 158.328 57.856C158.499 58.304 158.584 58.816 158.584 59.392C158.584 59.616 158.56 59.7653 158.512 59.84C158.464 59.9147 158.373 59.952 158.24 59.952H152.848C152.859 60.464 152.928 60.9093 153.056 61.288C153.184 61.6667 153.36 61.984 153.584 62.24C153.808 62.4907 154.075 62.68 154.384 62.808C154.693 62.9307 155.04 62.992 155.424 62.992C155.781 62.992 156.088 62.952 156.344 62.872C156.605 62.7867 156.829 62.696 157.016 62.6C157.203 62.504 157.357 62.416 157.48 62.336C157.608 62.2507 157.717 62.208 157.808 62.208C157.925 62.208 158.016 62.2533 158.08 62.344L158.48 62.864C158.304 63.0773 158.093 63.264 157.848 63.424C157.603 63.5787 157.339 63.7067 157.056 63.808C156.779 63.9093 156.491 63.984 156.192 64.032C155.893 64.0853 155.597 64.112 155.304 64.112C154.744 64.112 154.227 64.0187 153.752 63.832C153.283 63.64 152.875 63.3627 152.528 63C152.187 62.632 151.92 62.1787 151.728 61.64C151.536 61.1013 151.44 60.4827 151.44 59.784C151.44 59.2187 151.525 58.6907 151.696 58.2C151.872 57.7093 152.123 57.2853 152.448 56.928C152.773 56.5653 153.171 56.2827 153.64 56.08C154.109 55.872 154.637 55.768 155.224 55.768ZM155.256 56.816C154.568 56.816 154.027 57.016 153.632 57.416C153.237 57.8107 152.992 58.36 152.896 59.064H157.304C157.304 58.7333 157.259 58.432 157.168 58.16C157.077 57.8827 156.944 57.6453 156.768 57.448C156.592 57.2453 156.376 57.0907 156.12 56.984C155.869 56.872 155.581 56.816 155.256 56.816ZM160.727 64V55.896H161.575C161.777 55.896 161.905 55.9947 161.959 56.192L162.071 57.072C162.423 56.6827 162.815 56.368 163.247 56.128C163.684 55.888 164.188 55.768 164.759 55.768C165.201 55.768 165.591 55.8427 165.927 55.992C166.268 56.136 166.551 56.344 166.775 56.616C167.004 56.8827 167.177 57.2053 167.295 57.584C167.412 57.9627 167.471 58.3813 167.471 58.84V64H166.047V58.84C166.047 58.2267 165.905 57.752 165.623 57.416C165.345 57.0747 164.919 56.904 164.343 56.904C163.921 56.904 163.527 57.0053 163.159 57.208C162.796 57.4107 162.46 57.6853 162.151 58.032V64H160.727ZM168.663 55.896H169.831C169.943 55.896 170.037 55.9253 170.111 55.984C170.186 56.0427 170.239 56.112 170.271 56.192L172.327 61.408C172.402 61.6 172.461 61.792 172.503 61.984C172.546 62.176 172.586 62.3653 172.623 62.552C172.666 62.3653 172.711 62.176 172.759 61.984C172.807 61.792 172.869 61.6 172.943 61.408L175.023 56.192C175.055 56.1067 175.106 56.0373 175.175 55.984C175.25 55.9253 175.341 55.896 175.447 55.896H176.559L173.255 64H171.967L168.663 55.896ZM179.779 55.896V64H178.355V55.896H179.779ZM180.099 53.352C180.099 53.4907 180.07 53.6213 180.011 53.744C179.958 53.8613 179.883 53.968 179.787 54.064C179.696 54.1547 179.59 54.2267 179.467 54.28C179.344 54.3333 179.214 54.36 179.075 54.36C178.936 54.36 178.806 54.3333 178.683 54.28C178.566 54.2267 178.459 54.1547 178.363 54.064C178.272 53.968 178.2 53.8613 178.147 53.744C178.094 53.6213 178.067 53.4907 178.067 53.352C178.067 53.2133 178.094 53.0827 178.147 52.96C178.2 52.832 178.272 52.7227 178.363 52.632C178.459 52.536 178.566 52.4613 178.683 52.408C178.806 52.3547 178.936 52.328 179.075 52.328C179.214 52.328 179.344 52.3547 179.467 52.408C179.59 52.4613 179.696 52.536 179.787 52.632C179.883 52.7227 179.958 52.832 180.011 52.96C180.07 53.0827 180.099 53.2133 180.099 53.352ZM188.561 64H187.929C187.79 64 187.678 63.9787 187.593 63.936C187.507 63.8933 187.451 63.8027 187.425 63.664L187.265 62.912C187.051 63.104 186.843 63.2773 186.641 63.432C186.438 63.5813 186.225 63.7093 186.001 63.816C185.777 63.9173 185.537 63.9947 185.281 64.048C185.03 64.1013 184.75 64.128 184.441 64.128C184.126 64.128 183.83 64.0853 183.553 64C183.281 63.9093 183.043 63.776 182.841 63.6C182.638 63.424 182.475 63.2027 182.353 62.936C182.235 62.664 182.177 62.344 182.177 61.976C182.177 61.656 182.265 61.3493 182.441 61.056C182.617 60.7573 182.899 60.4933 183.289 60.264C183.683 60.0347 184.198 59.848 184.833 59.704C185.467 59.5547 186.243 59.4693 187.161 59.448V58.816C187.161 58.1867 187.025 57.712 186.753 57.392C186.486 57.0667 186.089 56.904 185.561 56.904C185.214 56.904 184.921 56.9493 184.681 57.04C184.446 57.1253 184.241 57.224 184.065 57.336C183.894 57.4427 183.745 57.5413 183.617 57.632C183.494 57.7173 183.371 57.76 183.249 57.76C183.153 57.76 183.067 57.736 182.993 57.688C182.923 57.6347 182.867 57.5707 182.825 57.496L182.569 57.04C183.017 56.608 183.499 56.2853 184.017 56.072C184.534 55.8587 185.107 55.752 185.737 55.752C186.19 55.752 186.593 55.8267 186.945 55.976C187.297 56.1253 187.593 56.3333 187.833 56.6C188.073 56.8667 188.254 57.1893 188.377 57.568C188.499 57.9467 188.561 58.3627 188.561 58.816V64ZM184.865 63.128C185.115 63.128 185.345 63.104 185.553 63.056C185.761 63.0027 185.955 62.9307 186.137 62.84C186.323 62.744 186.499 62.6293 186.665 62.496C186.835 62.3627 187.001 62.2107 187.161 62.04V60.352C186.505 60.3733 185.947 60.4267 185.489 60.512C185.03 60.592 184.657 60.6987 184.369 60.832C184.081 60.9653 183.87 61.1227 183.737 61.304C183.609 61.4853 183.545 61.688 183.545 61.912C183.545 62.1253 183.579 62.3093 183.649 62.464C183.718 62.6187 183.811 62.7467 183.929 62.848C184.046 62.944 184.185 63.016 184.345 63.064C184.505 63.1067 184.678 63.128 184.865 63.128ZM196.742 64C196.539 64 196.411 63.9013 196.358 63.704L196.23 62.72C195.883 63.1413 195.486 63.48 195.038 63.736C194.595 63.9867 194.086 64.112 193.51 64.112C193.046 64.112 192.625 64.024 192.246 63.848C191.867 63.6667 191.545 63.4027 191.278 63.056C191.011 62.7093 190.806 62.2773 190.662 61.76C190.518 61.2427 190.446 60.648 190.446 59.976C190.446 59.3787 190.526 58.824 190.686 58.312C190.846 57.7947 191.075 57.3467 191.374 56.968C191.678 56.5893 192.046 56.2933 192.478 56.08C192.91 55.8613 193.401 55.752 193.95 55.752C194.446 55.752 194.87 55.8373 195.222 56.008C195.574 56.1733 195.889 56.408 196.166 56.712V52.216H197.59V64H196.742ZM193.982 62.96C194.446 62.96 194.851 62.8533 195.198 62.64C195.55 62.4267 195.873 62.1253 196.166 61.736V57.816C195.905 57.464 195.617 57.2187 195.302 57.08C194.993 56.936 194.649 56.864 194.27 56.864C193.513 56.864 192.931 57.1333 192.526 57.672C192.121 58.2107 191.918 58.9787 191.918 59.976C191.918 60.504 191.963 60.9573 192.054 61.336C192.145 61.7093 192.278 62.0187 192.454 62.264C192.63 62.504 192.846 62.68 193.102 62.792C193.358 62.904 193.651 62.96 193.982 62.96ZM203.576 55.768C204.168 55.768 204.701 55.8667 205.176 56.064C205.656 56.2613 206.061 56.5413 206.392 56.904C206.728 57.2667 206.984 57.7067 207.16 58.224C207.341 58.736 207.432 59.3093 207.432 59.944C207.432 60.584 207.341 61.16 207.16 61.672C206.984 62.184 206.728 62.6213 206.392 62.984C206.061 63.3467 205.656 63.6267 205.176 63.824C204.701 64.016 204.168 64.112 203.576 64.112C202.984 64.112 202.448 64.016 201.968 63.824C201.493 63.6267 201.088 63.3467 200.752 62.984C200.416 62.6213 200.157 62.184 199.976 61.672C199.794 61.16 199.704 60.584 199.704 59.944C199.704 59.3093 199.794 58.736 199.976 58.224C200.157 57.7067 200.416 57.2667 200.752 56.904C201.088 56.5413 201.493 56.2613 201.968 56.064C202.448 55.8667 202.984 55.768 203.576 55.768ZM203.576 63C204.376 63 204.973 62.7333 205.368 62.2C205.762 61.6613 205.96 60.912 205.96 59.952C205.96 58.9867 205.762 58.2347 205.368 57.696C204.973 57.1573 204.376 56.888 203.576 56.888C203.17 56.888 202.818 56.9573 202.52 57.096C202.221 57.2347 201.97 57.4347 201.768 57.696C201.57 57.9573 201.421 58.28 201.32 58.664C201.224 59.0427 201.176 59.472 201.176 59.952C201.176 60.432 201.224 60.8613 201.32 61.24C201.421 61.6187 201.57 61.9387 201.768 62.2C201.97 62.456 202.221 62.6533 202.52 62.792C202.818 62.9307 203.17 63 203.576 63ZM214.146 57.232C214.082 57.3493 213.983 57.408 213.85 57.408C213.77 57.408 213.679 57.3787 213.578 57.32C213.477 57.2613 213.351 57.1973 213.202 57.128C213.058 57.0533 212.885 56.9867 212.682 56.928C212.479 56.864 212.239 56.832 211.962 56.832C211.722 56.832 211.506 56.864 211.314 56.928C211.122 56.9867 210.957 57.0693 210.818 57.176C210.685 57.2827 210.581 57.408 210.506 57.552C210.437 57.6907 210.402 57.8427 210.402 58.008C210.402 58.216 210.461 58.3893 210.578 58.528C210.701 58.6667 210.861 58.7867 211.058 58.888C211.255 58.9893 211.479 59.08 211.73 59.16C211.981 59.2347 212.237 59.3173 212.498 59.408C212.765 59.4933 213.023 59.5893 213.274 59.696C213.525 59.8027 213.749 59.936 213.946 60.096C214.143 60.256 214.301 60.4533 214.418 60.688C214.541 60.9173 214.602 61.1947 214.602 61.52C214.602 61.8933 214.535 62.24 214.402 62.56C214.269 62.8747 214.071 63.1493 213.81 63.384C213.549 63.6133 213.229 63.7947 212.85 63.928C212.471 64.0613 212.034 64.128 211.538 64.128C210.973 64.128 210.461 64.0373 210.002 63.856C209.543 63.6693 209.154 63.432 208.834 63.144L209.17 62.6C209.213 62.5307 209.263 62.4773 209.322 62.44C209.381 62.4027 209.458 62.384 209.554 62.384C209.65 62.384 209.751 62.4213 209.858 62.496C209.965 62.5707 210.093 62.6533 210.242 62.744C210.397 62.8347 210.581 62.9173 210.794 62.992C211.013 63.0667 211.285 63.104 211.61 63.104C211.887 63.104 212.13 63.0693 212.338 63C212.546 62.9253 212.719 62.8267 212.858 62.704C212.997 62.5813 213.098 62.44 213.162 62.28C213.231 62.12 213.266 61.9493 213.266 61.768C213.266 61.544 213.205 61.36 213.082 61.216C212.965 61.0667 212.807 60.9413 212.61 60.84C212.413 60.7333 212.186 60.6427 211.93 60.568C211.679 60.488 211.421 60.4053 211.154 60.32C210.893 60.2347 210.634 60.1387 210.378 60.032C210.127 59.92 209.903 59.7813 209.706 59.616C209.509 59.4507 209.349 59.248 209.226 59.008C209.109 58.7627 209.05 58.4667 209.05 58.12C209.05 57.8107 209.114 57.5147 209.242 57.232C209.37 56.944 209.557 56.6933 209.802 56.48C210.047 56.2613 210.349 56.088 210.706 55.96C211.063 55.832 211.471 55.768 211.93 55.768C212.463 55.768 212.941 55.8533 213.362 56.024C213.789 56.1893 214.157 56.4187 214.466 56.712L214.146 57.232ZM73.168 86.744V75.896H74.016C74.2187 75.896 74.3467 75.9947 74.4 76.192L74.52 77.152C74.8667 76.7307 75.2613 76.392 75.704 76.136C76.152 75.88 76.6667 75.752 77.248 75.752C77.712 75.752 78.1333 75.8427 78.512 76.024C78.8907 76.2 79.2133 76.464 79.48 76.816C79.7467 77.1627 79.952 77.5947 80.096 78.112C80.24 78.6293 80.312 79.224 80.312 79.896C80.312 80.4933 80.232 81.0507 80.072 81.568C79.912 82.08 79.6827 82.5253 79.384 82.904C79.0853 83.2773 78.7173 83.5733 78.28 83.792C77.848 84.0053 77.36 84.112 76.816 84.112C76.3147 84.112 75.8853 84.0293 75.528 83.864C75.176 83.6987 74.864 83.464 74.592 83.16V86.744H73.168ZM76.776 76.904C76.312 76.904 75.904 77.0107 75.552 77.224C75.2053 77.4373 74.8853 77.7387 74.592 78.128V82.048C74.8533 82.4 75.1387 82.648 75.448 82.792C75.7627 82.936 76.112 83.008 76.496 83.008C77.248 83.008 77.8267 82.7387 78.232 82.2C78.6373 81.6613 78.84 80.8933 78.84 79.896C78.84 79.368 78.792 78.9147 78.696 78.536C78.6053 78.1573 78.472 77.848 78.296 77.608C78.12 77.3627 77.904 77.184 77.648 77.072C77.392 76.96 77.1013 76.904 76.776 76.904ZM88.2681 84H87.6361C87.4975 84 87.3855 83.9787 87.3001 83.936C87.2148 83.8933 87.1588 83.8027 87.1321 83.664L86.9721 82.912C86.7588 83.104 86.5508 83.2773 86.3481 83.432C86.1455 83.5813 85.9321 83.7093 85.7081 83.816C85.4841 83.9173 85.2441 83.9947 84.9881 84.048C84.7375 84.1013 84.4575 84.128 84.1481 84.128C83.8335 84.128 83.5375 84.0853 83.2601 84C82.9881 83.9093 82.7508 83.776 82.5481 83.6C82.3455 83.424 82.1828 83.2027 82.0601 82.936C81.9428 82.664 81.8841 82.344 81.8841 81.976C81.8841 81.656 81.9721 81.3493 82.1481 81.056C82.3241 80.7573 82.6068 80.4933 82.9961 80.264C83.3908 80.0347 83.9055 79.848 84.5401 79.704C85.1748 79.5547 85.9508 79.4693 86.8681 79.448V78.816C86.8681 78.1867 86.7321 77.712 86.4601 77.392C86.1935 77.0667 85.7961 76.904 85.2681 76.904C84.9215 76.904 84.6281 76.9493 84.3881 77.04C84.1535 77.1253 83.9481 77.224 83.7721 77.336C83.6015 77.4427 83.4521 77.5413 83.3241 77.632C83.2015 77.7173 83.0788 77.76 82.9561 77.76C82.8601 77.76 82.7748 77.736 82.7001 77.688C82.6308 77.6347 82.5748 77.5707 82.5321 77.496L82.2761 77.04C82.7241 76.608 83.2068 76.2853 83.7241 76.072C84.2415 75.8587 84.8148 75.752 85.4441 75.752C85.8975 75.752 86.3001 75.8267 86.6521 75.976C87.0041 76.1253 87.3001 76.3333 87.5401 76.6C87.7801 76.8667 87.9615 77.1893 88.0841 77.568C88.2068 77.9467 88.2681 78.3627 88.2681 78.816V84ZM84.5721 83.128C84.8228 83.128 85.0521 83.104 85.2601 83.056C85.4681 83.0027 85.6628 82.9307 85.8441 82.84C86.0308 82.744 86.2068 82.6293 86.3721 82.496C86.5428 82.3627 86.7081 82.2107 86.8681 82.04V80.352C86.2121 80.3733 85.6548 80.4267 85.1961 80.512C84.7375 80.592 84.3641 80.6987 84.0761 80.832C83.7881 80.9653 83.5775 81.1227 83.4441 81.304C83.3161 81.4853 83.2521 81.688 83.2521 81.912C83.2521 82.1253 83.2868 82.3093 83.3561 82.464C83.4255 82.6187 83.5188 82.7467 83.6361 82.848C83.7535 82.944 83.8921 83.016 84.0521 83.064C84.2121 83.1067 84.3855 83.128 84.5721 83.128ZM90.7455 84V75.896H91.5615C91.7162 75.896 91.8228 75.9253 91.8815 75.984C91.9402 76.0427 91.9802 76.144 92.0015 76.288L92.0975 77.552C92.3748 76.9867 92.7162 76.5467 93.1215 76.232C93.5322 75.912 94.0122 75.752 94.5615 75.752C94.7855 75.752 94.9882 75.7787 95.1695 75.832C95.3508 75.88 95.5188 75.9493 95.6735 76.04L95.4895 77.104C95.4522 77.2373 95.3695 77.304 95.2415 77.304C95.1668 77.304 95.0522 77.28 94.8975 77.232C94.7428 77.1787 94.5268 77.152 94.2495 77.152C93.7535 77.152 93.3375 77.296 93.0015 77.584C92.6708 77.872 92.3935 78.2907 92.1695 78.84V84H90.7455ZM103.174 84H102.542C102.403 84 102.291 83.9787 102.206 83.936C102.12 83.8933 102.064 83.8027 102.038 83.664L101.878 82.912C101.664 83.104 101.456 83.2773 101.254 83.432C101.051 83.5813 100.838 83.7093 100.614 83.816C100.39 83.9173 100.15 83.9947 99.8937 84.048C99.6431 84.1013 99.3631 84.128 99.0537 84.128C98.7391 84.128 98.4431 84.0853 98.1657 84C97.8937 83.9093 97.6564 83.776 97.4537 83.6C97.2511 83.424 97.0884 83.2027 96.9657 82.936C96.8484 82.664 96.7897 82.344 96.7897 81.976C96.7897 81.656 96.8777 81.3493 97.0537 81.056C97.2297 80.7573 97.5124 80.4933 97.9017 80.264C98.2964 80.0347 98.8111 79.848 99.4457 79.704C100.08 79.5547 100.856 79.4693 101.774 79.448V78.816C101.774 78.1867 101.638 77.712 101.366 77.392C101.099 77.0667 100.702 76.904 100.174 76.904C99.8271 76.904 99.5337 76.9493 99.2937 77.04C99.0591 77.1253 98.8537 77.224 98.6777 77.336C98.5071 77.4427 98.3577 77.5413 98.2297 77.632C98.1071 77.7173 97.9844 77.76 97.8617 77.76C97.7657 77.76 97.6804 77.736 97.6057 77.688C97.5364 77.6347 97.4804 77.5707 97.4377 77.496L97.1817 77.04C97.6297 76.608 98.1124 76.2853 98.6297 76.072C99.1471 75.8587 99.7204 75.752 100.35 75.752C100.803 75.752 101.206 75.8267 101.558 75.976C101.91 76.1253 102.206 76.3333 102.446 76.6C102.686 76.8667 102.867 77.1893 102.99 77.568C103.112 77.9467 103.174 78.3627 103.174 78.816V84ZM99.4777 83.128C99.7284 83.128 99.9577 83.104 100.166 83.056C100.374 83.0027 100.568 82.9307 100.75 82.84C100.936 82.744 101.112 82.6293 101.278 82.496C101.448 82.3627 101.614 82.2107 101.774 82.04V80.352C101.118 80.3733 100.56 80.4267 100.102 80.512C99.6431 80.592 99.2697 80.6987 98.9817 80.832C98.6937 80.9653 98.4831 81.1227 98.3497 81.304C98.2217 81.4853 98.1577 81.688 98.1577 81.912C98.1577 82.1253 98.1924 82.3093 98.2617 82.464C98.3311 82.6187 98.4244 82.7467 98.5417 82.848C98.6591 82.944 98.7977 83.016 98.9577 83.064C99.1177 83.1067 99.2911 83.128 99.4777 83.128ZM108.041 75.896H109.209C109.321 75.896 109.414 75.9253 109.489 75.984C109.564 76.0427 109.617 76.112 109.649 76.192L111.705 81.408C111.78 81.6 111.838 81.792 111.881 81.984C111.924 82.176 111.964 82.3653 112.001 82.552C112.044 82.3653 112.089 82.176 112.137 81.984C112.185 81.792 112.246 81.6 112.321 81.408L114.401 76.192C114.433 76.1067 114.484 76.0373 114.553 75.984C114.628 75.9253 114.718 75.896 114.825 75.896H115.937L112.633 84H111.345L108.041 75.896ZM119.156 75.896V84H117.732V75.896H119.156ZM120.82 72.408L118.956 74.472C118.882 74.552 118.807 74.6107 118.732 74.648C118.663 74.68 118.572 74.696 118.46 74.696H117.612L118.796 72.76C118.871 72.6373 118.951 72.5493 119.036 72.496C119.127 72.4373 119.258 72.408 119.428 72.408H120.82ZM124.442 84.128C123.802 84.128 123.309 83.9493 122.962 83.592C122.621 83.2347 122.45 82.72 122.45 82.048V77.088H121.474C121.389 77.088 121.317 77.064 121.258 77.016C121.199 76.9627 121.17 76.8827 121.17 76.776V76.208L122.498 76.04L122.826 73.536C122.837 73.456 122.871 73.392 122.93 73.344C122.989 73.2907 123.063 73.264 123.154 73.264H123.874V76.056H126.194V77.088H123.874V81.952C123.874 82.2933 123.957 82.5467 124.122 82.712C124.287 82.8773 124.501 82.96 124.762 82.96C124.911 82.96 125.039 82.9413 125.146 82.904C125.258 82.8613 125.354 82.816 125.434 82.768C125.514 82.72 125.581 82.6773 125.634 82.64C125.693 82.5973 125.743 82.576 125.786 82.576C125.861 82.576 125.927 82.6213 125.986 82.712L126.402 83.392C126.157 83.6213 125.861 83.8027 125.514 83.936C125.167 84.064 124.81 84.128 124.442 84.128ZM129.859 75.896V84H128.435V75.896H129.859ZM130.179 73.352C130.179 73.4907 130.15 73.6213 130.091 73.744C130.038 73.8613 129.963 73.968 129.867 74.064C129.776 74.1547 129.67 74.2267 129.547 74.28C129.424 74.3333 129.294 74.36 129.155 74.36C129.016 74.36 128.886 74.3333 128.763 74.28C128.646 74.2267 128.539 74.1547 128.443 74.064C128.352 73.968 128.28 73.8613 128.227 73.744C128.174 73.6213 128.147 73.4907 128.147 73.352C128.147 73.2133 128.174 73.0827 128.227 72.96C128.28 72.832 128.352 72.7227 128.443 72.632C128.539 72.536 128.646 72.4613 128.763 72.408C128.886 72.3547 129.016 72.328 129.155 72.328C129.294 72.328 129.424 72.3547 129.547 72.408C129.67 72.4613 129.776 72.536 129.867 72.632C129.963 72.7227 130.038 72.832 130.091 72.96C130.15 73.0827 130.179 73.2133 130.179 73.352ZM132.689 84V75.896H133.537C133.739 75.896 133.867 75.9947 133.921 76.192L134.025 77.024C134.323 76.656 134.657 76.3547 135.025 76.12C135.398 75.8853 135.83 75.768 136.321 75.768C136.87 75.768 137.313 75.92 137.649 76.224C137.99 76.528 138.235 76.9387 138.385 77.456C138.497 77.1627 138.643 76.9093 138.825 76.696C139.011 76.4827 139.219 76.3067 139.449 76.168C139.678 76.0293 139.921 75.928 140.177 75.864C140.438 75.8 140.702 75.768 140.969 75.768C141.395 75.768 141.774 75.8373 142.105 75.976C142.441 76.1093 142.723 76.3067 142.953 76.568C143.187 76.8293 143.366 77.152 143.489 77.536C143.611 77.9147 143.673 78.3493 143.673 78.84V84H142.249V78.84C142.249 78.2053 142.11 77.7253 141.833 77.4C141.555 77.0693 141.153 76.904 140.625 76.904C140.39 76.904 140.166 76.9467 139.953 77.032C139.745 77.112 139.561 77.232 139.401 77.392C139.241 77.552 139.113 77.7547 139.017 78C138.926 78.24 138.881 78.52 138.881 78.84V84H137.457V78.84C137.457 78.1893 137.326 77.704 137.065 77.384C136.803 77.064 136.422 76.904 135.921 76.904C135.569 76.904 135.241 77 134.937 77.192C134.638 77.3787 134.363 77.6347 134.113 77.96V84H132.689ZM152.101 84H151.469C151.331 84 151.219 83.9787 151.133 83.936C151.048 83.8933 150.992 83.8027 150.965 83.664L150.805 82.912C150.592 83.104 150.384 83.2773 150.181 83.432C149.979 83.5813 149.765 83.7093 149.541 83.816C149.317 83.9173 149.077 83.9947 148.821 84.048C148.571 84.1013 148.291 84.128 147.981 84.128C147.667 84.128 147.371 84.0853 147.093 84C146.821 83.9093 146.584 83.776 146.381 83.6C146.179 83.424 146.016 83.2027 145.893 82.936C145.776 82.664 145.717 82.344 145.717 81.976C145.717 81.656 145.805 81.3493 145.981 81.056C146.157 80.7573 146.44 80.4933 146.829 80.264C147.224 80.0347 147.739 79.848 148.373 79.704C149.008 79.5547 149.784 79.4693 150.701 79.448V78.816C150.701 78.1867 150.565 77.712 150.293 77.392C150.027 77.0667 149.629 76.904 149.101 76.904C148.755 76.904 148.461 76.9493 148.221 77.04C147.987 77.1253 147.781 77.224 147.605 77.336C147.435 77.4427 147.285 77.5413 147.157 77.632C147.035 77.7173 146.912 77.76 146.789 77.76C146.693 77.76 146.608 77.736 146.533 77.688C146.464 77.6347 146.408 77.5707 146.365 77.496L146.109 77.04C146.557 76.608 147.04 76.2853 147.557 76.072C148.075 75.8587 148.648 75.752 149.277 75.752C149.731 75.752 150.133 75.8267 150.485 75.976C150.837 76.1253 151.133 76.3333 151.373 76.6C151.613 76.8667 151.795 77.1893 151.917 77.568C152.04 77.9467 152.101 78.3627 152.101 78.816V84ZM148.405 83.128C148.656 83.128 148.885 83.104 149.093 83.056C149.301 83.0027 149.496 82.9307 149.677 82.84C149.864 82.744 150.04 82.6293 150.205 82.496C150.376 82.3627 150.541 82.2107 150.701 82.04V80.352C150.045 80.3733 149.488 80.4267 149.029 80.512C148.571 80.592 148.197 80.6987 147.909 80.832C147.621 80.9653 147.411 81.1227 147.277 81.304C147.149 81.4853 147.085 81.688 147.085 81.912C147.085 82.1253 147.12 82.3093 147.189 82.464C147.259 82.6187 147.352 82.7467 147.469 82.848C147.587 82.944 147.725 83.016 147.885 83.064C148.045 83.1067 148.219 83.128 148.405 83.128ZM159.219 77.232C159.155 77.3493 159.056 77.408 158.923 77.408C158.843 77.408 158.752 77.3787 158.651 77.32C158.549 77.2613 158.424 77.1973 158.275 77.128C158.131 77.0533 157.957 76.9867 157.755 76.928C157.552 76.864 157.312 76.832 157.035 76.832C156.795 76.832 156.579 76.864 156.387 76.928C156.195 76.9867 156.029 77.0693 155.891 77.176C155.757 77.2827 155.653 77.408 155.579 77.552C155.509 77.6907 155.475 77.8427 155.475 78.008C155.475 78.216 155.533 78.3893 155.651 78.528C155.773 78.6667 155.933 78.7867 156.131 78.888C156.328 78.9893 156.552 79.08 156.803 79.16C157.053 79.2347 157.309 79.3173 157.571 79.408C157.837 79.4933 158.096 79.5893 158.347 79.696C158.597 79.8027 158.821 79.936 159.019 80.096C159.216 80.256 159.373 80.4533 159.491 80.688C159.613 80.9173 159.675 81.1947 159.675 81.52C159.675 81.8933 159.608 82.24 159.475 82.56C159.341 82.8747 159.144 83.1493 158.883 83.384C158.621 83.6133 158.301 83.7947 157.923 83.928C157.544 84.0613 157.107 84.128 156.611 84.128C156.045 84.128 155.533 84.0373 155.075 83.856C154.616 83.6693 154.227 83.432 153.907 83.144L154.243 82.6C154.285 82.5307 154.336 82.4773 154.395 82.44C154.453 82.4027 154.531 82.384 154.627 82.384C154.723 82.384 154.824 82.4213 154.931 82.496C155.037 82.5707 155.165 82.6533 155.315 82.744C155.469 82.8347 155.653 82.9173 155.867 82.992C156.085 83.0667 156.357 83.104 156.683 83.104C156.96 83.104 157.203 83.0693 157.411 83C157.619 82.9253 157.792 82.8267 157.931 82.704C158.069 82.5813 158.171 82.44 158.235 82.28C158.304 82.12 158.339 81.9493 158.339 81.768C158.339 81.544 158.277 81.36 158.155 81.216C158.037 81.0667 157.88 80.9413 157.683 80.84C157.485 80.7333 157.259 80.6427 157.003 80.568C156.752 80.488 156.493 80.4053 156.227 80.32C155.965 80.2347 155.707 80.1387 155.451 80.032C155.2 79.92 154.976 79.7813 154.779 79.616C154.581 79.4507 154.421 79.248 154.299 79.008C154.181 78.7627 154.123 78.4667 154.123 78.12C154.123 77.8107 154.187 77.5147 154.315 77.232C154.443 76.944 154.629 76.6933 154.875 76.48C155.12 76.2613 155.421 76.088 155.779 75.96C156.136 75.832 156.544 75.768 157.003 75.768C157.536 75.768 158.013 75.8533 158.435 76.024C158.861 76.1893 159.229 76.4187 159.539 76.712L159.219 77.232ZM170.954 84C170.751 84 170.623 83.9013 170.57 83.704L170.442 82.72C170.095 83.1413 169.698 83.48 169.25 83.736C168.807 83.9867 168.298 84.112 167.722 84.112C167.258 84.112 166.837 84.024 166.458 83.848C166.079 83.6667 165.757 83.4027 165.49 83.056C165.223 82.7093 165.018 82.2773 164.874 81.76C164.73 81.2427 164.658 80.648 164.658 79.976C164.658 79.3787 164.738 78.824 164.898 78.312C165.058 77.7947 165.287 77.3467 165.586 76.968C165.89 76.5893 166.258 76.2933 166.69 76.08C167.122 75.8613 167.613 75.752 168.162 75.752C168.658 75.752 169.082 75.8373 169.434 76.008C169.786 76.1733 170.101 76.408 170.378 76.712V72.216H171.802V84H170.954ZM168.194 82.96C168.658 82.96 169.063 82.8533 169.41 82.64C169.762 82.4267 170.085 82.1253 170.378 81.736V77.816C170.117 77.464 169.829 77.2187 169.514 77.08C169.205 76.936 168.861 76.864 168.482 76.864C167.725 76.864 167.143 77.1333 166.738 77.672C166.333 78.2107 166.13 78.9787 166.13 79.976C166.13 80.504 166.175 80.9573 166.266 81.336C166.357 81.7093 166.49 82.0187 166.666 82.264C166.842 82.504 167.058 82.68 167.314 82.792C167.57 82.904 167.863 82.96 168.194 82.96ZM177.715 75.768C178.201 75.768 178.649 75.8507 179.059 76.016C179.47 76.176 179.825 76.4107 180.123 76.72C180.422 77.024 180.654 77.4027 180.819 77.856C180.99 78.304 181.075 78.816 181.075 79.392C181.075 79.616 181.051 79.7653 181.003 79.84C180.955 79.9147 180.865 79.952 180.731 79.952H175.339C175.35 80.464 175.419 80.9093 175.547 81.288C175.675 81.6667 175.851 81.984 176.075 82.24C176.299 82.4907 176.566 82.68 176.875 82.808C177.185 82.9307 177.531 82.992 177.915 82.992C178.273 82.992 178.579 82.952 178.835 82.872C179.097 82.7867 179.321 82.696 179.507 82.6C179.694 82.504 179.849 82.416 179.971 82.336C180.099 82.2507 180.209 82.208 180.299 82.208C180.417 82.208 180.507 82.2533 180.571 82.344L180.971 82.864C180.795 83.0773 180.585 83.264 180.339 83.424C180.094 83.5787 179.83 83.7067 179.547 83.808C179.27 83.9093 178.982 83.984 178.683 84.032C178.385 84.0853 178.089 84.112 177.795 84.112C177.235 84.112 176.718 84.0187 176.243 83.832C175.774 83.64 175.366 83.3627 175.019 83C174.678 82.632 174.411 82.1787 174.219 81.64C174.027 81.1013 173.931 80.4827 173.931 79.784C173.931 79.2187 174.017 78.6907 174.187 78.2C174.363 77.7093 174.614 77.2853 174.939 76.928C175.265 76.5653 175.662 76.2827 176.131 76.08C176.601 75.872 177.129 75.768 177.715 75.768ZM177.747 76.816C177.059 76.816 176.518 77.016 176.123 77.416C175.729 77.8107 175.483 78.36 175.387 79.064H179.795C179.795 78.7333 179.75 78.432 179.659 78.16C179.569 77.8827 179.435 77.6453 179.259 77.448C179.083 77.2453 178.867 77.0907 178.611 76.984C178.361 76.872 178.073 76.816 177.747 76.816ZM189.84 75.768C190.325 75.768 190.773 75.8507 191.184 76.016C191.594 76.176 191.949 76.4107 192.248 76.72C192.546 77.024 192.778 77.4027 192.944 77.856C193.114 78.304 193.2 78.816 193.2 79.392C193.2 79.616 193.176 79.7653 193.128 79.84C193.08 79.9147 192.989 79.952 192.856 79.952H187.464C187.474 80.464 187.544 80.9093 187.672 81.288C187.8 81.6667 187.976 81.984 188.2 82.24C188.424 82.4907 188.69 82.68 189 82.808C189.309 82.9307 189.656 82.992 190.04 82.992C190.397 82.992 190.704 82.952 190.96 82.872C191.221 82.7867 191.445 82.696 191.632 82.6C191.818 82.504 191.973 82.416 192.096 82.336C192.224 82.2507 192.333 82.208 192.424 82.208C192.541 82.208 192.632 82.2533 192.696 82.344L193.096 82.864C192.92 83.0773 192.709 83.264 192.464 83.424C192.218 83.5787 191.954 83.7067 191.672 83.808C191.394 83.9093 191.106 83.984 190.808 84.032C190.509 84.0853 190.213 84.112 189.92 84.112C189.36 84.112 188.842 84.0187 188.368 83.832C187.898 83.64 187.49 83.3627 187.144 83C186.802 82.632 186.536 82.1787 186.344 81.64C186.152 81.1013 186.056 80.4827 186.056 79.784C186.056 79.2187 186.141 78.6907 186.312 78.2C186.488 77.7093 186.738 77.2853 187.064 76.928C187.389 76.5653 187.786 76.2827 188.256 76.08C188.725 75.872 189.253 75.768 189.84 75.768ZM189.872 76.816C189.184 76.816 188.642 77.016 188.248 77.416C187.853 77.8107 187.608 78.36 187.512 79.064H191.92C191.92 78.7333 191.874 78.432 191.784 78.16C191.693 77.8827 191.56 77.6453 191.384 77.448C191.208 77.2453 190.992 77.0907 190.736 76.984C190.485 76.872 190.197 76.816 189.872 76.816ZM195.342 84V75.896H196.19C196.393 75.896 196.521 75.9947 196.574 76.192L196.678 77.024C196.977 76.656 197.31 76.3547 197.678 76.12C198.052 75.8853 198.484 75.768 198.974 75.768C199.524 75.768 199.966 75.92 200.302 76.224C200.644 76.528 200.889 76.9387 201.038 77.456C201.15 77.1627 201.297 76.9093 201.478 76.696C201.665 76.4827 201.873 76.3067 202.102 76.168C202.332 76.0293 202.574 75.928 202.83 75.864C203.092 75.8 203.356 75.768 203.622 75.768C204.049 75.768 204.428 75.8373 204.758 75.976C205.094 76.1093 205.377 76.3067 205.606 76.568C205.841 76.8293 206.02 77.152 206.142 77.536C206.265 77.9147 206.326 78.3493 206.326 78.84V84H204.902V78.84C204.902 78.2053 204.764 77.7253 204.486 77.4C204.209 77.0693 203.806 76.904 203.278 76.904C203.044 76.904 202.82 76.9467 202.606 77.032C202.398 77.112 202.214 77.232 202.054 77.392C201.894 77.552 201.766 77.7547 201.67 78C201.58 78.24 201.534 78.52 201.534 78.84V84H200.11V78.84C200.11 78.1893 199.98 77.704 199.718 77.384C199.457 77.064 199.076 76.904 198.574 76.904C198.222 76.904 197.894 77 197.59 77.192C197.292 77.3787 197.017 77.6347 196.766 77.96V84H195.342ZM212.011 75.768C212.496 75.768 212.944 75.8507 213.355 76.016C213.766 76.176 214.12 76.4107 214.419 76.72C214.718 77.024 214.95 77.4027 215.115 77.856C215.286 78.304 215.371 78.816 215.371 79.392C215.371 79.616 215.347 79.7653 215.299 79.84C215.251 79.9147 215.16 79.952 215.027 79.952H209.635C209.646 80.464 209.715 80.9093 209.843 81.288C209.971 81.6667 210.147 81.984 210.371 82.24C210.595 82.4907 210.862 82.68 211.171 82.808C211.48 82.9307 211.827 82.992 212.211 82.992C212.568 82.992 212.875 82.952 213.131 82.872C213.392 82.7867 213.616 82.696 213.803 82.6C213.99 82.504 214.144 82.416 214.267 82.336C214.395 82.2507 214.504 82.208 214.595 82.208C214.712 82.208 214.803 82.2533 214.867 82.344L215.267 82.864C215.091 83.0773 214.88 83.264 214.635 83.424C214.39 83.5787 214.126 83.7067 213.843 83.808C213.566 83.9093 213.278 83.984 212.979 84.032C212.68 84.0853 212.384 84.112 212.091 84.112C211.531 84.112 211.014 84.0187 210.539 83.832C210.07 83.64 209.662 83.3627 209.315 83C208.974 82.632 208.707 82.1787 208.515 81.64C208.323 81.1013 208.227 80.4827 208.227 79.784C208.227 79.2187 208.312 78.6907 208.483 78.2C208.659 77.7093 208.91 77.2853 209.235 76.928C209.56 76.5653 209.958 76.2827 210.427 76.08C210.896 75.872 211.424 75.768 212.011 75.768ZM212.043 76.816C211.355 76.816 210.814 77.016 210.419 77.416C210.024 77.8107 209.779 78.36 209.683 79.064H214.091C214.091 78.7333 214.046 78.432 213.955 78.16C213.864 77.8827 213.731 77.6453 213.555 77.448C213.379 77.2453 213.163 77.0907 212.907 76.984C212.656 76.872 212.368 76.816 212.043 76.816ZM217.514 84V75.896H218.33C218.484 75.896 218.591 75.9253 218.65 75.984C218.708 76.0427 218.748 76.144 218.77 76.288L218.866 77.552C219.143 76.9867 219.484 76.5467 219.89 76.232C220.3 75.912 220.78 75.752 221.33 75.752C221.554 75.752 221.756 75.7787 221.938 75.832C222.119 75.88 222.287 75.9493 222.442 76.04L222.258 77.104C222.22 77.2373 222.138 77.304 222.01 77.304C221.935 77.304 221.82 77.28 221.666 77.232C221.511 77.1787 221.295 77.152 221.018 77.152C220.522 77.152 220.106 77.296 219.77 77.584C219.439 77.872 219.162 78.2907 218.938 78.84V84H217.514ZM227.015 75.76C227.367 75.76 227.695 75.8 227.999 75.88C228.308 75.9547 228.588 76.0667 228.839 76.216H231.039V76.744C231.039 76.92 230.927 77.032 230.703 77.08L229.783 77.208C229.964 77.5547 230.055 77.9413 230.055 78.368C230.055 78.7627 229.977 79.1227 229.823 79.448C229.673 79.768 229.463 80.0427 229.191 80.272C228.924 80.5013 228.604 80.6773 228.231 80.8C227.863 80.9227 227.457 80.984 227.015 80.984C226.636 80.984 226.279 80.9387 225.943 80.848C225.772 80.9547 225.641 81.0693 225.551 81.192C225.465 81.3147 225.423 81.4347 225.423 81.552C225.423 81.744 225.5 81.8907 225.655 81.992C225.809 82.088 226.015 82.1573 226.271 82.2C226.527 82.2427 226.817 82.2693 227.143 82.28C227.468 82.2907 227.799 82.3093 228.135 82.336C228.476 82.3573 228.809 82.3973 229.135 82.456C229.46 82.5147 229.751 82.6107 230.007 82.744C230.263 82.8773 230.468 83.0613 230.623 83.296C230.777 83.5307 230.855 83.8347 230.855 84.208C230.855 84.5547 230.767 84.8907 230.591 85.216C230.42 85.5413 230.172 85.8293 229.847 86.08C229.521 86.336 229.124 86.5387 228.655 86.688C228.185 86.8427 227.655 86.92 227.063 86.92C226.471 86.92 225.951 86.8613 225.503 86.744C225.06 86.6267 224.692 86.4693 224.399 86.272C224.105 86.0747 223.884 85.8453 223.735 85.584C223.591 85.328 223.519 85.0587 223.519 84.776C223.519 84.376 223.644 84.0373 223.895 83.76C224.151 83.4773 224.5 83.2533 224.943 83.088C224.713 82.9813 224.529 82.84 224.391 82.664C224.257 82.4827 224.191 82.2427 224.191 81.944C224.191 81.8267 224.212 81.7067 224.255 81.584C224.297 81.456 224.361 81.3307 224.447 81.208C224.537 81.0853 224.647 80.968 224.775 80.856C224.903 80.744 225.052 80.6453 225.223 80.56C224.823 80.336 224.508 80.04 224.279 79.672C224.055 79.2987 223.943 78.864 223.943 78.368C223.943 77.9733 224.017 77.616 224.167 77.296C224.321 76.9707 224.535 76.696 224.807 76.472C225.079 76.2427 225.401 76.0667 225.775 75.944C226.153 75.8213 226.567 75.76 227.015 75.76ZM229.543 84.44C229.543 84.2373 229.487 84.0747 229.375 83.952C229.263 83.8293 229.111 83.736 228.919 83.672C228.727 83.6027 228.505 83.552 228.255 83.52C228.004 83.488 227.74 83.4667 227.463 83.456C227.185 83.44 226.903 83.424 226.615 83.408C226.327 83.392 226.052 83.3627 225.791 83.32C225.487 83.464 225.239 83.64 225.047 83.848C224.86 84.056 224.767 84.304 224.767 84.592C224.767 84.7733 224.812 84.9413 224.903 85.096C224.999 85.256 225.143 85.392 225.335 85.504C225.527 85.6213 225.767 85.712 226.055 85.776C226.348 85.8453 226.692 85.88 227.087 85.88C227.471 85.88 227.815 85.8453 228.119 85.776C228.423 85.7067 228.679 85.608 228.887 85.48C229.1 85.352 229.263 85.2 229.375 85.024C229.487 84.848 229.543 84.6533 229.543 84.44ZM227.015 80.04C227.303 80.04 227.556 80 227.775 79.92C227.999 79.84 228.185 79.728 228.335 79.584C228.484 79.44 228.596 79.2693 228.671 79.072C228.745 78.8693 228.783 78.648 228.783 78.408C228.783 77.912 228.631 77.5173 228.327 77.224C228.028 76.9307 227.591 76.784 227.015 76.784C226.444 76.784 226.007 76.9307 225.703 77.224C225.404 77.5173 225.255 77.912 225.255 78.408C225.255 78.648 225.292 78.8693 225.367 79.072C225.447 79.2693 225.561 79.44 225.711 79.584C225.86 79.728 226.044 79.84 226.263 79.92C226.481 80 226.732 80.04 227.015 80.04ZM235.987 75.768C236.472 75.768 236.92 75.8507 237.331 76.016C237.741 76.176 238.096 76.4107 238.395 76.72C238.693 77.024 238.925 77.4027 239.091 77.856C239.261 78.304 239.347 78.816 239.347 79.392C239.347 79.616 239.323 79.7653 239.275 79.84C239.227 79.9147 239.136 79.952 239.003 79.952H233.611C233.621 80.464 233.691 80.9093 233.819 81.288C233.947 81.6667 234.123 81.984 234.347 82.24C234.571 82.4907 234.837 82.68 235.147 82.808C235.456 82.9307 235.803 82.992 236.187 82.992C236.544 82.992 236.851 82.952 237.107 82.872C237.368 82.7867 237.592 82.696 237.779 82.6C237.965 82.504 238.12 82.416 238.243 82.336C238.371 82.2507 238.48 82.208 238.571 82.208C238.688 82.208 238.779 82.2533 238.843 82.344L239.243 82.864C239.067 83.0773 238.856 83.264 238.611 83.424C238.365 83.5787 238.101 83.7067 237.819 83.808C237.541 83.9093 237.253 83.984 236.955 84.032C236.656 84.0853 236.36 84.112 236.067 84.112C235.507 84.112 234.989 84.0187 234.515 83.832C234.045 83.64 233.637 83.3627 233.291 83C232.949 82.632 232.683 82.1787 232.491 81.64C232.299 81.1013 232.203 80.4827 232.203 79.784C232.203 79.2187 232.288 78.6907 232.459 78.2C232.635 77.7093 232.885 77.2853 233.211 76.928C233.536 76.5653 233.933 76.2827 234.403 76.08C234.872 75.872 235.4 75.768 235.987 75.768ZM236.019 76.816C235.331 76.816 234.789 77.016 234.395 77.416C234 77.8107 233.755 78.36 233.659 79.064H238.067C238.067 78.7333 238.021 78.432 237.931 78.16C237.84 77.8827 237.707 77.6453 237.531 77.448C237.355 77.2453 237.139 77.0907 236.883 76.984C236.632 76.872 236.344 76.816 236.019 76.816ZM238.459 74.648H237.507C237.395 74.648 237.288 74.6107 237.187 74.536L236.163 73.528L236.027 73.392L235.899 73.528L234.867 74.536C234.835 74.5627 234.789 74.5893 234.731 74.616C234.672 74.6373 234.611 74.648 234.547 74.648H233.563L235.347 72.536H236.675L238.459 74.648ZM241.489 84V75.896H242.337C242.54 75.896 242.668 75.9947 242.721 76.192L242.833 77.072C243.185 76.6827 243.577 76.368 244.009 76.128C244.447 75.888 244.951 75.768 245.521 75.768C245.964 75.768 246.353 75.8427 246.689 75.992C247.031 76.136 247.313 76.344 247.537 76.616C247.767 76.8827 247.94 77.2053 248.057 77.584C248.175 77.9627 248.233 78.3813 248.233 78.84V84H246.809V78.84C246.809 78.2267 246.668 77.752 246.385 77.416C246.108 77.0747 245.681 76.904 245.105 76.904C244.684 76.904 244.289 77.0053 243.921 77.208C243.559 77.4107 243.223 77.6853 242.913 78.032V84H241.489ZM256.228 77.336C256.185 77.3947 256.143 77.44 256.1 77.472C256.057 77.504 255.996 77.52 255.916 77.52C255.836 77.52 255.748 77.488 255.652 77.424C255.561 77.3547 255.444 77.28 255.3 77.2C255.156 77.12 254.98 77.048 254.772 76.984C254.569 76.9147 254.319 76.88 254.02 76.88C253.625 76.88 253.276 76.952 252.972 77.096C252.668 77.2347 252.412 77.4373 252.204 77.704C252.001 77.9707 251.847 78.2933 251.74 78.672C251.639 79.0507 251.588 79.4747 251.588 79.944C251.588 80.4347 251.644 80.872 251.756 81.256C251.868 81.6347 252.025 81.9547 252.228 82.216C252.431 82.472 252.676 82.6693 252.964 82.808C253.257 82.9413 253.585 83.008 253.948 83.008C254.295 83.008 254.58 82.968 254.804 82.888C255.028 82.8027 255.215 82.7093 255.364 82.608C255.513 82.5067 255.636 82.416 255.732 82.336C255.828 82.2507 255.924 82.208 256.02 82.208C256.143 82.208 256.233 82.2533 256.292 82.344L256.692 82.864C256.34 83.296 255.9 83.6133 255.372 83.816C254.844 84.0133 254.287 84.112 253.7 84.112C253.193 84.112 252.721 84.0187 252.284 83.832C251.852 83.6453 251.476 83.376 251.156 83.024C250.836 82.6667 250.583 82.2293 250.396 81.712C250.215 81.1947 250.124 80.6053 250.124 79.944C250.124 79.3413 250.207 78.784 250.372 78.272C250.543 77.76 250.788 77.32 251.108 76.952C251.433 76.5787 251.833 76.288 252.308 76.08C252.783 75.872 253.327 75.768 253.94 75.768C254.505 75.768 255.007 75.8613 255.444 76.048C255.881 76.2293 256.268 76.488 256.604 76.824L256.228 77.336ZM260.073 75.896V84H258.649V75.896H260.073ZM260.393 73.352C260.393 73.4907 260.363 73.6213 260.305 73.744C260.251 73.8613 260.177 73.968 260.081 74.064C259.99 74.1547 259.883 74.2267 259.761 74.28C259.638 74.3333 259.507 74.36 259.369 74.36C259.23 74.36 259.099 74.3333 258.977 74.28C258.859 74.2267 258.753 74.1547 258.657 74.064C258.566 73.968 258.494 73.8613 258.441 73.744C258.387 73.6213 258.361 73.4907 258.361 73.352C258.361 73.2133 258.387 73.0827 258.441 72.96C258.494 72.832 258.566 72.7227 258.657 72.632C258.753 72.536 258.859 72.4613 258.977 72.408C259.099 72.3547 259.23 72.328 259.369 72.328C259.507 72.328 259.638 72.3547 259.761 72.408C259.883 72.4613 259.99 72.536 260.081 72.632C260.177 72.7227 260.251 72.832 260.305 72.96C260.363 73.0827 260.393 73.2133 260.393 73.352ZM268.854 84H268.222C268.084 84 267.972 83.9787 267.886 83.936C267.801 83.8933 267.745 83.8027 267.718 83.664L267.558 82.912C267.345 83.104 267.137 83.2773 266.934 83.432C266.732 83.5813 266.518 83.7093 266.294 83.816C266.07 83.9173 265.83 83.9947 265.574 84.048C265.324 84.1013 265.044 84.128 264.734 84.128C264.42 84.128 264.124 84.0853 263.846 84C263.574 83.9093 263.337 83.776 263.134 83.6C262.932 83.424 262.769 83.2027 262.646 82.936C262.529 82.664 262.47 82.344 262.47 81.976C262.47 81.656 262.558 81.3493 262.734 81.056C262.91 80.7573 263.193 80.4933 263.582 80.264C263.977 80.0347 264.492 79.848 265.126 79.704C265.761 79.5547 266.537 79.4693 267.454 79.448V78.816C267.454 78.1867 267.318 77.712 267.046 77.392C266.78 77.0667 266.382 76.904 265.854 76.904C265.508 76.904 265.214 76.9493 264.974 77.04C264.74 77.1253 264.534 77.224 264.358 77.336C264.188 77.4427 264.038 77.5413 263.91 77.632C263.788 77.7173 263.665 77.76 263.542 77.76C263.446 77.76 263.361 77.736 263.286 77.688C263.217 77.6347 263.161 77.5707 263.118 77.496L262.862 77.04C263.31 76.608 263.793 76.2853 264.31 76.072C264.828 75.8587 265.401 75.752 266.03 75.752C266.484 75.752 266.886 75.8267 267.238 75.976C267.59 76.1253 267.886 76.3333 268.126 76.6C268.366 76.8667 268.548 77.1893 268.67 77.568C268.793 77.9467 268.854 78.3627 268.854 78.816V84ZM265.158 83.128C265.409 83.128 265.638 83.104 265.846 83.056C266.054 83.0027 266.249 82.9307 266.43 82.84C266.617 82.744 266.793 82.6293 266.958 82.496C267.129 82.3627 267.294 82.2107 267.454 82.04V80.352C266.798 80.3733 266.241 80.4267 265.782 80.512C265.324 80.592 264.95 80.6987 264.662 80.832C264.374 80.9653 264.164 81.1227 264.03 81.304C263.902 81.4853 263.838 81.688 263.838 81.912C263.838 82.1253 263.873 82.3093 263.942 82.464C264.012 82.6187 264.105 82.7467 264.222 82.848C264.34 82.944 264.478 83.016 264.638 83.064C264.798 83.1067 264.972 83.128 265.158 83.128Z" fill="#FFE1CC"/>
<path d="M89.2 35.024H83.28V41.392H79.248V35.024H73.36V31.472H79.248V25.136H83.28V31.472H89.2V35.024ZM92.6105 27.344C92.7812 26.1813 93.1065 25.168 93.5865 24.304C94.0772 23.44 94.6798 22.72 95.3945 22.144C96.1198 21.568 96.9465 21.1413 97.8745 20.864C98.8025 20.576 99.7998 20.432 100.866 20.432C102.018 20.432 103.042 20.5973 103.939 20.928C104.835 21.248 105.592 21.6853 106.21 22.24C106.829 22.7947 107.299 23.44 107.618 24.176C107.938 24.9013 108.098 25.6693 108.098 26.48C108.098 27.216 108.024 27.8667 107.875 28.432C107.725 28.9867 107.501 29.472 107.202 29.888C106.914 30.2933 106.552 30.64 106.115 30.928C105.688 31.2053 105.197 31.44 104.642 31.632C107.224 32.5387 108.514 34.2987 108.514 36.912C108.514 38.1493 108.291 39.2267 107.843 40.144C107.395 41.0613 106.792 41.824 106.035 42.432C105.288 43.04 104.419 43.4987 103.427 43.808C102.434 44.1067 101.4 44.256 100.323 44.256C99.2132 44.256 98.2265 44.1387 97.3625 43.904C96.4985 43.6587 95.7305 43.2853 95.0585 42.784C94.3865 42.272 93.7945 41.6213 93.2825 40.832C92.7812 40.0427 92.3438 39.104 91.9705 38.016L94.1785 37.12C94.7545 36.896 95.2878 36.8373 95.7785 36.944C96.2692 37.0507 96.6212 37.296 96.8345 37.68C97.3145 38.5653 97.8212 39.2107 98.3545 39.616C98.8985 40.0107 99.5332 40.208 100.259 40.208C100.813 40.208 101.293 40.1173 101.698 39.936C102.115 39.744 102.456 39.504 102.722 39.216C103 38.9173 103.208 38.5813 103.347 38.208C103.485 37.8347 103.554 37.456 103.554 37.072C103.554 36.5707 103.517 36.1227 103.443 35.728C103.379 35.3227 103.187 34.976 102.866 34.688C102.547 34.4 102.061 34.1813 101.41 34.032C100.77 33.872 99.8745 33.792 98.7225 33.792V30.368C99.6932 30.368 100.477 30.2933 101.075 30.144C101.672 29.9947 102.13 29.792 102.45 29.536C102.781 29.2693 103 28.9493 103.106 28.576C103.213 28.2027 103.266 27.792 103.266 27.344C103.266 26.4267 103.042 25.7227 102.594 25.232C102.157 24.7307 101.485 24.48 100.578 24.48C99.8425 24.48 99.2185 24.6773 98.7065 25.072C98.2052 25.456 97.8585 25.936 97.6665 26.512C97.4425 27.0987 97.1492 27.488 96.7865 27.68C96.4238 27.872 95.9065 27.9147 95.2345 27.808L92.6105 27.344ZM128.325 32.336C128.325 34.3733 128.106 36.1387 127.669 37.632C127.232 39.1253 126.624 40.3627 125.845 41.344C125.077 42.3253 124.16 43.056 123.093 43.536C122.037 44.016 120.89 44.256 119.653 44.256C118.416 44.256 117.269 44.016 116.213 43.536C115.168 43.056 114.261 42.3253 113.493 41.344C112.725 40.3627 112.122 39.1253 111.685 37.632C111.258 36.1387 111.045 34.3733 111.045 32.336C111.045 30.2987 111.258 28.5333 111.685 27.04C112.122 25.5467 112.725 24.3093 113.493 23.328C114.261 22.3467 115.168 21.6213 116.213 21.152C117.269 20.672 118.416 20.432 119.653 20.432C120.89 20.432 122.037 20.672 123.093 21.152C124.16 21.6213 125.077 22.3467 125.845 23.328C126.624 24.3093 127.232 25.5467 127.669 27.04C128.106 28.5333 128.325 30.2987 128.325 32.336ZM123.205 32.336C123.205 30.7253 123.104 29.408 122.901 28.384C122.698 27.3493 122.426 26.5387 122.085 25.952C121.754 25.3653 121.376 24.9653 120.949 24.752C120.522 24.528 120.09 24.416 119.653 24.416C119.216 24.416 118.784 24.528 118.357 24.752C117.941 24.9653 117.568 25.3653 117.237 25.952C116.917 26.5387 116.656 27.3493 116.453 28.384C116.261 29.408 116.165 30.7253 116.165 32.336C116.165 33.9573 116.261 35.28 116.453 36.304C116.656 37.328 116.917 38.1387 117.237 38.736C117.568 39.3227 117.941 39.728 118.357 39.952C118.784 40.1653 119.216 40.272 119.653 40.272C120.09 40.272 120.522 40.1653 120.949 39.952C121.376 39.728 121.754 39.3227 122.085 38.736C122.426 38.1387 122.698 37.328 122.901 36.304C123.104 35.28 123.205 33.9573 123.205 32.336ZM139.334 44V27.408H142.406C143.024 27.408 143.43 27.6853 143.622 28.24L143.894 29.136C144.171 28.848 144.459 28.5867 144.758 28.352C145.056 28.1067 145.376 27.8987 145.718 27.728C146.07 27.5467 146.443 27.408 146.838 27.312C147.243 27.2053 147.686 27.152 148.166 27.152C149.168 27.152 149.995 27.4133 150.646 27.936C151.307 28.448 151.808 29.136 152.15 30C152.427 29.488 152.763 29.0507 153.158 28.688C153.563 28.3253 153.995 28.032 154.454 27.808C154.923 27.584 155.414 27.4187 155.926 27.312C156.448 27.2053 156.966 27.152 157.478 27.152C158.427 27.152 159.27 27.296 160.006 27.584C160.742 27.8613 161.355 28.272 161.846 28.816C162.347 29.3493 162.726 30.0107 162.982 30.8C163.238 31.5787 163.366 32.464 163.366 33.456V44H158.406V33.456C158.406 31.7387 157.67 30.88 156.198 30.88C155.526 30.88 154.966 31.104 154.518 31.552C154.08 31.9893 153.862 32.624 153.862 33.456V44H148.902V33.456C148.902 32.5067 148.715 31.84 148.342 31.456C147.968 31.072 147.419 30.88 146.694 30.88C146.246 30.88 145.819 30.9813 145.414 31.184C145.019 31.3867 144.646 31.6587 144.294 32V44H139.334ZM172.264 27.408V44H167.304V27.408H172.264ZM172.776 22.864C172.776 23.2587 172.696 23.632 172.536 23.984C172.376 24.3253 172.158 24.6293 171.88 24.896C171.603 25.152 171.278 25.36 170.904 25.52C170.542 25.6693 170.152 25.744 169.736 25.744C169.331 25.744 168.952 25.6693 168.6 25.52C168.248 25.36 167.934 25.152 167.656 24.896C167.39 24.6293 167.176 24.3253 167.016 23.984C166.867 23.632 166.792 23.2587 166.792 22.864C166.792 22.4587 166.867 22.08 167.016 21.728C167.176 21.376 167.39 21.0667 167.656 20.8C167.934 20.5333 168.248 20.3253 168.6 20.176C168.952 20.0267 169.331 19.952 169.736 19.952C170.152 19.952 170.542 20.0267 170.904 20.176C171.278 20.3253 171.603 20.5333 171.88 20.8C172.158 21.0667 172.376 21.376 172.536 21.728C172.696 22.08 172.776 22.4587 172.776 22.864ZM181.324 20.048V44H176.364V20.048H181.324ZM190.276 28.864C190.874 28.352 191.519 27.9413 192.212 27.632C192.916 27.312 193.754 27.152 194.724 27.152C195.631 27.152 196.431 27.312 197.124 27.632C197.828 27.9413 198.42 28.3787 198.9 28.944C199.38 29.4987 199.743 30.1653 199.988 30.944C200.234 31.712 200.356 32.5493 200.356 33.456V44H195.396V33.456C195.396 32.6453 195.21 32.016 194.836 31.568C194.463 31.1093 193.914 30.88 193.188 30.88C192.644 30.88 192.132 30.9973 191.652 31.232C191.183 31.456 190.724 31.7653 190.276 32.16V44H185.316V20.048H190.276V28.864ZM211.854 27.152C213.113 27.152 214.26 27.3493 215.294 27.744C216.329 28.1387 217.214 28.704 217.95 29.44C218.697 30.176 219.273 31.072 219.678 32.128C220.094 33.1733 220.302 34.352 220.302 35.664C220.302 36.9867 220.094 38.1813 219.678 39.248C219.273 40.304 218.697 41.2053 217.95 41.952C217.214 42.688 216.329 43.2587 215.294 43.664C214.26 44.0587 213.113 44.256 211.854 44.256C210.585 44.256 209.428 44.0587 208.382 43.664C207.348 43.2587 206.452 42.688 205.694 41.952C204.948 41.2053 204.366 40.304 203.95 39.248C203.545 38.1813 203.342 36.9867 203.342 35.664C203.342 34.352 203.545 33.1733 203.95 32.128C204.366 31.072 204.948 30.176 205.694 29.44C206.452 28.704 207.348 28.1387 208.382 27.744C209.428 27.3493 210.585 27.152 211.854 27.152ZM211.854 40.576C212.996 40.576 213.833 40.176 214.366 39.376C214.91 38.5653 215.182 37.3387 215.182 35.696C215.182 34.0533 214.91 32.832 214.366 32.032C213.833 31.232 212.996 30.832 211.854 30.832C210.681 30.832 209.822 31.232 209.278 32.032C208.734 32.832 208.462 34.0533 208.462 35.696C208.462 37.3387 208.734 38.5653 209.278 39.376C209.822 40.176 210.681 40.576 211.854 40.576ZM213.518 21.808C213.774 21.808 213.982 21.744 214.142 21.616C214.302 21.4773 214.382 21.1893 214.382 20.752H217.39C217.39 21.424 217.294 22.032 217.102 22.576C216.921 23.1093 216.665 23.568 216.334 23.952C216.004 24.3253 215.614 24.6133 215.166 24.816C214.718 25.0187 214.233 25.12 213.71 25.12C213.316 25.12 212.948 25.0613 212.606 24.944C212.265 24.816 211.945 24.6773 211.646 24.528C211.358 24.3787 211.092 24.2453 210.846 24.128C210.612 24 210.404 23.936 210.222 23.936C209.966 23.936 209.764 24.0107 209.614 24.16C209.465 24.2987 209.39 24.5867 209.39 25.024H206.35C206.35 24.352 206.446 23.7493 206.638 23.216C206.83 22.672 207.092 22.208 207.422 21.824C207.753 21.44 208.142 21.1467 208.59 20.944C209.038 20.7307 209.518 20.624 210.03 20.624C210.425 20.624 210.793 20.688 211.134 20.816C211.486 20.9333 211.806 21.0667 212.094 21.216C212.382 21.3653 212.644 21.504 212.878 21.632C213.124 21.7493 213.337 21.808 213.518 21.808ZM233.76 33.712C233.76 33.3173 233.707 32.9333 233.6 32.56C233.504 32.1867 233.339 31.856 233.104 31.568C232.88 31.2693 232.581 31.0293 232.208 30.848C231.835 30.6667 231.381 30.576 230.848 30.576C229.909 30.576 229.173 30.848 228.64 31.392C228.107 31.9253 227.755 32.6987 227.584 33.712H233.76ZM227.52 36.592C227.68 37.9787 228.101 38.9867 228.784 39.616C229.467 40.2347 230.347 40.544 231.424 40.544C232 40.544 232.496 40.4747 232.912 40.336C233.328 40.1973 233.696 40.0427 234.016 39.872C234.347 39.7013 234.645 39.5467 234.912 39.408C235.189 39.2693 235.477 39.2 235.776 39.2C236.171 39.2 236.469 39.344 236.672 39.632L238.112 41.408C237.6 41.9947 237.045 42.4747 236.448 42.848C235.861 43.2107 235.253 43.4987 234.624 43.712C234.005 43.9147 233.381 44.0533 232.752 44.128C232.133 44.2133 231.541 44.256 230.976 44.256C229.813 44.256 228.72 44.0693 227.696 43.696C226.683 43.312 225.792 42.7467 225.024 42C224.267 41.2533 223.664 40.3253 223.216 39.216C222.779 38.1067 222.56 36.816 222.56 35.344C222.56 34.2347 222.747 33.184 223.12 32.192C223.504 31.2 224.048 30.3307 224.752 29.584C225.467 28.8373 226.325 28.2453 227.328 27.808C228.341 27.3707 229.483 27.152 230.752 27.152C231.851 27.152 232.853 27.3227 233.76 27.664C234.677 28.0053 235.461 28.5013 236.112 29.152C236.773 29.8027 237.285 30.6027 237.648 31.552C238.021 32.4907 238.208 33.5573 238.208 34.752C238.208 35.1253 238.192 35.4293 238.16 35.664C238.128 35.8987 238.069 36.0853 237.984 36.224C237.899 36.3627 237.781 36.4587 237.632 36.512C237.493 36.5653 237.312 36.592 237.088 36.592H227.52ZM251.874 31.04C251.746 31.2427 251.607 31.3867 251.458 31.472C251.319 31.5573 251.138 31.6 250.914 31.6C250.679 31.6 250.445 31.552 250.21 31.456C249.975 31.3493 249.719 31.2373 249.442 31.12C249.175 31.0027 248.871 30.896 248.53 30.8C248.189 30.6933 247.799 30.64 247.362 30.64C246.733 30.64 246.247 30.7627 245.906 31.008C245.575 31.2427 245.41 31.5733 245.41 32C245.41 32.3093 245.517 32.5653 245.73 32.768C245.954 32.9707 246.247 33.152 246.61 33.312C246.973 33.4613 247.383 33.6053 247.842 33.744C248.301 33.8827 248.77 34.0373 249.25 34.208C249.73 34.3787 250.199 34.5813 250.658 34.816C251.117 35.04 251.527 35.3227 251.89 35.664C252.253 35.9947 252.541 36.4 252.754 36.88C252.978 37.36 253.09 37.936 253.09 38.608C253.09 39.4293 252.941 40.1867 252.642 40.88C252.343 41.5733 251.895 42.1707 251.298 42.672C250.711 43.1733 249.981 43.5627 249.106 43.84C248.242 44.1173 247.245 44.256 246.114 44.256C245.549 44.256 244.983 44.2027 244.418 44.096C243.853 43.9893 243.303 43.8453 242.77 43.664C242.247 43.4827 241.762 43.2693 241.314 43.024C240.866 42.768 240.482 42.496 240.162 42.208L241.314 40.384C241.442 40.1707 241.602 40.0053 241.794 39.888C241.997 39.76 242.253 39.696 242.562 39.696C242.85 39.696 243.106 39.76 243.33 39.888C243.565 40.016 243.815 40.1547 244.082 40.304C244.349 40.4533 244.658 40.592 245.01 40.72C245.373 40.848 245.826 40.912 246.37 40.912C246.754 40.912 247.079 40.8747 247.346 40.8C247.613 40.7147 247.826 40.6027 247.986 40.464C248.146 40.3253 248.263 40.1707 248.338 40C248.413 39.8293 248.45 39.6533 248.45 39.472C248.45 39.1413 248.338 38.8693 248.114 38.656C247.89 38.4427 247.597 38.2613 247.234 38.112C246.871 37.952 246.455 37.808 245.986 37.68C245.527 37.5413 245.058 37.3867 244.578 37.216C244.098 37.0453 243.623 36.8427 243.154 36.608C242.695 36.3627 242.285 36.0587 241.922 35.696C241.559 35.3227 241.266 34.8693 241.042 34.336C240.818 33.8027 240.706 33.1573 240.706 32.4C240.706 31.696 240.839 31.0293 241.106 30.4C241.383 29.76 241.794 29.2 242.338 28.72C242.882 28.24 243.565 27.8613 244.386 27.584C245.207 27.296 246.167 27.152 247.266 27.152C247.863 27.152 248.439 27.2053 248.994 27.312C249.559 27.4187 250.087 27.568 250.578 27.76C251.069 27.952 251.517 28.1813 251.922 28.448C252.327 28.704 252.685 28.9867 252.994 29.296L251.874 31.04Z" fill="white"/>
<path d="M34.5 55.9651V59.5C34.5 61.1568 33.1569 62.5 31.5 62.5C29.8431 62.5 28.5 61.1568 28.5 59.5V55.374C26.7748 54.9299 25.5 53.3638 25.5 51.5V50.5C25.5 48.2908 27.2909 46.5 29.5 46.5H33.2732L41.7056 42.4671C42.1098 42.2738 42.552 42.1735 43 42.1735C44.6569 42.1735 46 43.5166 46 45.1735V56.0697C46 56.4438 45.93 56.8145 45.7937 57.1629C45.19 58.7058 43.4497 59.4672 41.9068 58.8634L34.5 55.9651ZM32.5 55.5H30.5V59.5C30.5 60.0523 30.9477 60.5 31.5 60.5C32.0523 60.5 32.5 60.0523 32.5 59.5V55.5ZM34.5 48.1302V53.8174L42.6356 57.0009C43.1499 57.2022 43.73 56.9484 43.9312 56.4341C43.9767 56.318 44 56.1944 44 56.0697V45.1735C44 44.6212 43.5523 44.1735 43 44.1735C42.8507 44.1735 42.7033 44.2069 42.5685 44.2713L34.5 48.1302ZM32.5 53.5V48.5H29.5C28.3954 48.5 27.5 49.3954 27.5 50.5V51.5C27.5 52.6045 28.3954 53.5 29.5 53.5H32.5Z" fill="#994000"/>
</svg>
