<svg width="14" height="14" viewBox="0 0 14 14" fill="none" xmlns="http://www.w3.org/2000/svg">
<path d="M6.33334 6.33337H1.00001C0.63182 6.33337 0.333344 6.63185 0.333344 7.00004C0.333344 7.36823 0.63182 7.66671 1.00001 7.66671H6.33334V13C6.33334 13.3682 6.63182 13.6667 7.00001 13.6667C7.3682 13.6667 7.66668 13.3682 7.66668 13V7.66671H13C13.3682 7.66671 13.6667 7.36823 13.6667 7.00004C13.6667 6.63185 13.3682 6.33337 13 6.33337H7.66668V1.00004C7.66668 0.631851 7.3682 0.333374 7.00001 0.333374C6.63182 0.333374 6.33334 0.631851 6.33334 1.00004V6.33337Z" fill="#FF6B00"/>
</svg>
